<svg width="40" height="40" viewBox="0 0 40 40" fill="none" xmlns="http://www.w3.org/2000/svg">
<path d="M18.717 12.1508V5.46913C18.717 4.75867 19.2837 4.16663 20.0003 4.16663C20.642 4.16663 21.1856 4.66411 21.2718 5.29426L21.2837 5.46913V12.1508L29.2502 12.1513C33.2168 12.1513 36.4757 15.3996 36.6587 19.4506L36.6668 19.8101V28.2089C36.6668 32.2884 33.5213 35.6369 29.6135 35.825L29.2668 35.8333H10.7335C6.76683 35.8333 3.52365 32.6013 3.34156 28.5354L3.3335 28.1745V19.7929C3.3335 15.7135 6.46335 12.3486 10.3702 12.1597L10.7168 12.1513H18.7168V22.822L16.0502 20.0683C15.5502 19.5519 14.7335 19.5519 14.2335 20.0683C13.9835 20.3264 13.8668 20.6706 13.8668 21.0149C13.8668 21.2765 13.9415 21.5491 14.0994 21.7798L14.2335 21.9442L19.0835 26.9698C19.3168 27.2279 19.6502 27.3656 20.0002 27.3656C20.2779 27.3656 20.5557 27.27 20.7756 27.0887L20.9002 26.9698L25.7502 21.9442C26.2502 21.4279 26.2502 20.5846 25.7502 20.0683C25.2956 19.5989 24.5794 19.5562 24.0772 19.9403L23.9335 20.0683L21.2835 22.822V12.1513L18.717 12.1508Z" fill="#2B5AC9"/>
</svg>
