<svg width="33" height="33" viewBox="0 0 33 33" fill="none" xmlns="http://www.w3.org/2000/svg">
<path fill-rule="evenodd" clip-rule="evenodd" d="M27.8911 17.6331C28.4456 17.5626 28.875 17.082 28.875 16.5002C28.875 15.87 28.371 15.3585 27.75 15.3585H7.974L15.1185 8.13816L15.2196 8.02155C15.5565 7.57504 15.523 6.93324 15.1215 6.52298C14.6835 6.07694 13.971 6.07542 13.5315 6.51994L4.4565 15.6919L4.35642 15.8067C4.20417 16.0076 4.125 16.2529 4.125 16.5002C4.125 16.6479 4.1535 16.7956 4.2105 16.9356C4.3845 17.3634 4.794 17.642 5.25 17.642H27.75L27.8911 17.6331ZM15.1216 26.477C15.5596 26.0295 15.5596 25.3064 15.1186 24.8618L10.1131 19.8032L9.99759 19.701C9.55555 19.3605 8.92465 19.396 8.52315 19.8062C8.30415 20.03 8.19465 20.3208 8.19465 20.6115C8.19465 20.9053 8.30415 21.1976 8.52615 21.4214L13.5301 26.4801L13.6457 26.5819C14.088 26.9212 14.7201 26.8859 15.1216 26.477Z" fill="#333333"/>
</svg>
