<svg width="35" height="34" viewBox="0 0 35 34" fill="none" xmlns="http://www.w3.org/2000/svg">
<path fill-rule="evenodd" clip-rule="evenodd" d="M13.4922 15.7167C12.763 15.7167 12.1865 16.2833 12.1865 17C12.1865 17.7 12.763 18.2833 13.4922 18.2833H23.6666V26.25C23.6666 30.3333 20.2921 33.6667 16.1206 33.6667H7.8623C3.70777 33.6667 0.333252 30.35 0.333252 26.2667V7.75C0.333252 3.64999 3.72473 0.333328 7.8793 0.333328H16.1545C20.2921 0.333328 23.6666 3.65 23.6666 7.7333V15.7167H13.4922ZM29.7169 11.2337L34.5836 16.0837C34.8336 16.3337 34.9669 16.6503 34.9669 17.0003C34.9669 17.3337 34.8336 17.667 34.5836 17.9003L29.7169 22.7503C29.4669 23.0003 29.1336 23.1337 28.8169 23.1337C28.4836 23.1337 28.1503 23.0003 27.9003 22.7503C27.4003 22.2503 27.4003 21.4337 27.9003 20.9337L30.5669 18.2837H23.6669V15.717H30.5669L27.9003 13.067C27.4003 12.567 27.4003 11.7503 27.9003 11.2503C28.4003 10.7337 29.2169 10.7337 29.7169 11.2337Z" fill="#333333"/>
</svg>
