<svg width="612" height="372" viewBox="0 0 612 372" fill="none" xmlns="http://www.w3.org/2000/svg">
<g filter="url(#filter0_d)">
<path d="M542 56H70C64.4772 56 60 60.4772 60 66V296C60 301.523 64.4772 306 70 306H542C547.523 306 552 301.523 552 296V66C552 60.4772 547.523 56 542 56Z" fill="#FEFEFE"/>
</g>
<g filter="url(#filter1_d)">
<path d="M306 106C333.614 106 356 83.6142 356 56C356 28.3858 333.614 6 306 6C278.386 6 256 28.3858 256 56C256 83.6142 278.386 106 306 106Z" fill="#F9B56F"/>
</g>
<path fill-rule="evenodd" clip-rule="evenodd" d="M320.727 44.7227V48.8116C325.32 50.2452 328.667 54.403 328.667 59.3691V72.5341C328.667 78.682 323.57 83.6666 317.286 83.6666H294.717C288.43 83.6666 283.333 78.682 283.333 72.5341V59.3691C283.333 54.403 286.683 50.2452 291.273 48.8116V44.7227C291.3 36.7727 297.884 30.3333 305.959 30.3333C314.143 30.3333 320.727 36.7727 320.727 44.7227ZM306.014 34.9707C311.514 34.9707 315.985 39.3432 315.985 44.7226V48.2365H296.015V44.6696C296.042 39.3167 300.513 34.9707 306.014 34.9707ZM308.371 68.8798C308.371 70.1783 307.314 71.2118 305.986 71.2118C304.686 71.2118 303.629 70.1783 303.629 68.8798V62.9969C303.629 61.7249 304.686 60.6914 305.986 60.6914C307.314 60.6914 308.371 61.7249 308.371 62.9969V68.8798Z" fill="#FEFEFE"/>
<path d="M155.751 204.06L151.711 218H149.671L146.431 206.78L143.071 218L141.051 218.02L137.151 204.06H139.091L142.131 215.88L145.491 204.06H147.531L150.731 215.84L153.791 204.06H155.751ZM167.743 212.1C167.743 212.447 167.723 212.813 167.683 213.2H158.923C158.99 214.28 159.356 215.127 160.023 215.74C160.703 216.34 161.523 216.64 162.483 216.64C163.27 216.64 163.923 216.46 164.443 216.1C164.976 215.727 165.35 215.233 165.563 214.62H167.523C167.23 215.673 166.643 216.533 165.763 217.2C164.883 217.853 163.79 218.18 162.483 218.18C161.443 218.18 160.51 217.947 159.683 217.48C158.87 217.013 158.23 216.353 157.763 215.5C157.296 214.633 157.063 213.633 157.063 212.5C157.063 211.367 157.29 210.373 157.743 209.52C158.196 208.667 158.83 208.013 159.643 207.56C160.47 207.093 161.416 206.86 162.483 206.86C163.523 206.86 164.443 207.087 165.243 207.54C166.043 207.993 166.656 208.62 167.083 209.42C167.523 210.207 167.743 211.1 167.743 212.1ZM165.863 211.72C165.863 211.027 165.71 210.433 165.403 209.94C165.096 209.433 164.676 209.053 164.143 208.8C163.623 208.533 163.043 208.4 162.403 208.4C161.483 208.4 160.696 208.693 160.043 209.28C159.403 209.867 159.036 210.68 158.943 211.72H165.863ZM170.425 204.06H172.445L170.525 208.6H169.245L170.425 204.06ZM176.34 208.82C176.66 208.193 177.114 207.707 177.7 207.36C178.3 207.013 179.027 206.84 179.88 206.84V208.72H179.4C177.36 208.72 176.34 209.827 176.34 212.04V218H174.52V207.04H176.34V208.82ZM191.981 212.1C191.981 212.447 191.961 212.813 191.921 213.2H183.161C183.228 214.28 183.595 215.127 184.261 215.74C184.941 216.34 185.761 216.64 186.721 216.64C187.508 216.64 188.161 216.46 188.681 216.1C189.215 215.727 189.588 215.233 189.801 214.62H191.761C191.468 215.673 190.881 216.533 190.001 217.2C189.121 217.853 188.028 218.18 186.721 218.18C185.681 218.18 184.748 217.947 183.921 217.48C183.108 217.013 182.468 216.353 182.001 215.5C181.535 214.633 181.301 213.633 181.301 212.5C181.301 211.367 181.528 210.373 181.981 209.52C182.435 208.667 183.068 208.013 183.881 207.56C184.708 207.093 185.655 206.86 186.721 206.86C187.761 206.86 188.681 207.087 189.481 207.54C190.281 207.993 190.895 208.62 191.321 209.42C191.761 210.207 191.981 211.1 191.981 212.1ZM190.101 211.72C190.101 211.027 189.948 210.433 189.641 209.94C189.335 209.433 188.915 209.053 188.381 208.8C187.861 208.533 187.281 208.4 186.641 208.4C185.721 208.4 184.935 208.693 184.281 209.28C183.641 209.867 183.275 210.68 183.181 211.72H190.101ZM201.536 208.82C201.856 208.193 202.309 207.707 202.896 207.36C203.496 207.013 204.222 206.84 205.076 206.84V208.72H204.596C202.556 208.72 201.536 209.827 201.536 212.04V218H199.716V207.04H201.536V208.82ZM217.177 212.1C217.177 212.447 217.157 212.813 217.117 213.2H208.357C208.423 214.28 208.79 215.127 209.457 215.74C210.137 216.34 210.957 216.64 211.917 216.64C212.703 216.64 213.357 216.46 213.877 216.1C214.41 215.727 214.783 215.233 214.997 214.62H216.957C216.663 215.673 216.077 216.533 215.197 217.2C214.317 217.853 213.223 218.18 211.917 218.18C210.877 218.18 209.943 217.947 209.117 217.48C208.303 217.013 207.663 216.353 207.197 215.5C206.73 214.633 206.497 213.633 206.497 212.5C206.497 211.367 206.723 210.373 207.177 209.52C207.63 208.667 208.263 208.013 209.077 207.56C209.903 207.093 210.85 206.86 211.917 206.86C212.957 206.86 213.877 207.087 214.677 207.54C215.477 207.993 216.09 208.62 216.517 209.42C216.957 210.207 217.177 211.1 217.177 212.1ZM215.297 211.72C215.297 211.027 215.143 210.433 214.837 209.94C214.53 209.433 214.11 209.053 213.577 208.8C213.057 208.533 212.477 208.4 211.837 208.4C210.917 208.4 210.13 208.693 209.477 209.28C208.837 209.867 208.47 210.68 208.377 211.72H215.297ZM218.899 212.48C218.899 211.36 219.126 210.38 219.579 209.54C220.032 208.687 220.652 208.027 221.439 207.56C222.239 207.093 223.132 206.86 224.119 206.86C224.972 206.86 225.766 207.06 226.499 207.46C227.232 207.847 227.792 208.36 228.179 209V203.2H230.019V218H228.179V215.94C227.819 216.593 227.286 217.133 226.579 217.56C225.872 217.973 225.046 218.18 224.099 218.18C223.126 218.18 222.239 217.94 221.439 217.46C220.652 216.98 220.032 216.307 219.579 215.44C219.126 214.573 218.899 213.587 218.899 212.48ZM228.179 212.5C228.179 211.673 228.012 210.953 227.679 210.34C227.346 209.727 226.892 209.26 226.319 208.94C225.759 208.607 225.139 208.44 224.459 208.44C223.779 208.44 223.159 208.6 222.599 208.92C222.039 209.24 221.592 209.707 221.259 210.32C220.926 210.933 220.759 211.653 220.759 212.48C220.759 213.32 220.926 214.053 221.259 214.68C221.592 215.293 222.039 215.767 222.599 216.1C223.159 216.42 223.779 216.58 224.459 216.58C225.139 216.58 225.759 216.42 226.319 216.1C226.892 215.767 227.346 215.293 227.679 214.68C228.012 214.053 228.179 213.327 228.179 212.5ZM234.035 205.26C233.688 205.26 233.395 205.14 233.155 204.9C232.915 204.66 232.795 204.367 232.795 204.02C232.795 203.673 232.915 203.38 233.155 203.14C233.395 202.9 233.688 202.78 234.035 202.78C234.368 202.78 234.648 202.9 234.875 203.14C235.115 203.38 235.235 203.673 235.235 204.02C235.235 204.367 235.115 204.66 234.875 204.9C234.648 205.14 234.368 205.26 234.035 205.26ZM234.915 207.04V218H233.095V207.04H234.915ZM239.837 208.82C240.157 208.193 240.61 207.707 241.197 207.36C241.797 207.013 242.523 206.84 243.377 206.84V208.72H242.897C240.857 208.72 239.837 209.827 239.837 212.04V218H238.017V207.04H239.837V208.82ZM255.478 212.1C255.478 212.447 255.458 212.813 255.418 213.2H246.658C246.724 214.28 247.091 215.127 247.758 215.74C248.438 216.34 249.258 216.64 250.218 216.64C251.004 216.64 251.658 216.46 252.178 216.1C252.711 215.727 253.084 215.233 253.298 214.62H255.258C254.964 215.673 254.378 216.533 253.498 217.2C252.618 217.853 251.524 218.18 250.218 218.18C249.178 218.18 248.244 217.947 247.418 217.48C246.604 217.013 245.964 216.353 245.498 215.5C245.031 214.633 244.798 213.633 244.798 212.5C244.798 211.367 245.024 210.373 245.478 209.52C245.931 208.667 246.564 208.013 247.378 207.56C248.204 207.093 249.151 206.86 250.218 206.86C251.258 206.86 252.178 207.087 252.978 207.54C253.778 207.993 254.391 208.62 254.818 209.42C255.258 210.207 255.478 211.1 255.478 212.1ZM253.598 211.72C253.598 211.027 253.444 210.433 253.138 209.94C252.831 209.433 252.411 209.053 251.878 208.8C251.358 208.533 250.778 208.4 250.138 208.4C249.218 208.4 248.431 208.693 247.778 209.28C247.138 209.867 246.771 210.68 246.678 211.72H253.598ZM257.2 212.5C257.2 211.367 257.427 210.38 257.88 209.54C258.333 208.687 258.96 208.027 259.76 207.56C260.573 207.093 261.5 206.86 262.54 206.86C263.887 206.86 264.993 207.187 265.86 207.84C266.74 208.493 267.32 209.4 267.6 210.56H265.64C265.453 209.893 265.087 209.367 264.54 208.98C264.007 208.593 263.34 208.4 262.54 208.4C261.5 208.4 260.66 208.76 260.02 209.48C259.38 210.187 259.06 211.193 259.06 212.5C259.06 213.82 259.38 214.84 260.02 215.56C260.66 216.28 261.5 216.64 262.54 216.64C263.34 216.64 264.007 216.453 264.54 216.08C265.073 215.707 265.44 215.173 265.64 214.48H267.6C267.307 215.6 266.72 216.5 265.84 217.18C264.96 217.847 263.86 218.18 262.54 218.18C261.5 218.18 260.573 217.947 259.76 217.48C258.96 217.013 258.333 216.353 257.88 215.5C257.427 214.647 257.2 213.647 257.2 212.5ZM272.248 208.54V215C272.248 215.533 272.362 215.913 272.588 216.14C272.815 216.353 273.208 216.46 273.768 216.46H275.108V218H273.468C272.455 218 271.695 217.767 271.188 217.3C270.682 216.833 270.428 216.067 270.428 215V208.54H269.008V207.04H270.428V204.28H272.248V207.04H275.108V208.54H272.248ZM278.253 205.26C277.907 205.26 277.613 205.14 277.373 204.9C277.133 204.66 277.013 204.367 277.013 204.02C277.013 203.673 277.133 203.38 277.373 203.14C277.613 202.9 277.907 202.78 278.253 202.78C278.587 202.78 278.867 202.9 279.093 203.14C279.333 203.38 279.453 203.673 279.453 204.02C279.453 204.367 279.333 204.66 279.093 204.9C278.867 205.14 278.587 205.26 278.253 205.26ZM279.133 207.04V218H277.313V207.04H279.133ZM287.575 206.84C288.909 206.84 289.989 207.247 290.815 208.06C291.642 208.86 292.055 210.02 292.055 211.54V218H290.255V211.8C290.255 210.707 289.982 209.873 289.435 209.3C288.889 208.713 288.142 208.42 287.195 208.42C286.235 208.42 285.469 208.72 284.895 209.32C284.335 209.92 284.055 210.793 284.055 211.94V218H282.235V207.04H284.055V208.6C284.415 208.04 284.902 207.607 285.515 207.3C286.142 206.993 286.829 206.84 287.575 206.84ZM299.548 206.86C300.495 206.86 301.322 207.067 302.028 207.48C302.748 207.893 303.282 208.413 303.628 209.04V207.04H305.468V218.24C305.468 219.24 305.255 220.127 304.828 220.9C304.402 221.687 303.788 222.3 302.988 222.74C302.202 223.18 301.282 223.4 300.228 223.4C298.788 223.4 297.588 223.06 296.628 222.38C295.668 221.7 295.102 220.773 294.928 219.6H296.728C296.928 220.267 297.342 220.8 297.968 221.2C298.595 221.613 299.348 221.82 300.228 221.82C301.228 221.82 302.042 221.507 302.668 220.88C303.308 220.253 303.628 219.373 303.628 218.24V215.94C303.268 216.58 302.735 217.113 302.028 217.54C301.322 217.967 300.495 218.18 299.548 218.18C298.575 218.18 297.688 217.94 296.888 217.46C296.102 216.98 295.482 216.307 295.028 215.44C294.575 214.573 294.348 213.587 294.348 212.48C294.348 211.36 294.575 210.38 295.028 209.54C295.482 208.687 296.102 208.027 296.888 207.56C297.688 207.093 298.575 206.86 299.548 206.86ZM303.628 212.5C303.628 211.673 303.462 210.953 303.128 210.34C302.795 209.727 302.342 209.26 301.768 208.94C301.208 208.607 300.588 208.44 299.908 208.44C299.228 208.44 298.608 208.6 298.048 208.92C297.488 209.24 297.042 209.707 296.708 210.32C296.375 210.933 296.208 211.653 296.208 212.48C296.208 213.32 296.375 214.053 296.708 214.68C297.042 215.293 297.488 215.767 298.048 216.1C298.608 216.42 299.228 216.58 299.908 216.58C300.588 216.58 301.208 216.42 301.768 216.1C302.342 215.767 302.795 215.293 303.128 214.68C303.462 214.053 303.628 213.327 303.628 212.5ZM323.316 207.04L316.716 223.16H314.836L316.996 217.88L312.576 207.04H314.596L318.036 215.92L321.436 207.04H323.316ZM329.925 218.18C328.899 218.18 327.965 217.947 327.125 217.48C326.299 217.013 325.645 216.353 325.165 215.5C324.699 214.633 324.465 213.633 324.465 212.5C324.465 211.38 324.705 210.393 325.185 209.54C325.679 208.673 326.345 208.013 327.185 207.56C328.025 207.093 328.965 206.86 330.005 206.86C331.045 206.86 331.985 207.093 332.825 207.56C333.665 208.013 334.325 208.667 334.805 209.52C335.299 210.373 335.545 211.367 335.545 212.5C335.545 213.633 335.292 214.633 334.785 215.5C334.292 216.353 333.619 217.013 332.765 217.48C331.912 217.947 330.965 218.18 329.925 218.18ZM329.925 216.58C330.579 216.58 331.192 216.427 331.765 216.12C332.339 215.813 332.799 215.353 333.145 214.74C333.505 214.127 333.685 213.38 333.685 212.5C333.685 211.62 333.512 210.873 333.165 210.26C332.819 209.647 332.365 209.193 331.805 208.9C331.245 208.593 330.639 208.44 329.985 208.44C329.319 208.44 328.705 208.593 328.145 208.9C327.599 209.193 327.159 209.647 326.825 210.26C326.492 210.873 326.325 211.62 326.325 212.5C326.325 213.393 326.485 214.147 326.805 214.76C327.139 215.373 327.579 215.833 328.125 216.14C328.672 216.433 329.272 216.58 329.925 216.58ZM347.658 207.04V218H345.838V216.38C345.492 216.94 345.005 217.38 344.378 217.7C343.765 218.007 343.085 218.16 342.338 218.16C341.485 218.16 340.718 217.987 340.038 217.64C339.358 217.28 338.818 216.747 338.418 216.04C338.032 215.333 337.838 214.473 337.838 213.46V207.04H339.638V213.22C339.638 214.3 339.912 215.133 340.458 215.72C341.005 216.293 341.752 216.58 342.698 216.58C343.672 216.58 344.438 216.28 344.998 215.68C345.558 215.08 345.838 214.207 345.838 213.06V207.04H347.658ZM358.283 208.54V215C358.283 215.533 358.397 215.913 358.623 216.14C358.85 216.353 359.243 216.46 359.803 216.46H361.143V218H359.503C358.49 218 357.73 217.767 357.223 217.3C356.717 216.833 356.463 216.067 356.463 215V208.54H355.043V207.04H356.463V204.28H358.283V207.04H361.143V208.54H358.283ZM368.129 218.18C367.102 218.18 366.169 217.947 365.329 217.48C364.502 217.013 363.849 216.353 363.369 215.5C362.902 214.633 362.669 213.633 362.669 212.5C362.669 211.38 362.909 210.393 363.389 209.54C363.882 208.673 364.549 208.013 365.389 207.56C366.229 207.093 367.169 206.86 368.209 206.86C369.249 206.86 370.189 207.093 371.029 207.56C371.869 208.013 372.529 208.667 373.009 209.52C373.502 210.373 373.749 211.367 373.749 212.5C373.749 213.633 373.495 214.633 372.989 215.5C372.495 216.353 371.822 217.013 370.969 217.48C370.115 217.947 369.169 218.18 368.129 218.18ZM368.129 216.58C368.782 216.58 369.395 216.427 369.969 216.12C370.542 215.813 371.002 215.353 371.349 214.74C371.709 214.127 371.889 213.38 371.889 212.5C371.889 211.62 371.715 210.873 371.369 210.26C371.022 209.647 370.569 209.193 370.009 208.9C369.449 208.593 368.842 208.44 368.189 208.44C367.522 208.44 366.909 208.593 366.349 208.9C365.802 209.193 365.362 209.647 365.029 210.26C364.695 210.873 364.529 211.62 364.529 212.5C364.529 213.393 364.689 214.147 365.009 214.76C365.342 215.373 365.782 215.833 366.329 216.14C366.875 216.433 367.475 216.58 368.129 216.58ZM383.694 208.54V215C383.694 215.533 383.807 215.913 384.034 216.14C384.26 216.353 384.654 216.46 385.214 216.46H386.554V218H384.914C383.9 218 383.14 217.767 382.634 217.3C382.127 216.833 381.874 216.067 381.874 215V208.54H380.454V207.04H381.874V204.28H383.694V207.04H386.554V208.54H383.694ZM394.199 206.84C395.025 206.84 395.772 207.02 396.439 207.38C397.105 207.727 397.625 208.253 397.999 208.96C398.385 209.667 398.579 210.527 398.579 211.54V218H396.779V211.8C396.779 210.707 396.505 209.873 395.959 209.3C395.412 208.713 394.665 208.42 393.719 208.42C392.759 208.42 391.992 208.72 391.419 209.32C390.859 209.92 390.579 210.793 390.579 211.94V218H388.759V203.2H390.579V208.6C390.939 208.04 391.432 207.607 392.059 207.3C392.699 206.993 393.412 206.84 394.199 206.84ZM411.552 212.1C411.552 212.447 411.532 212.813 411.492 213.2H402.732C402.798 214.28 403.165 215.127 403.832 215.74C404.512 216.34 405.332 216.64 406.292 216.64C407.078 216.64 407.732 216.46 408.252 216.1C408.785 215.727 409.158 215.233 409.372 214.62H411.332C411.038 215.673 410.452 216.533 409.572 217.2C408.692 217.853 407.598 218.18 406.292 218.18C405.252 218.18 404.318 217.947 403.492 217.48C402.678 217.013 402.038 216.353 401.572 215.5C401.105 214.633 400.872 213.633 400.872 212.5C400.872 211.367 401.098 210.373 401.552 209.52C402.005 208.667 402.638 208.013 403.452 207.56C404.278 207.093 405.225 206.86 406.292 206.86C407.332 206.86 408.252 207.087 409.052 207.54C409.852 207.993 410.465 208.62 410.892 209.42C411.332 210.207 411.552 211.1 411.552 212.1ZM409.672 211.72C409.672 211.027 409.518 210.433 409.212 209.94C408.905 209.433 408.485 209.053 407.952 208.8C407.432 208.533 406.852 208.4 406.212 208.4C405.292 208.4 404.505 208.693 403.852 209.28C403.212 209.867 402.845 210.68 402.752 211.72H409.672ZM418.606 212.48C418.606 211.36 418.833 210.38 419.286 209.54C419.739 208.687 420.359 208.027 421.146 207.56C421.946 207.093 422.839 206.86 423.826 206.86C424.679 206.86 425.473 207.06 426.206 207.46C426.939 207.847 427.499 208.36 427.886 209V203.2H429.726V218H427.886V215.94C427.526 216.593 426.993 217.133 426.286 217.56C425.579 217.973 424.753 218.18 423.806 218.18C422.833 218.18 421.946 217.94 421.146 217.46C420.359 216.98 419.739 216.307 419.286 215.44C418.833 214.573 418.606 213.587 418.606 212.48ZM427.886 212.5C427.886 211.673 427.719 210.953 427.386 210.34C427.053 209.727 426.599 209.26 426.026 208.94C425.466 208.607 424.846 208.44 424.166 208.44C423.486 208.44 422.866 208.6 422.306 208.92C421.746 209.24 421.299 209.707 420.966 210.32C420.633 210.933 420.466 211.653 420.466 212.48C420.466 213.32 420.633 214.053 420.966 214.68C421.299 215.293 421.746 215.767 422.306 216.1C422.866 216.42 423.486 216.58 424.166 216.58C424.846 216.58 425.466 216.42 426.026 216.1C426.599 215.767 427.053 215.293 427.386 214.68C427.719 214.053 427.886 213.327 427.886 212.5ZM442.802 212.1C442.802 212.447 442.782 212.813 442.742 213.2H433.982C434.048 214.28 434.415 215.127 435.082 215.74C435.762 216.34 436.582 216.64 437.542 216.64C438.328 216.64 438.982 216.46 439.502 216.1C440.035 215.727 440.408 215.233 440.622 214.62H442.582C442.288 215.673 441.702 216.533 440.822 217.2C439.942 217.853 438.848 218.18 437.542 218.18C436.502 218.18 435.568 217.947 434.742 217.48C433.928 217.013 433.288 216.353 432.822 215.5C432.355 214.633 432.122 213.633 432.122 212.5C432.122 211.367 432.348 210.373 432.802 209.52C433.255 208.667 433.888 208.013 434.702 207.56C435.528 207.093 436.475 206.86 437.542 206.86C438.582 206.86 439.502 207.087 440.302 207.54C441.102 207.993 441.715 208.62 442.142 209.42C442.582 210.207 442.802 211.1 442.802 212.1ZM440.922 211.72C440.922 211.027 440.768 210.433 440.462 209.94C440.155 209.433 439.735 209.053 439.202 208.8C438.682 208.533 438.102 208.4 437.462 208.4C436.542 208.4 435.755 208.693 435.102 209.28C434.462 209.867 434.095 210.68 434.002 211.72H440.922ZM447.424 208.54V215C447.424 215.533 447.537 215.913 447.764 216.14C447.991 216.353 448.384 216.46 448.944 216.46H450.284V218H448.644C447.631 218 446.871 217.767 446.364 217.3C445.857 216.833 445.604 216.067 445.604 215V208.54H444.184V207.04H445.604V204.28H447.424V207.04H450.284V208.54H447.424ZM451.809 212.48C451.809 211.36 452.036 210.38 452.489 209.54C452.943 208.687 453.563 208.027 454.349 207.56C455.149 207.093 456.036 206.86 457.009 206.86C457.969 206.86 458.803 207.067 459.509 207.48C460.216 207.893 460.743 208.413 461.089 209.04V207.04H462.929V218H461.089V215.96C460.729 216.6 460.189 217.133 459.469 217.56C458.763 217.973 457.936 218.18 456.989 218.18C456.016 218.18 455.136 217.94 454.349 217.46C453.563 216.98 452.943 216.307 452.489 215.44C452.036 214.573 451.809 213.587 451.809 212.48ZM461.089 212.5C461.089 211.673 460.923 210.953 460.589 210.34C460.256 209.727 459.803 209.26 459.229 208.94C458.669 208.607 458.049 208.44 457.369 208.44C456.689 208.44 456.069 208.6 455.509 208.92C454.949 209.24 454.503 209.707 454.169 210.32C453.836 210.933 453.669 211.653 453.669 212.48C453.669 213.32 453.836 214.053 454.169 214.68C454.503 215.293 454.949 215.767 455.509 216.1C456.069 216.42 456.689 216.58 457.369 216.58C458.049 216.58 458.669 216.42 459.229 216.1C459.803 215.767 460.256 215.293 460.589 214.68C460.923 214.053 461.089 213.327 461.089 212.5ZM466.945 205.26C466.598 205.26 466.305 205.14 466.065 204.9C465.825 204.66 465.705 204.367 465.705 204.02C465.705 203.673 465.825 203.38 466.065 203.14C466.305 202.9 466.598 202.78 466.945 202.78C467.278 202.78 467.558 202.9 467.785 203.14C468.025 203.38 468.145 203.673 468.145 204.02C468.145 204.367 468.025 204.66 467.785 204.9C467.558 205.14 467.278 205.26 466.945 205.26ZM467.825 207.04V218H466.005V207.04H467.825ZM472.747 203.2V218H470.927V203.2H472.747ZM227.131 248.18C226.291 248.18 225.538 248.04 224.871 247.76C224.204 247.467 223.678 247.067 223.291 246.56C222.904 246.04 222.691 245.447 222.651 244.78H224.531C224.584 245.327 224.838 245.773 225.291 246.12C225.758 246.467 226.364 246.64 227.111 246.64C227.804 246.64 228.351 246.487 228.751 246.18C229.151 245.873 229.351 245.487 229.351 245.02C229.351 244.54 229.138 244.187 228.711 243.96C228.284 243.72 227.624 243.487 226.731 243.26C225.918 243.047 225.251 242.833 224.731 242.62C224.224 242.393 223.784 242.067 223.411 241.64C223.051 241.2 222.871 240.627 222.871 239.92C222.871 239.36 223.038 238.847 223.371 238.38C223.704 237.913 224.178 237.547 224.791 237.28C225.404 237 226.104 236.86 226.891 236.86C228.104 236.86 229.084 237.167 229.831 237.78C230.578 238.393 230.978 239.233 231.031 240.3H229.211C229.171 239.727 228.938 239.267 228.511 238.92C228.098 238.573 227.538 238.4 226.831 238.4C226.178 238.4 225.658 238.54 225.271 238.82C224.884 239.1 224.691 239.467 224.691 239.92C224.691 240.28 224.804 240.58 225.031 240.82C225.271 241.047 225.564 241.233 225.911 241.38C226.271 241.513 226.764 241.667 227.391 241.84C228.178 242.053 228.818 242.267 229.311 242.48C229.804 242.68 230.224 242.987 230.571 243.4C230.931 243.813 231.118 244.353 231.131 245.02C231.131 245.62 230.964 246.16 230.631 246.64C230.298 247.12 229.824 247.5 229.211 247.78C228.611 248.047 227.918 248.18 227.131 248.18ZM243.42 237.04V248H241.6V246.38C241.253 246.94 240.767 247.38 240.14 247.7C239.527 248.007 238.847 248.16 238.1 248.16C237.247 248.16 236.48 247.987 235.8 247.64C235.12 247.28 234.58 246.747 234.18 246.04C233.793 245.333 233.6 244.473 233.6 243.46V237.04H235.4V243.22C235.4 244.3 235.673 245.133 236.22 245.72C236.767 246.293 237.513 246.58 238.46 246.58C239.433 246.58 240.2 246.28 240.76 245.68C241.32 245.08 241.6 244.207 241.6 243.06V237.04H243.42ZM259.673 236.84C260.526 236.84 261.286 237.02 261.953 237.38C262.62 237.727 263.146 238.253 263.533 238.96C263.92 239.667 264.113 240.527 264.113 241.54V248H262.313V241.8C262.313 240.707 262.04 239.873 261.493 239.3C260.96 238.713 260.233 238.42 259.313 238.42C258.366 238.42 257.613 238.727 257.053 239.34C256.493 239.94 256.213 240.813 256.213 241.96V248H254.413V241.8C254.413 240.707 254.14 239.873 253.593 239.3C253.06 238.713 252.333 238.42 251.413 238.42C250.466 238.42 249.713 238.727 249.153 239.34C248.593 239.94 248.313 240.813 248.313 241.96V248H246.493V237.04H248.313V238.62C248.673 238.047 249.153 237.607 249.753 237.3C250.366 236.993 251.04 236.84 251.773 236.84C252.693 236.84 253.506 237.047 254.213 237.46C254.92 237.873 255.446 238.48 255.793 239.28C256.1 238.507 256.606 237.907 257.313 237.48C258.02 237.053 258.806 236.84 259.673 236.84ZM280.279 236.84C281.132 236.84 281.892 237.02 282.559 237.38C283.225 237.727 283.752 238.253 284.139 238.96C284.525 239.667 284.719 240.527 284.719 241.54V248H282.919V241.8C282.919 240.707 282.645 239.873 282.099 239.3C281.565 238.713 280.839 238.42 279.919 238.42C278.972 238.42 278.219 238.727 277.659 239.34C277.099 239.94 276.819 240.813 276.819 241.96V248H275.019V241.8C275.019 240.707 274.745 239.873 274.199 239.3C273.665 238.713 272.939 238.42 272.019 238.42C271.072 238.42 270.319 238.727 269.759 239.34C269.199 239.94 268.919 240.813 268.919 241.96V248H267.099V237.04H268.919V238.62C269.279 238.047 269.759 237.607 270.359 237.3C270.972 236.993 271.645 236.84 272.379 236.84C273.299 236.84 274.112 237.047 274.819 237.46C275.525 237.873 276.052 238.48 276.399 239.28C276.705 238.507 277.212 237.907 277.919 237.48C278.625 237.053 279.412 236.84 280.279 236.84ZM287.024 242.48C287.024 241.36 287.251 240.38 287.704 239.54C288.157 238.687 288.777 238.027 289.564 237.56C290.364 237.093 291.251 236.86 292.224 236.86C293.184 236.86 294.017 237.067 294.724 237.48C295.431 237.893 295.957 238.413 296.304 239.04V237.04H298.144V248H296.304V245.96C295.944 246.6 295.404 247.133 294.684 247.56C293.977 247.973 293.151 248.18 292.204 248.18C291.231 248.18 290.351 247.94 289.564 247.46C288.777 246.98 288.157 246.307 287.704 245.44C287.251 244.573 287.024 243.587 287.024 242.48ZM296.304 242.5C296.304 241.673 296.137 240.953 295.804 240.34C295.471 239.727 295.017 239.26 294.444 238.94C293.884 238.607 293.264 238.44 292.584 238.44C291.904 238.44 291.284 238.6 290.724 238.92C290.164 239.24 289.717 239.707 289.384 240.32C289.051 240.933 288.884 241.653 288.884 242.48C288.884 243.32 289.051 244.053 289.384 244.68C289.717 245.293 290.164 245.767 290.724 246.1C291.284 246.42 291.904 246.58 292.584 246.58C293.264 246.58 293.884 246.42 294.444 246.1C295.017 245.767 295.471 245.293 295.804 244.68C296.137 244.053 296.304 243.327 296.304 242.5ZM303.04 238.82C303.36 238.193 303.813 237.707 304.4 237.36C305 237.013 305.726 236.84 306.58 236.84V238.72H306.1C304.06 238.72 303.04 239.827 303.04 242.04V248H301.22V237.04H303.04V238.82ZM318.121 237.04L311.521 253.16H309.641L311.801 247.88L307.381 237.04H309.401L312.841 245.92L316.241 237.04H318.121ZM327.102 239.06C327.462 238.433 327.996 237.913 328.702 237.5C329.422 237.073 330.256 236.86 331.202 236.86C332.176 236.86 333.056 237.093 333.842 237.56C334.642 238.027 335.269 238.687 335.722 239.54C336.176 240.38 336.402 241.36 336.402 242.48C336.402 243.587 336.176 244.573 335.722 245.44C335.269 246.307 334.642 246.98 333.842 247.46C333.056 247.94 332.176 248.18 331.202 248.18C330.269 248.18 329.442 247.973 328.722 247.56C328.016 247.133 327.476 246.607 327.102 245.98V253.2H325.282V237.04H327.102V239.06ZM334.542 242.48C334.542 241.653 334.376 240.933 334.042 240.32C333.709 239.707 333.256 239.24 332.682 238.92C332.122 238.6 331.502 238.44 330.822 238.44C330.156 238.44 329.536 238.607 328.962 238.94C328.402 239.26 327.949 239.733 327.602 240.36C327.269 240.973 327.102 241.687 327.102 242.5C327.102 243.327 327.269 244.053 327.602 244.68C327.949 245.293 328.402 245.767 328.962 246.1C329.536 246.42 330.156 246.58 330.822 246.58C331.502 246.58 332.122 246.42 332.682 246.1C333.256 245.767 333.709 245.293 334.042 244.68C334.376 244.053 334.542 243.32 334.542 242.48ZM338.118 242.48C338.118 241.36 338.344 240.38 338.798 239.54C339.251 238.687 339.871 238.027 340.658 237.56C341.458 237.093 342.344 236.86 343.318 236.86C344.278 236.86 345.111 237.067 345.818 237.48C346.524 237.893 347.051 238.413 347.398 239.04V237.04H349.238V248H347.398V245.96C347.038 246.6 346.498 247.133 345.778 247.56C345.071 247.973 344.244 248.18 343.298 248.18C342.324 248.18 341.444 247.94 340.658 247.46C339.871 246.98 339.251 246.307 338.798 245.44C338.344 244.573 338.118 243.587 338.118 242.48ZM347.398 242.5C347.398 241.673 347.231 240.953 346.898 240.34C346.564 239.727 346.111 239.26 345.538 238.94C344.978 238.607 344.358 238.44 343.678 238.44C342.998 238.44 342.378 238.6 341.818 238.92C341.258 239.24 340.811 239.707 340.478 240.32C340.144 240.933 339.978 241.653 339.978 242.48C339.978 243.32 340.144 244.053 340.478 244.68C340.811 245.293 341.258 245.767 341.818 246.1C342.378 246.42 342.998 246.58 343.678 246.58C344.358 246.58 344.978 246.42 345.538 246.1C346.111 245.767 346.564 245.293 346.898 244.68C347.231 244.053 347.398 243.327 347.398 242.5ZM356.833 236.86C357.78 236.86 358.607 237.067 359.313 237.48C360.033 237.893 360.567 238.413 360.913 239.04V237.04H362.753V248.24C362.753 249.24 362.54 250.127 362.113 250.9C361.687 251.687 361.073 252.3 360.273 252.74C359.487 253.18 358.567 253.4 357.513 253.4C356.073 253.4 354.873 253.06 353.913 252.38C352.953 251.7 352.387 250.773 352.213 249.6H354.013C354.213 250.267 354.627 250.8 355.253 251.2C355.88 251.613 356.633 251.82 357.513 251.82C358.513 251.82 359.327 251.507 359.953 250.88C360.593 250.253 360.913 249.373 360.913 248.24V245.94C360.553 246.58 360.02 247.113 359.313 247.54C358.607 247.967 357.78 248.18 356.833 248.18C355.86 248.18 354.973 247.94 354.173 247.46C353.387 246.98 352.767 246.307 352.313 245.44C351.86 244.573 351.633 243.587 351.633 242.48C351.633 241.36 351.86 240.38 352.313 239.54C352.767 238.687 353.387 238.027 354.173 237.56C354.973 237.093 355.86 236.86 356.833 236.86ZM360.913 242.5C360.913 241.673 360.747 240.953 360.413 240.34C360.08 239.727 359.627 239.26 359.053 238.94C358.493 238.607 357.873 238.44 357.193 238.44C356.513 238.44 355.893 238.6 355.333 238.92C354.773 239.24 354.327 239.707 353.993 240.32C353.66 240.933 353.493 241.653 353.493 242.48C353.493 243.32 353.66 244.053 353.993 244.68C354.327 245.293 354.773 245.767 355.333 246.1C355.893 246.42 356.513 246.58 357.193 246.58C357.873 246.58 358.493 246.42 359.053 246.1C359.627 245.767 360.08 245.293 360.413 244.68C360.747 244.053 360.913 243.327 360.913 242.5ZM375.829 242.1C375.829 242.447 375.809 242.813 375.769 243.2H367.009C367.076 244.28 367.442 245.127 368.109 245.74C368.789 246.34 369.609 246.64 370.569 246.64C371.356 246.64 372.009 246.46 372.529 246.1C373.062 245.727 373.436 245.233 373.649 244.62H375.609C375.316 245.673 374.729 246.533 373.849 247.2C372.969 247.853 371.876 248.18 370.569 248.18C369.529 248.18 368.596 247.947 367.769 247.48C366.956 247.013 366.316 246.353 365.849 245.5C365.382 244.633 365.149 243.633 365.149 242.5C365.149 241.367 365.376 240.373 365.829 239.52C366.282 238.667 366.916 238.013 367.729 237.56C368.556 237.093 369.502 236.86 370.569 236.86C371.609 236.86 372.529 237.087 373.329 237.54C374.129 237.993 374.742 238.62 375.169 239.42C375.609 240.207 375.829 241.1 375.829 242.1ZM373.949 241.72C373.949 241.027 373.796 240.433 373.489 239.94C373.182 239.433 372.762 239.053 372.229 238.8C371.709 238.533 371.129 238.4 370.489 238.4C369.569 238.4 368.782 238.693 368.129 239.28C367.489 239.867 367.122 240.68 367.029 241.72H373.949ZM378.811 248.12C378.465 248.12 378.171 248 377.931 247.76C377.691 247.52 377.571 247.227 377.571 246.88C377.571 246.533 377.691 246.24 377.931 246C378.171 245.76 378.465 245.64 378.811 245.64C379.145 245.64 379.425 245.76 379.651 246C379.891 246.24 380.011 246.533 380.011 246.88C380.011 247.227 379.891 247.52 379.651 247.76C379.425 248 379.145 248.12 378.811 248.12ZM383.011 248.12C382.664 248.12 382.371 248 382.131 247.76C381.891 247.52 381.771 247.227 381.771 246.88C381.771 246.533 381.891 246.24 382.131 246C382.371 245.76 382.664 245.64 383.011 245.64C383.344 245.64 383.624 245.76 383.851 246C384.091 246.24 384.211 246.533 384.211 246.88C384.211 247.227 384.091 247.52 383.851 247.76C383.624 248 383.344 248.12 383.011 248.12ZM387.21 248.12C386.863 248.12 386.57 248 386.33 247.76C386.09 247.52 385.97 247.227 385.97 246.88C385.97 246.533 386.09 246.24 386.33 246C386.57 245.76 386.863 245.64 387.21 245.64C387.543 245.64 387.823 245.76 388.05 246C388.29 246.24 388.41 246.533 388.41 246.88C388.41 247.227 388.29 247.52 388.05 247.76C387.823 248 387.543 248.12 387.21 248.12Z" fill="black"/>
<path d="M172.432 144.92V150.4H160.992V156.32H169.552V161.64H160.992V173H154.152V144.92H172.432ZM179.467 148.36C178.267 148.36 177.28 148.013 176.507 147.32C175.76 146.6 175.387 145.72 175.387 144.68C175.387 143.613 175.76 142.733 176.507 142.04C177.28 141.32 178.267 140.96 179.467 140.96C180.64 140.96 181.6 141.32 182.347 142.04C183.12 142.733 183.507 143.613 183.507 144.68C183.507 145.72 183.12 146.6 182.347 147.32C181.6 148.013 180.64 148.36 179.467 148.36ZM182.867 150.68V173H176.027V150.68H182.867ZM194.664 143.4V173H187.824V143.4H194.664ZM220.661 161.48C220.661 162.12 220.621 162.787 220.541 163.48H205.061C205.167 164.867 205.607 165.933 206.381 166.68C207.181 167.4 208.154 167.76 209.301 167.76C211.007 167.76 212.194 167.04 212.861 165.6H220.141C219.767 167.067 219.087 168.387 218.101 169.56C217.141 170.733 215.927 171.653 214.461 172.32C212.994 172.987 211.354 173.32 209.541 173.32C207.354 173.32 205.407 172.853 203.701 171.92C201.994 170.987 200.661 169.653 199.701 167.92C198.741 166.187 198.261 164.16 198.261 161.84C198.261 159.52 198.727 157.493 199.661 155.76C200.621 154.027 201.954 152.693 203.661 151.76C205.367 150.827 207.327 150.36 209.541 150.36C211.701 150.36 213.621 150.813 215.301 151.72C216.981 152.627 218.287 153.92 219.221 155.6C220.181 157.28 220.661 159.24 220.661 161.48ZM213.661 159.68C213.661 158.507 213.261 157.573 212.461 156.88C211.661 156.187 210.661 155.84 209.461 155.84C208.314 155.84 207.341 156.173 206.541 156.84C205.767 157.507 205.287 158.453 205.101 159.68H213.661ZM253.786 161.48C253.786 162.12 253.746 162.787 253.666 163.48H238.186C238.292 164.867 238.732 165.933 239.506 166.68C240.306 167.4 241.279 167.76 242.426 167.76C244.132 167.76 245.319 167.04 245.986 165.6H253.266C252.892 167.067 252.212 168.387 251.226 169.56C250.266 170.733 249.052 171.653 247.586 172.32C246.119 172.987 244.479 173.32 242.666 173.32C240.479 173.32 238.532 172.853 236.826 171.92C235.119 170.987 233.786 169.653 232.826 167.92C231.866 166.187 231.386 164.16 231.386 161.84C231.386 159.52 231.852 157.493 232.786 155.76C233.746 154.027 235.079 152.693 236.786 151.76C238.492 150.827 240.452 150.36 242.666 150.36C244.826 150.36 246.746 150.813 248.426 151.72C250.106 152.627 251.412 153.92 252.346 155.6C253.306 157.28 253.786 159.24 253.786 161.48ZM246.786 159.68C246.786 158.507 246.386 157.573 245.586 156.88C244.786 156.187 243.786 155.84 242.586 155.84C241.439 155.84 240.466 156.173 239.666 156.84C238.892 157.507 238.412 158.453 238.226 159.68H246.786ZM270.994 150.44C273.607 150.44 275.687 151.293 277.234 153C278.807 154.68 279.594 157 279.594 159.96V173H272.794V160.88C272.794 159.387 272.407 158.227 271.634 157.4C270.861 156.573 269.821 156.16 268.514 156.16C267.207 156.16 266.167 156.573 265.394 157.4C264.621 158.227 264.234 159.387 264.234 160.88V173H257.394V150.68H264.234V153.64C264.927 152.653 265.861 151.88 267.034 151.32C268.207 150.733 269.527 150.44 270.994 150.44ZM282.987 161.84C282.987 159.52 283.454 157.493 284.387 155.76C285.347 154.027 286.667 152.693 288.347 151.76C290.054 150.827 292.001 150.36 294.187 150.36C296.987 150.36 299.321 151.093 301.187 152.56C303.081 154.027 304.321 156.093 304.907 158.76H297.627C297.014 157.053 295.827 156.2 294.067 156.2C292.814 156.2 291.814 156.693 291.067 157.68C290.321 158.64 289.947 160.027 289.947 161.84C289.947 163.653 290.321 165.053 291.067 166.04C291.814 167 292.814 167.48 294.067 167.48C295.827 167.48 297.014 166.627 297.627 164.92H304.907C304.321 167.533 303.081 169.587 301.187 171.08C299.294 172.573 296.961 173.32 294.187 173.32C292.001 173.32 290.054 172.853 288.347 171.92C286.667 170.987 285.347 169.653 284.387 167.92C283.454 166.187 282.987 164.16 282.987 161.84ZM315.406 154.4C316.206 153.173 317.206 152.213 318.406 151.52C319.606 150.8 320.939 150.44 322.406 150.44V157.68H320.526C318.819 157.68 317.539 158.053 316.686 158.8C315.833 159.52 315.406 160.8 315.406 162.64V173H308.566V150.68H315.406V154.4ZM348.475 150.68L334.475 183.6H327.115L332.235 172.24L323.155 150.68H330.795L335.955 164.64L341.075 150.68H348.475ZM357.789 153.84C358.455 152.8 359.375 151.96 360.549 151.32C361.722 150.68 363.095 150.36 364.669 150.36C366.509 150.36 368.175 150.827 369.669 151.76C371.162 152.693 372.335 154.027 373.189 155.76C374.069 157.493 374.509 159.507 374.509 161.8C374.509 164.093 374.069 166.12 373.189 167.88C372.335 169.613 371.162 170.96 369.669 171.92C368.175 172.853 366.509 173.32 364.669 173.32C363.122 173.32 361.749 173 360.549 172.36C359.375 171.72 358.455 170.893 357.789 169.88V183.64H350.949V150.68H357.789V153.84ZM367.549 161.8C367.549 160.093 367.069 158.76 366.109 157.8C365.175 156.813 364.015 156.32 362.629 156.32C361.269 156.32 360.109 156.813 359.149 157.8C358.215 158.787 357.749 160.133 357.749 161.84C357.749 163.547 358.215 164.893 359.149 165.88C360.109 166.867 361.269 167.36 362.629 167.36C363.989 167.36 365.149 166.867 366.109 165.88C367.069 164.867 367.549 163.507 367.549 161.8ZM390.537 167.2V173H387.057C384.577 173 382.644 172.4 381.257 171.2C379.871 169.973 379.177 167.987 379.177 165.24V156.36H376.457V150.68H379.177V145.24H386.017V150.68H390.497V156.36H386.017V165.32C386.017 165.987 386.177 166.467 386.497 166.76C386.817 167.053 387.351 167.2 388.097 167.2H390.537ZM415.387 161.48C415.387 162.12 415.347 162.787 415.267 163.48H399.787C399.894 164.867 400.334 165.933 401.107 166.68C401.907 167.4 402.881 167.76 404.027 167.76C405.734 167.76 406.921 167.04 407.587 165.6H414.867C414.494 167.067 413.814 168.387 412.827 169.56C411.867 170.733 410.654 171.653 409.187 172.32C407.721 172.987 406.081 173.32 404.267 173.32C402.081 173.32 400.134 172.853 398.427 171.92C396.721 170.987 395.387 169.653 394.427 167.92C393.467 166.187 392.987 164.16 392.987 161.84C392.987 159.52 393.454 157.493 394.387 155.76C395.347 154.027 396.681 152.693 398.387 151.76C400.094 150.827 402.054 150.36 404.267 150.36C406.427 150.36 408.347 150.813 410.027 151.72C411.707 152.627 413.014 153.92 413.947 155.6C414.907 157.28 415.387 159.24 415.387 161.48ZM408.387 159.68C408.387 158.507 407.987 157.573 407.187 156.88C406.387 156.187 405.387 155.84 404.187 155.84C403.041 155.84 402.067 156.173 401.267 156.84C400.494 157.507 400.014 158.453 399.827 159.68H408.387ZM417.636 161.8C417.636 159.507 418.062 157.493 418.916 155.76C419.796 154.027 420.982 152.693 422.476 151.76C423.969 150.827 425.636 150.36 427.476 150.36C428.942 150.36 430.276 150.667 431.476 151.28C432.702 151.893 433.662 152.72 434.356 153.76V143.4H441.196V173H434.356V169.8C433.716 170.867 432.796 171.72 431.596 172.36C430.422 173 429.049 173.32 427.476 173.32C425.636 173.32 423.969 172.853 422.476 171.92C420.982 170.96 419.796 169.613 418.916 167.88C418.062 166.12 417.636 164.093 417.636 161.8ZM434.356 161.84C434.356 160.133 433.876 158.787 432.916 157.8C431.982 156.813 430.836 156.32 429.476 156.32C428.116 156.32 426.956 156.813 425.996 157.8C425.062 158.76 424.596 160.093 424.596 161.8C424.596 163.507 425.062 164.867 425.996 165.88C426.956 166.867 428.116 167.36 429.476 167.36C430.836 167.36 431.982 166.867 432.916 165.88C433.876 164.893 434.356 163.547 434.356 161.84ZM455.144 143.92L454.344 163.08H448.544L447.744 143.92H455.144ZM451.544 173.32C450.344 173.32 449.357 172.973 448.584 172.28C447.837 171.56 447.464 170.68 447.464 169.64C447.464 168.573 447.837 167.68 448.584 166.96C449.357 166.24 450.344 165.88 451.544 165.88C452.717 165.88 453.677 166.24 454.424 166.96C455.197 167.68 455.584 168.573 455.584 169.64C455.584 170.68 455.197 171.56 454.424 172.28C453.677 172.973 452.717 173.32 451.544 173.32Z" fill="#333333"/>
<defs>
<filter id="filter0_d" x="10" y="12" width="592" height="350" filterUnits="userSpaceOnUse" color-interpolation-filters="sRGB">
<feFlood flood-opacity="0" result="BackgroundImageFix"/>
<feColorMatrix in="SourceAlpha" type="matrix" values="0 0 0 0 0 0 0 0 0 0 0 0 0 0 0 0 0 0 127 0"/>
<feOffset dy="6"/>
<feGaussianBlur stdDeviation="25"/>
<feColorMatrix type="matrix" values="0 0 0 0 0 0 0 0 0 0 0 0 0 0 0 0 0 0 0.15 0"/>
<feBlend mode="normal" in2="BackgroundImageFix" result="effect1_dropShadow"/>
<feBlend mode="normal" in="SourceGraphic" in2="effect1_dropShadow" result="shape"/>
</filter>
<filter id="filter1_d" x="248" y="0" width="116" height="116" filterUnits="userSpaceOnUse" color-interpolation-filters="sRGB">
<feFlood flood-opacity="0" result="BackgroundImageFix"/>
<feColorMatrix in="SourceAlpha" type="matrix" values="0 0 0 0 0 0 0 0 0 0 0 0 0 0 0 0 0 0 127 0"/>
<feOffset dy="2"/>
<feGaussianBlur stdDeviation="4"/>
<feColorMatrix type="matrix" values="0 0 0 0 0 0 0 0 0 0 0 0 0 0 0 0 0 0 0.2 0"/>
<feBlend mode="normal" in2="BackgroundImageFix" result="effect1_dropShadow"/>
<feBlend mode="normal" in="SourceGraphic" in2="effect1_dropShadow" result="shape"/>
</filter>
</defs>
</svg>
