<svg width="311" height="140" viewBox="0 0 311 140" fill="none" xmlns="http://www.w3.org/2000/svg">
<path d="M4.725 19.925V25.025H10.725V27.35H4.725V32.675H11.475V35H1.875V17.6H11.475V19.925H4.725ZM20.8854 28.025L25.3354 35H22.1104L19.1354 30.325L16.3354 35H13.3604L17.8104 28.225L13.3604 21.225H16.5854L19.5604 25.9L22.3604 21.225H25.3354L20.8854 28.025ZM30.7859 23.55V31.175C30.7859 31.6917 30.9026 32.0667 31.1359 32.3C31.3859 32.5167 31.8026 32.625 32.3859 32.625H34.1359V35H31.8859C30.6026 35 29.6193 34.7 28.9359 34.1C28.2526 33.5 27.9109 32.525 27.9109 31.175V23.55H26.2859V21.225H27.9109V17.8H30.7859V21.225H34.1359V23.55H30.7859ZM39.6127 23.225C40.0294 22.525 40.5794 21.9833 41.2627 21.6C41.9627 21.2 42.7877 21 43.7377 21V23.95H43.0127C41.896 23.95 41.046 24.2333 40.4627 24.8C39.896 25.3667 39.6127 26.35 39.6127 27.75V35H36.7627V21.225H39.6127V23.225ZM45.4074 28.05C45.4074 26.6667 45.6908 25.4417 46.2574 24.375C46.8408 23.3083 47.6241 22.4833 48.6074 21.9C49.6074 21.3 50.7074 21 51.9074 21C52.9908 21 53.9324 21.2167 54.7324 21.65C55.5491 22.0667 56.1991 22.5917 56.6824 23.225V21.225H59.5574V35H56.6824V32.95C56.1991 33.6 55.5408 34.1417 54.7074 34.575C53.8741 35.0083 52.9241 35.225 51.8574 35.225C50.6741 35.225 49.5908 34.925 48.6074 34.325C47.6241 33.7083 46.8408 32.8583 46.2574 31.775C45.6908 30.675 45.4074 29.4333 45.4074 28.05ZM56.6824 28.1C56.6824 27.15 56.4824 26.325 56.0824 25.625C55.6991 24.925 55.1908 24.3917 54.5574 24.025C53.9241 23.6583 53.2408 23.475 52.5074 23.475C51.7741 23.475 51.0908 23.6583 50.4574 24.025C49.8241 24.375 49.3074 24.9 48.9074 25.6C48.5241 26.2833 48.3324 27.1 48.3324 28.05C48.3324 29 48.5241 29.8333 48.9074 30.55C49.3074 31.2667 49.8241 31.8167 50.4574 32.2C51.1074 32.5667 51.7908 32.75 52.5074 32.75C53.2408 32.75 53.9241 32.5667 54.5574 32.2C55.1908 31.8333 55.6991 31.3 56.0824 30.6C56.4824 29.8833 56.6824 29.05 56.6824 28.1ZM62.3508 28.1C62.3508 26.6833 62.6341 25.4417 63.2008 24.375C63.7841 23.2917 64.5841 22.4583 65.6008 21.875C66.6174 21.2917 67.7841 21 69.1008 21C70.7674 21 72.1424 21.4 73.2258 22.2C74.3258 22.9833 75.0674 24.1083 75.4508 25.575H72.3758C72.1258 24.8917 71.7258 24.3583 71.1758 23.975C70.6258 23.5917 69.9341 23.4 69.1008 23.4C67.9341 23.4 67.0008 23.8167 66.3008 24.65C65.6174 25.4667 65.2758 26.6167 65.2758 28.1C65.2758 29.5833 65.6174 30.7417 66.3008 31.575C67.0008 32.4083 67.9341 32.825 69.1008 32.825C70.7508 32.825 71.8424 32.1 72.3758 30.65H75.4508C75.0508 32.05 74.3008 33.1667 73.2008 34C72.1008 34.8167 70.7341 35.225 69.1008 35.225C67.7841 35.225 66.6174 34.9333 65.6008 34.35C64.5841 33.75 63.7841 32.9167 63.2008 31.85C62.6341 30.7667 62.3508 29.5167 62.3508 28.1ZM81.616 23.55V31.175C81.616 31.6917 81.7327 32.0667 81.966 32.3C82.216 32.5167 82.6327 32.625 83.216 32.625H84.966V35H82.716C81.4327 35 80.4493 34.7 79.766 34.1C79.0827 33.5 78.741 32.525 78.741 31.175V23.55H77.116V21.225H78.741V17.8H81.616V21.225H84.966V23.55H81.616ZM89.0428 19.4C88.5261 19.4 88.0928 19.225 87.7428 18.875C87.3928 18.525 87.2178 18.0917 87.2178 17.575C87.2178 17.0583 87.3928 16.625 87.7428 16.275C88.0928 15.925 88.5261 15.75 89.0428 15.75C89.5428 15.75 89.9678 15.925 90.3178 16.275C90.6678 16.625 90.8428 17.0583 90.8428 17.575C90.8428 18.0917 90.6678 18.525 90.3178 18.875C89.9678 19.225 89.5428 19.4 89.0428 19.4ZM90.4428 21.225V35H87.5928V21.225H90.4428ZM101.135 21C102.218 21 103.185 21.225 104.035 21.675C104.901 22.125 105.576 22.7917 106.06 23.675C106.543 24.5583 106.785 25.625 106.785 26.875V35H103.96V27.3C103.96 26.0667 103.651 25.125 103.035 24.475C102.418 23.8083 101.576 23.475 100.51 23.475C99.4429 23.475 98.5929 23.8083 97.9596 24.475C97.3429 25.125 97.0346 26.0667 97.0346 27.3V35H94.1846V21.225H97.0346V22.8C97.5012 22.2333 98.0929 21.7917 98.8096 21.475C99.5429 21.1583 100.318 21 101.135 21ZM115.97 21C117.037 21 117.978 21.2167 118.795 21.65C119.628 22.0667 120.278 22.5917 120.745 23.225V21.225H123.62V35.225C123.62 36.4917 123.353 37.6167 122.82 38.6C122.287 39.6 121.512 40.3833 120.495 40.95C119.495 41.5167 118.295 41.8 116.895 41.8C115.028 41.8 113.478 41.3583 112.245 40.475C111.012 39.6083 110.312 38.425 110.145 36.925H112.97C113.187 37.6417 113.645 38.2167 114.345 38.65C115.062 39.1 115.912 39.325 116.895 39.325C118.045 39.325 118.97 38.975 119.67 38.275C120.387 37.575 120.745 36.5583 120.745 35.225V32.925C120.262 33.575 119.603 34.125 118.77 34.575C117.953 35.0083 117.02 35.225 115.97 35.225C114.77 35.225 113.67 34.925 112.67 34.325C111.687 33.7083 110.903 32.8583 110.32 31.775C109.753 30.675 109.47 29.4333 109.47 28.05C109.47 26.6667 109.753 25.4417 110.32 24.375C110.903 23.3083 111.687 22.4833 112.67 21.9C113.67 21.3 114.77 21 115.97 21ZM120.745 28.1C120.745 27.15 120.545 26.325 120.145 25.625C119.762 24.925 119.253 24.3917 118.62 24.025C117.987 23.6583 117.303 23.475 116.57 23.475C115.837 23.475 115.153 23.6583 114.52 24.025C113.887 24.375 113.37 24.9 112.97 25.6C112.587 26.2833 112.395 27.1 112.395 28.05C112.395 29 112.587 29.8333 112.97 30.55C113.37 31.2667 113.887 31.8167 114.52 32.2C115.17 32.5667 115.853 32.75 116.57 32.75C117.303 32.75 117.987 32.5667 118.62 32.2C119.253 31.8333 119.762 31.3 120.145 30.6C120.545 29.8833 120.745 29.05 120.745 28.1ZM135.307 19.4C134.791 19.4 134.357 19.225 134.007 18.875C133.657 18.525 133.482 18.0917 133.482 17.575C133.482 17.0583 133.657 16.625 134.007 16.275C134.357 15.925 134.791 15.75 135.307 15.75C135.807 15.75 136.232 15.925 136.582 16.275C136.932 16.625 137.107 17.0583 137.107 17.575C137.107 18.0917 136.932 18.525 136.582 18.875C136.232 19.225 135.807 19.4 135.307 19.4ZM136.707 21.225V35H133.857V21.225H136.707ZM147.399 21C148.483 21 149.449 21.225 150.299 21.675C151.166 22.125 151.841 22.7917 152.324 23.675C152.808 24.5583 153.049 25.625 153.049 26.875V35H150.224V27.3C150.224 26.0667 149.916 25.125 149.299 24.475C148.683 23.8083 147.841 23.475 146.774 23.475C145.708 23.475 144.858 23.8083 144.224 24.475C143.608 25.125 143.299 26.0667 143.299 27.3V35H140.449V21.225H143.299V22.8C143.766 22.2333 144.358 21.7917 145.074 21.475C145.808 21.1583 146.583 21 147.399 21ZM162.46 23.55H159.91V35H157.035V23.55H155.41V21.225H157.035V20.25C157.035 18.6667 157.451 17.5167 158.285 16.8C159.135 16.0667 160.46 15.7 162.26 15.7V18.075C161.393 18.075 160.785 18.2417 160.435 18.575C160.085 18.8917 159.91 19.45 159.91 20.25V21.225H162.46V23.55ZM170.96 35.225C169.66 35.225 168.485 34.9333 167.435 34.35C166.385 33.75 165.56 32.9167 164.96 31.85C164.36 30.7667 164.06 29.5167 164.06 28.1C164.06 26.7 164.369 25.4583 164.985 24.375C165.602 23.2917 166.444 22.4583 167.51 21.875C168.577 21.2917 169.769 21 171.085 21C172.402 21 173.594 21.2917 174.66 21.875C175.727 22.4583 176.569 23.2917 177.185 24.375C177.802 25.4583 178.11 26.7 178.11 28.1C178.11 29.5 177.794 30.7417 177.16 31.825C176.527 32.9083 175.66 33.75 174.56 34.35C173.477 34.9333 172.277 35.225 170.96 35.225ZM170.96 32.75C171.694 32.75 172.377 32.575 173.01 32.225C173.66 31.875 174.185 31.35 174.585 30.65C174.985 29.95 175.185 29.1 175.185 28.1C175.185 27.1 174.994 26.2583 174.61 25.575C174.227 24.875 173.719 24.35 173.085 24C172.452 23.65 171.769 23.475 171.035 23.475C170.302 23.475 169.619 23.65 168.985 24C168.369 24.35 167.877 24.875 167.51 25.575C167.144 26.2583 166.96 27.1 166.96 28.1C166.96 29.5833 167.335 30.7333 168.085 31.55C168.852 32.35 169.81 32.75 170.96 32.75ZM183.778 23.225C184.194 22.525 184.744 21.9833 185.428 21.6C186.128 21.2 186.953 21 187.903 21V23.95H187.178C186.061 23.95 185.211 24.2333 184.628 24.8C184.061 25.3667 183.778 26.35 183.778 27.75V35H180.928V21.225H183.778V23.225ZM207.197 21C208.281 21 209.247 21.225 210.097 21.675C210.964 22.125 211.639 22.7917 212.122 23.675C212.622 24.5583 212.872 25.625 212.872 26.875V35H210.047V27.3C210.047 26.0667 209.739 25.125 209.122 24.475C208.506 23.8083 207.664 23.475 206.597 23.475C205.531 23.475 204.681 23.8083 204.047 24.475C203.431 25.125 203.122 26.0667 203.122 27.3V35H200.297V27.3C200.297 26.0667 199.989 25.125 199.372 24.475C198.756 23.8083 197.914 23.475 196.847 23.475C195.781 23.475 194.931 23.8083 194.297 24.475C193.681 25.125 193.372 26.0667 193.372 27.3V35H190.522V21.225H193.372V22.8C193.839 22.2333 194.431 21.7917 195.147 21.475C195.864 21.1583 196.631 21 197.447 21C198.547 21 199.531 21.2333 200.397 21.7C201.264 22.1667 201.931 22.8417 202.397 23.725C202.814 22.8917 203.464 22.2333 204.347 21.75C205.231 21.25 206.181 21 207.197 21ZM215.549 28.05C215.549 26.6667 215.832 25.4417 216.399 24.375C216.982 23.3083 217.766 22.4833 218.749 21.9C219.749 21.3 220.849 21 222.049 21C223.132 21 224.074 21.2167 224.874 21.65C225.691 22.0667 226.341 22.5917 226.824 23.225V21.225H229.699V35H226.824V32.95C226.341 33.6 225.682 34.1417 224.849 34.575C224.016 35.0083 223.066 35.225 221.999 35.225C220.816 35.225 219.732 34.925 218.749 34.325C217.766 33.7083 216.982 32.8583 216.399 31.775C215.832 30.675 215.549 29.4333 215.549 28.05ZM226.824 28.1C226.824 27.15 226.624 26.325 226.224 25.625C225.841 24.925 225.332 24.3917 224.699 24.025C224.066 23.6583 223.382 23.475 222.649 23.475C221.916 23.475 221.232 23.6583 220.599 24.025C219.966 24.375 219.449 24.9 219.049 25.6C218.666 26.2833 218.474 27.1 218.474 28.05C218.474 29 218.666 29.8333 219.049 30.55C219.449 31.2667 219.966 31.8167 220.599 32.2C221.249 32.5667 221.932 32.75 222.649 32.75C223.382 32.75 224.066 32.5667 224.699 32.2C225.332 31.8333 225.841 31.3 226.224 30.6C226.624 29.8833 226.824 29.05 226.824 28.1ZM236.767 23.55V31.175C236.767 31.6917 236.884 32.0667 237.117 32.3C237.367 32.5167 237.784 32.625 238.367 32.625H240.117V35H237.867C236.584 35 235.601 34.7 234.917 34.1C234.234 33.5 233.892 32.525 233.892 31.175V23.55H232.267V21.225H233.892V17.8H236.767V21.225H240.117V23.55H236.767ZM244.194 19.4C243.677 19.4 243.244 19.225 242.894 18.875C242.544 18.525 242.369 18.0917 242.369 17.575C242.369 17.0583 242.544 16.625 242.894 16.275C243.244 15.925 243.677 15.75 244.194 15.75C244.694 15.75 245.119 15.925 245.469 16.275C245.819 16.625 245.994 17.0583 245.994 17.575C245.994 18.0917 245.819 18.525 245.469 18.875C245.119 19.225 244.694 19.4 244.194 19.4ZM245.594 21.225V35H242.744V21.225H245.594ZM255.311 35.225C254.011 35.225 252.836 34.9333 251.786 34.35C250.736 33.75 249.911 32.9167 249.311 31.85C248.711 30.7667 248.411 29.5167 248.411 28.1C248.411 26.7 248.719 25.4583 249.336 24.375C249.953 23.2917 250.794 22.4583 251.861 21.875C252.928 21.2917 254.119 21 255.436 21C256.753 21 257.944 21.2917 259.011 21.875C260.078 22.4583 260.919 23.2917 261.536 24.375C262.153 25.4583 262.461 26.7 262.461 28.1C262.461 29.5 262.144 30.7417 261.511 31.825C260.878 32.9083 260.011 33.75 258.911 34.35C257.828 34.9333 256.628 35.225 255.311 35.225ZM255.311 32.75C256.044 32.75 256.728 32.575 257.361 32.225C258.011 31.875 258.536 31.35 258.936 30.65C259.336 29.95 259.536 29.1 259.536 28.1C259.536 27.1 259.344 26.2583 258.961 25.575C258.578 24.875 258.069 24.35 257.436 24C256.803 23.65 256.119 23.475 255.386 23.475C254.653 23.475 253.969 23.65 253.336 24C252.719 24.35 252.228 24.875 251.861 25.575C251.494 26.2583 251.311 27.1 251.311 28.1C251.311 29.5833 251.686 30.7333 252.436 31.55C253.203 32.35 254.161 32.75 255.311 32.75ZM272.228 21C273.312 21 274.278 21.225 275.128 21.675C275.995 22.125 276.67 22.7917 277.153 23.675C277.637 24.5583 277.878 25.625 277.878 26.875V35H275.053V27.3C275.053 26.0667 274.745 25.125 274.128 24.475C273.512 23.8083 272.67 23.475 271.603 23.475C270.537 23.475 269.687 23.8083 269.053 24.475C268.437 25.125 268.128 26.0667 268.128 27.3V35H265.278V21.225H268.128V22.8C268.595 22.2333 269.187 21.7917 269.903 21.475C270.637 21.1583 271.412 21 272.228 21ZM282.664 35.175C282.147 35.175 281.714 35 281.364 34.65C281.014 34.3 280.839 33.8667 280.839 33.35C280.839 32.8333 281.014 32.4 281.364 32.05C281.714 31.7 282.147 31.525 282.664 31.525C283.164 31.525 283.589 31.7 283.939 32.05C284.289 32.4 284.464 32.8333 284.464 33.35C284.464 33.8667 284.289 34.3 283.939 34.65C283.589 35 283.164 35.175 282.664 35.175ZM288.694 35.175C288.177 35.175 287.744 35 287.394 34.65C287.044 34.3 286.869 33.8667 286.869 33.35C286.869 32.8333 287.044 32.4 287.394 32.05C287.744 31.7 288.177 31.525 288.694 31.525C289.194 31.525 289.619 31.7 289.969 32.05C290.319 32.4 290.494 32.8333 290.494 33.35C290.494 33.8667 290.319 34.3 289.969 34.65C289.619 35 289.194 35.175 288.694 35.175ZM294.724 35.175C294.208 35.175 293.774 35 293.424 34.65C293.074 34.3 292.899 33.8667 292.899 33.35C292.899 32.8333 293.074 32.4 293.424 32.05C293.774 31.7 294.208 31.525 294.724 31.525C295.224 31.525 295.649 31.7 295.999 32.05C296.349 32.4 296.524 32.8333 296.524 33.35C296.524 33.8667 296.349 34.3 295.999 34.65C295.649 35 295.224 35.175 294.724 35.175Z" fill="#333333"/>
<path d="M155.5 138.5C178.696 138.5 197.5 119.696 197.5 96.5C197.5 73.304 178.696 54.5 155.5 54.5C132.304 54.5 113.5 73.304 113.5 96.5C113.5 119.696 132.304 138.5 155.5 138.5Z" fill="#F9B56F" fill-opacity="0.05" stroke="#B3BEC4" stroke-width="3"/>
<path fill-rule="evenodd" clip-rule="evenodd" d="M147.069 73.5C148.119 73.5 148.972 74.336 148.972 75.368C148.972 76.3977 148.122 77.2336 147.069 77.2336L142.997 77.2361C139.617 77.241 136.867 79.9401 136.867 83.257V87.905C136.867 88.9346 136.012 89.7731 134.962 89.7731C133.912 89.7731 133.059 88.9346 133.059 87.905V83.257C133.059 77.8833 137.517 73.5074 142.994 73.5025L147.067 73.5H147.069ZM165.001 73.5008H168.984C174.476 73.5008 178.941 77.8791 178.941 83.2651V87.9058C178.941 88.9354 178.091 89.7738 177.039 89.7738C175.989 89.7738 175.136 88.9354 175.136 87.9058V83.2651C175.136 79.9384 172.376 77.2319 168.984 77.2319H165.001C163.951 77.2319 163.099 76.3984 163.099 75.3688C163.099 74.3367 163.951 73.5008 165.001 73.5008ZM162.906 82.8567H149.096C145.936 82.8885 143.396 85.4209 143.424 88.5221V91.6355C143.431 91.9983 143.729 92.295 144.099 92.3072H167.899C168.271 92.2974 168.569 92.0008 168.581 91.6355V88.5221C168.584 87.0242 167.994 85.5852 166.929 84.5139C165.871 83.4524 164.419 82.8567 162.906 82.8567ZM130.405 96.1031H181.597C182.647 96.1031 183.5 96.9391 183.5 97.9712C183.5 99.0008 182.647 99.8343 181.597 99.8343H178.943V108.733C178.943 114.122 174.475 118.5 168.985 118.5H165.002C163.95 118.5 163.097 117.664 163.097 116.632C163.097 115.602 163.95 114.766 165.002 114.766H168.985C172.378 114.766 175.138 112.062 175.138 108.733V99.8343H168.58V102.313C168.605 105.414 166.068 107.949 162.905 107.978H149.095C145.935 107.949 143.398 105.414 143.422 102.313V99.8343H136.865V108.743C136.865 112.06 139.618 114.759 143 114.764L147.07 114.766C148.12 114.766 148.972 115.602 148.972 116.632C148.97 117.664 148.12 118.5 147.068 118.5L142.995 118.498C137.517 118.493 133.057 114.117 133.057 108.743V99.8343H130.405C129.355 99.8343 128.5 99.0008 128.5 97.9712C128.5 96.9391 129.355 96.1031 130.405 96.1031Z" fill="#B3BEC4"/>
</svg>
