<svg width="219" height="142" viewBox="0 0 219 142" fill="none" xmlns="http://www.w3.org/2000/svg">
<path d="M4.7 17.625V28.7C4.7 30.0167 5.04167 31.0083 5.725 31.675C6.425 32.3417 7.39167 32.675 8.625 32.675C9.875 32.675 10.8417 32.3417 11.525 31.675C12.225 31.0083 12.575 30.0167 12.575 28.7V17.625H15.425V28.65C15.425 30.0667 15.1167 31.2667 14.5 32.25C13.8833 33.2333 13.0583 33.9667 12.025 34.45C10.9917 34.9333 9.85 35.175 8.6 35.175C7.35 35.175 6.20833 34.9333 5.175 34.45C4.15833 33.9667 3.35 33.2333 2.75 32.25C2.15 31.2667 1.85 30.0667 1.85 28.65V17.625H4.7ZM21.9857 23.25C22.4691 22.6167 23.1274 22.0833 23.9607 21.65C24.7941 21.2167 25.7357 21 26.7857 21C27.9857 21 29.0774 21.3 30.0607 21.9C31.0607 22.4833 31.8441 23.3083 32.4107 24.375C32.9774 25.4417 33.2607 26.6667 33.2607 28.05C33.2607 29.4333 32.9774 30.675 32.4107 31.775C31.8441 32.8583 31.0607 33.7083 30.0607 34.325C29.0774 34.925 27.9857 35.225 26.7857 35.225C25.7357 35.225 24.8024 35.0167 23.9857 34.6C23.1691 34.1667 22.5024 33.6333 21.9857 33V41.55H19.1357V21.225H21.9857V23.25ZM30.3607 28.05C30.3607 27.1 30.1607 26.2833 29.7607 25.6C29.3774 24.9 28.8607 24.375 28.2107 24.025C27.5774 23.6583 26.8941 23.475 26.1607 23.475C25.4441 23.475 24.7607 23.6583 24.1107 24.025C23.4774 24.3917 22.9607 24.925 22.5607 25.625C22.1774 26.325 21.9857 27.15 21.9857 28.1C21.9857 29.05 22.1774 29.8833 22.5607 30.6C22.9607 31.3 23.4774 31.8333 24.1107 32.2C24.7607 32.5667 25.4441 32.75 26.1607 32.75C26.8941 32.75 27.5774 32.5667 28.2107 32.2C28.8607 31.8167 29.3774 31.2667 29.7607 30.55C30.1607 29.8333 30.3607 29 30.3607 28.05ZM38.9291 16.5V35H36.0791V16.5H38.9291ZM48.6459 35.225C47.3459 35.225 46.1709 34.9333 45.1209 34.35C44.0709 33.75 43.2459 32.9167 42.6459 31.85C42.0459 30.7667 41.7459 29.5167 41.7459 28.1C41.7459 26.7 42.0542 25.4583 42.6709 24.375C43.2876 23.2917 44.1292 22.4583 45.1959 21.875C46.2626 21.2917 47.4542 21 48.7709 21C50.0876 21 51.2792 21.2917 52.3459 21.875C53.4126 22.4583 54.2542 23.2917 54.8709 24.375C55.4876 25.4583 55.7959 26.7 55.7959 28.1C55.7959 29.5 55.4792 30.7417 54.8459 31.825C54.2126 32.9083 53.3459 33.75 52.2459 34.35C51.1626 34.9333 49.9626 35.225 48.6459 35.225ZM48.6459 32.75C49.3792 32.75 50.0626 32.575 50.6959 32.225C51.3459 31.875 51.8709 31.35 52.2709 30.65C52.6709 29.95 52.8709 29.1 52.8709 28.1C52.8709 27.1 52.6792 26.2583 52.2959 25.575C51.9126 24.875 51.4042 24.35 50.7709 24C50.1376 23.65 49.4542 23.475 48.7209 23.475C47.9876 23.475 47.3042 23.65 46.6709 24C46.0542 24.35 45.5626 24.875 45.1959 25.575C44.8292 26.2583 44.6459 27.1 44.6459 28.1C44.6459 29.5833 45.0209 30.7333 45.7709 31.55C46.5376 32.35 47.4959 32.75 48.6459 32.75ZM57.6633 28.05C57.6633 26.6667 57.9466 25.4417 58.5133 24.375C59.0966 23.3083 59.8799 22.4833 60.8633 21.9C61.8633 21.3 62.9633 21 64.1633 21C65.2466 21 66.1883 21.2167 66.9883 21.65C67.8049 22.0667 68.4549 22.5917 68.9383 23.225V21.225H71.8133V35H68.9383V32.95C68.4549 33.6 67.7966 34.1417 66.9633 34.575C66.1299 35.0083 65.1799 35.225 64.1133 35.225C62.9299 35.225 61.8466 34.925 60.8633 34.325C59.8799 33.7083 59.0966 32.8583 58.5133 31.775C57.9466 30.675 57.6633 29.4333 57.6633 28.05ZM68.9383 28.1C68.9383 27.15 68.7383 26.325 68.3383 25.625C67.9549 24.925 67.4466 24.3917 66.8133 24.025C66.1799 23.6583 65.4966 23.475 64.7633 23.475C64.0299 23.475 63.3466 23.6583 62.7133 24.025C62.0799 24.375 61.5633 24.9 61.1633 25.6C60.7799 26.2833 60.5883 27.1 60.5883 28.05C60.5883 29 60.7799 29.8333 61.1633 30.55C61.5633 31.2667 62.0799 31.8167 62.7133 32.2C63.3633 32.5667 64.0466 32.75 64.7633 32.75C65.4966 32.75 66.1799 32.5667 66.8133 32.2C67.4466 31.8333 67.9549 31.3 68.3383 30.6C68.7383 29.8833 68.9383 29.05 68.9383 28.1ZM74.6066 28.05C74.6066 26.6667 74.89 25.4417 75.4566 24.375C76.04 23.3083 76.8233 22.4833 77.8066 21.9C78.8066 21.3 79.915 21 81.1316 21C82.0316 21 82.915 21.2 83.7816 21.6C84.665 21.9833 85.365 22.5 85.8816 23.15V16.5H88.7566V35H85.8816V32.925C85.415 33.5917 84.765 34.1417 83.9316 34.575C83.115 35.0083 82.1733 35.225 81.1066 35.225C79.9066 35.225 78.8066 34.925 77.8066 34.325C76.8233 33.7083 76.04 32.8583 75.4566 31.775C74.89 30.675 74.6066 29.4333 74.6066 28.05ZM85.8816 28.1C85.8816 27.15 85.6816 26.325 85.2816 25.625C84.8983 24.925 84.39 24.3917 83.7566 24.025C83.1233 23.6583 82.44 23.475 81.7066 23.475C80.9733 23.475 80.29 23.6583 79.6566 24.025C79.0233 24.375 78.5066 24.9 78.1066 25.6C77.7233 26.2833 77.5316 27.1 77.5316 28.05C77.5316 29 77.7233 29.8333 78.1066 30.55C78.5066 31.2667 79.0233 31.8167 79.6566 32.2C80.3066 32.5667 80.99 32.75 81.7066 32.75C82.44 32.75 83.1233 32.5667 83.7566 32.2C84.39 31.8333 84.8983 31.3 85.2816 30.6C85.6816 29.8833 85.8816 29.05 85.8816 28.1ZM93.95 19.4C93.4333 19.4 93 19.225 92.65 18.875C92.3 18.525 92.125 18.0917 92.125 17.575C92.125 17.0583 92.3 16.625 92.65 16.275C93 15.925 93.4333 15.75 93.95 15.75C94.45 15.75 94.875 15.925 95.225 16.275C95.575 16.625 95.75 17.0583 95.75 17.575C95.75 18.0917 95.575 18.525 95.225 18.875C94.875 19.225 94.45 19.4 93.95 19.4ZM95.35 21.225V35H92.5V21.225H95.35ZM106.042 21C107.125 21 108.092 21.225 108.942 21.675C109.808 22.125 110.483 22.7917 110.967 23.675C111.45 24.5583 111.692 25.625 111.692 26.875V35H108.867V27.3C108.867 26.0667 108.558 25.125 107.942 24.475C107.325 23.8083 106.483 23.475 105.417 23.475C104.35 23.475 103.5 23.8083 102.867 24.475C102.25 25.125 101.942 26.0667 101.942 27.3V35H99.0918V21.225H101.942V22.8C102.408 22.2333 103 21.7917 103.717 21.475C104.45 21.1583 105.225 21 106.042 21ZM120.877 21C121.944 21 122.885 21.2167 123.702 21.65C124.535 22.0667 125.185 22.5917 125.652 23.225V21.225H128.527V35.225C128.527 36.4917 128.26 37.6167 127.727 38.6C127.194 39.6 126.419 40.3833 125.402 40.95C124.402 41.5167 123.202 41.8 121.802 41.8C119.935 41.8 118.385 41.3583 117.152 40.475C115.919 39.6083 115.219 38.425 115.052 36.925H117.877C118.094 37.6417 118.552 38.2167 119.252 38.65C119.969 39.1 120.819 39.325 121.802 39.325C122.952 39.325 123.877 38.975 124.577 38.275C125.294 37.575 125.652 36.5583 125.652 35.225V32.925C125.169 33.575 124.51 34.125 123.677 34.575C122.86 35.0083 121.927 35.225 120.877 35.225C119.677 35.225 118.577 34.925 117.577 34.325C116.594 33.7083 115.81 32.8583 115.227 31.775C114.66 30.675 114.377 29.4333 114.377 28.05C114.377 26.6667 114.66 25.4417 115.227 24.375C115.81 23.3083 116.594 22.4833 117.577 21.9C118.577 21.3 119.677 21 120.877 21ZM125.652 28.1C125.652 27.15 125.452 26.325 125.052 25.625C124.669 24.925 124.16 24.3917 123.527 24.025C122.894 23.6583 122.21 23.475 121.477 23.475C120.744 23.475 120.06 23.6583 119.427 24.025C118.794 24.375 118.277 24.9 117.877 25.6C117.494 26.2833 117.302 27.1 117.302 28.05C117.302 29 117.494 29.8333 117.877 30.55C118.277 31.2667 118.794 31.8167 119.427 32.2C120.077 32.5667 120.76 32.75 121.477 32.75C122.21 32.75 122.894 32.5667 123.527 32.2C124.16 31.8333 124.669 31.3 125.052 30.6C125.452 29.8833 125.652 29.05 125.652 28.1ZM144.54 23.55H141.99V35H139.115V23.55H137.49V21.225H139.115V20.25C139.115 18.6667 139.531 17.5167 140.365 16.8C141.215 16.0667 142.54 15.7 144.34 15.7V18.075C143.473 18.075 142.865 18.2417 142.515 18.575C142.165 18.8917 141.99 19.45 141.99 20.25V21.225H144.54V23.55ZM148.515 19.4C147.999 19.4 147.565 19.225 147.215 18.875C146.865 18.525 146.69 18.0917 146.69 17.575C146.69 17.0583 146.865 16.625 147.215 16.275C147.565 15.925 147.999 15.75 148.515 15.75C149.015 15.75 149.44 15.925 149.79 16.275C150.14 16.625 150.315 17.0583 150.315 17.575C150.315 18.0917 150.14 18.525 149.79 18.875C149.44 19.225 149.015 19.4 148.515 19.4ZM149.915 21.225V35H147.065V21.225H149.915ZM156.507 16.5V35H153.657V16.5H156.507ZM172.874 27.775C172.874 28.2917 172.841 28.7583 172.774 29.175H162.249C162.332 30.275 162.741 31.1583 163.474 31.825C164.207 32.4917 165.107 32.825 166.174 32.825C167.707 32.825 168.791 32.1833 169.424 30.9H172.499C172.082 32.1667 171.324 33.2083 170.224 34.025C169.141 34.825 167.791 35.225 166.174 35.225C164.857 35.225 163.674 34.9333 162.624 34.35C161.591 33.75 160.774 32.9167 160.174 31.85C159.591 30.7667 159.299 29.5167 159.299 28.1C159.299 26.6833 159.582 25.4417 160.149 24.375C160.732 23.2917 161.541 22.4583 162.574 21.875C163.624 21.2917 164.824 21 166.174 21C167.474 21 168.632 21.2833 169.649 21.85C170.666 22.4167 171.457 23.2167 172.024 24.25C172.591 25.2667 172.874 26.4417 172.874 27.775ZM169.899 26.875C169.882 25.825 169.507 24.9833 168.774 24.35C168.041 23.7167 167.132 23.4 166.049 23.4C165.066 23.4 164.224 23.7167 163.524 24.35C162.824 24.9667 162.407 25.8083 162.274 26.875H169.899ZM180.679 35.225C179.595 35.225 178.62 35.0333 177.754 34.65C176.904 34.25 176.229 33.7167 175.729 33.05C175.229 32.3667 174.962 31.6083 174.929 30.775H177.879C177.929 31.3583 178.204 31.85 178.704 32.25C179.22 32.6333 179.862 32.825 180.629 32.825C181.429 32.825 182.045 32.675 182.479 32.375C182.929 32.0583 183.154 31.6583 183.154 31.175C183.154 30.6583 182.904 30.275 182.404 30.025C181.92 29.775 181.145 29.5 180.079 29.2C179.045 28.9167 178.204 28.6417 177.554 28.375C176.904 28.1083 176.337 27.7 175.854 27.15C175.387 26.6 175.154 25.875 175.154 24.975C175.154 24.2417 175.37 23.575 175.804 22.975C176.237 22.3583 176.854 21.875 177.654 21.525C178.47 21.175 179.404 21 180.454 21C182.02 21 183.279 21.4 184.229 22.2C185.195 22.9833 185.712 24.0583 185.779 25.425H182.929C182.879 24.8083 182.629 24.3167 182.179 23.95C181.729 23.5833 181.12 23.4 180.354 23.4C179.604 23.4 179.029 23.5417 178.629 23.825C178.229 24.1083 178.029 24.4833 178.029 24.95C178.029 25.3167 178.162 25.625 178.429 25.875C178.695 26.125 179.02 26.325 179.404 26.475C179.787 26.6083 180.354 26.7833 181.104 27C182.104 27.2667 182.92 27.5417 183.554 27.825C184.204 28.0917 184.762 28.4917 185.229 29.025C185.695 29.5583 185.937 30.2667 185.954 31.15C185.954 31.9333 185.737 32.6333 185.304 33.25C184.87 33.8667 184.254 34.35 183.454 34.7C182.67 35.05 181.745 35.225 180.679 35.225ZM190.183 35.175C189.667 35.175 189.233 35 188.883 34.65C188.533 34.3 188.358 33.8667 188.358 33.35C188.358 32.8333 188.533 32.4 188.883 32.05C189.233 31.7 189.667 31.525 190.183 31.525C190.683 31.525 191.108 31.7 191.458 32.05C191.808 32.4 191.983 32.8333 191.983 33.35C191.983 33.8667 191.808 34.3 191.458 34.65C191.108 35 190.683 35.175 190.183 35.175ZM196.213 35.175C195.697 35.175 195.263 35 194.913 34.65C194.563 34.3 194.388 33.8667 194.388 33.35C194.388 32.8333 194.563 32.4 194.913 32.05C195.263 31.7 195.697 31.525 196.213 31.525C196.713 31.525 197.138 31.7 197.488 32.05C197.838 32.4 198.013 32.8333 198.013 33.35C198.013 33.8667 197.838 34.3 197.488 34.65C197.138 35 196.713 35.175 196.213 35.175ZM202.244 35.175C201.727 35.175 201.294 35 200.944 34.65C200.594 34.3 200.419 33.8667 200.419 33.35C200.419 32.8333 200.594 32.4 200.944 32.05C201.294 31.7 201.727 31.525 202.244 31.525C202.744 31.525 203.169 31.7 203.519 32.05C203.869 32.4 204.044 32.8333 204.044 33.35C204.044 33.8667 203.869 34.3 203.519 34.65C203.169 35 202.744 35.175 202.244 35.175Z" fill="#333333"/>
<path d="M109.5 140.5C132.696 140.5 151.5 121.696 151.5 98.5C151.5 75.304 132.696 56.5 109.5 56.5C86.304 56.5 67.5 75.304 67.5 98.5C67.5 121.696 86.304 140.5 109.5 140.5Z" fill="#F9B56F" fill-opacity="0.05" stroke="#F9B56F" stroke-width="3"/>
<path fill-rule="evenodd" clip-rule="evenodd" d="M114.864 100.225C115.582 100.95 116.745 100.95 117.463 100.225C118.205 99.5 118.205 98.325 117.488 97.6L110.384 90.4C110.21 90.225 110.012 90.1 109.789 90C109.567 89.9 109.344 89.85 109.096 89.85C108.849 89.85 108.601 89.9 108.379 90C108.156 90.1 107.958 90.225 107.785 90.4L100.705 97.6C99.9875 98.325 99.9875 99.5 100.705 100.225C101.423 100.95 102.587 100.95 103.304 100.225L107.24 96.225V108.3C107.24 109.325 108.057 110.15 109.096 110.15C110.111 110.15 110.928 109.325 110.928 108.3V96.225L114.864 100.225ZM128.32 90.564C128.902 90.5573 129.536 90.55 130.111 90.55C130.73 90.55 131.25 91.05 131.25 91.675V111.775C131.25 117.975 126.25 123 120.111 123H100.433C93.9727 123 88.75 117.725 88.75 111.225V84.275C88.75 78.075 93.7252 73 99.9133 73H113.131C113.75 73 114.27 73.525 114.27 74.15V82.2C114.27 86.775 117.983 90.525 122.537 90.55C123.578 90.55 124.503 90.5579 125.314 90.5648C125.95 90.5702 126.517 90.575 127.017 90.575C127.37 90.575 127.826 90.5697 128.32 90.564ZM129.012 86.915C126.977 86.9225 124.581 86.915 122.856 86.8975C120.118 86.8975 117.863 84.62 117.863 81.855V75.265C117.863 74.1875 119.155 73.6525 119.895 74.43C121.801 76.4297 124.719 79.4941 127.185 82.0844C128.184 83.1341 129.109 84.1059 129.863 84.8975C130.583 85.655 130.054 86.9125 129.012 86.915Z" fill="#F9B56F"/>
</svg>
