<svg width="274" height="140" viewBox="0 0 274 140" fill="none" xmlns="http://www.w3.org/2000/svg">
<path d="M12.1 17.625V19.95H4.725V25.075H10.475V27.4H4.725V35H1.875V17.625H12.1ZM16.1912 19.4C15.6745 19.4 15.2412 19.225 14.8912 18.875C14.5412 18.525 14.3662 18.0917 14.3662 17.575C14.3662 17.0583 14.5412 16.625 14.8912 16.275C15.2412 15.925 15.6745 15.75 16.1912 15.75C16.6912 15.75 17.1162 15.925 17.4662 16.275C17.8162 16.625 17.9912 17.0583 17.9912 17.575C17.9912 18.0917 17.8162 18.525 17.4662 18.875C17.1162 19.225 16.6912 19.4 16.1912 19.4ZM17.5912 21.225V35H14.7412V21.225H17.5912ZM28.283 21C29.3663 21 30.333 21.225 31.183 21.675C32.0497 22.125 32.7247 22.7917 33.208 23.675C33.6913 24.5583 33.933 25.625 33.933 26.875V35H31.108V27.3C31.108 26.0667 30.7997 25.125 30.183 24.475C29.5663 23.8083 28.7247 23.475 27.658 23.475C26.5913 23.475 25.7413 23.8083 25.108 24.475C24.4913 25.125 24.183 26.0667 24.183 27.3V35H21.333V21.225H24.183V22.8C24.6497 22.2333 25.2413 21.7917 25.958 21.475C26.6913 21.1583 27.4663 21 28.283 21ZM36.6184 28.05C36.6184 26.6667 36.9017 25.4417 37.4684 24.375C38.0517 23.3083 38.835 22.4833 39.8184 21.9C40.8184 21.3 41.9184 21 43.1184 21C44.2017 21 45.1434 21.2167 45.9434 21.65C46.76 22.0667 47.41 22.5917 47.8934 23.225V21.225H50.7684V35H47.8934V32.95C47.41 33.6 46.7517 34.1417 45.9184 34.575C45.085 35.0083 44.135 35.225 43.0684 35.225C41.885 35.225 40.8017 34.925 39.8184 34.325C38.835 33.7083 38.0517 32.8583 37.4684 31.775C36.9017 30.675 36.6184 29.4333 36.6184 28.05ZM47.8934 28.1C47.8934 27.15 47.6934 26.325 47.2934 25.625C46.91 24.925 46.4017 24.3917 45.7684 24.025C45.135 23.6583 44.4517 23.475 43.7184 23.475C42.985 23.475 42.3017 23.6583 41.6684 24.025C41.035 24.375 40.5184 24.9 40.1184 25.6C39.735 26.2833 39.5434 27.1 39.5434 28.05C39.5434 29 39.735 29.8333 40.1184 30.55C40.5184 31.2667 41.035 31.8167 41.6684 32.2C42.3184 32.5667 43.0017 32.75 43.7184 32.75C44.4517 32.75 45.135 32.5667 45.7684 32.2C46.4017 31.8333 46.91 31.3 47.2934 30.6C47.6934 29.8833 47.8934 29.05 47.8934 28.1ZM57.3617 16.5V35H54.5117V16.5H57.3617ZM62.5535 19.4C62.0368 19.4 61.6035 19.225 61.2535 18.875C60.9035 18.525 60.7285 18.0917 60.7285 17.575C60.7285 17.0583 60.9035 16.625 61.2535 16.275C61.6035 15.925 62.0368 15.75 62.5535 15.75C63.0535 15.75 63.4785 15.925 63.8285 16.275C64.1785 16.625 64.3535 17.0583 64.3535 17.575C64.3535 18.0917 64.1785 18.525 63.8285 18.875C63.4785 19.225 63.0535 19.4 62.5535 19.4ZM63.9535 21.225V35H61.1035V21.225H63.9535ZM70.2203 32.675H76.4703V35H66.9203V32.675L73.1953 23.55H66.9203V21.225H76.4703V23.55L70.2203 32.675ZM80.9129 19.4C80.3962 19.4 79.9629 19.225 79.6129 18.875C79.2629 18.525 79.0879 18.0917 79.0879 17.575C79.0879 17.0583 79.2629 16.625 79.6129 16.275C79.9629 15.925 80.3962 15.75 80.9129 15.75C81.4129 15.75 81.8379 15.925 82.1879 16.275C82.5379 16.625 82.7129 17.0583 82.7129 17.575C82.7129 18.0917 82.5379 18.525 82.1879 18.875C81.8379 19.225 81.4129 19.4 80.9129 19.4ZM82.3129 21.225V35H79.4629V21.225H82.3129ZM93.0047 21C94.088 21 95.0547 21.225 95.9047 21.675C96.7714 22.125 97.4464 22.7917 97.9297 23.675C98.413 24.5583 98.6547 25.625 98.6547 26.875V35H95.8297V27.3C95.8297 26.0667 95.5214 25.125 94.9047 24.475C94.288 23.8083 93.4464 23.475 92.3797 23.475C91.313 23.475 90.463 23.8083 89.8297 24.475C89.213 25.125 88.9047 26.0667 88.9047 27.3V35H86.0547V21.225H88.9047V22.8C89.3714 22.2333 89.963 21.7917 90.6797 21.475C91.413 21.1583 92.188 21 93.0047 21ZM107.84 21C108.907 21 109.848 21.2167 110.665 21.65C111.498 22.0667 112.148 22.5917 112.615 23.225V21.225H115.49V35.225C115.49 36.4917 115.223 37.6167 114.69 38.6C114.157 39.6 113.382 40.3833 112.365 40.95C111.365 41.5167 110.165 41.8 108.765 41.8C106.898 41.8 105.348 41.3583 104.115 40.475C102.882 39.6083 102.182 38.425 102.015 36.925H104.84C105.057 37.6417 105.515 38.2167 106.215 38.65C106.932 39.1 107.782 39.325 108.765 39.325C109.915 39.325 110.84 38.975 111.54 38.275C112.257 37.575 112.615 36.5583 112.615 35.225V32.925C112.132 33.575 111.473 34.125 110.64 34.575C109.823 35.0083 108.89 35.225 107.84 35.225C106.64 35.225 105.54 34.925 104.54 34.325C103.557 33.7083 102.773 32.8583 102.19 31.775C101.623 30.675 101.34 29.4333 101.34 28.05C101.34 26.6667 101.623 25.4417 102.19 24.375C102.773 23.3083 103.557 22.4833 104.54 21.9C105.54 21.3 106.64 21 107.84 21ZM112.615 28.1C112.615 27.15 112.415 26.325 112.015 25.625C111.632 24.925 111.123 24.3917 110.49 24.025C109.857 23.6583 109.173 23.475 108.44 23.475C107.707 23.475 107.023 23.6583 106.39 24.025C105.757 24.375 105.24 24.9 104.84 25.6C104.457 26.2833 104.265 27.1 104.265 28.05C104.265 29 104.457 29.8333 104.84 30.55C105.24 31.2667 105.757 31.8167 106.39 32.2C107.04 32.5667 107.723 32.75 108.44 32.75C109.173 32.75 109.857 32.5667 110.49 32.2C111.123 31.8333 111.632 31.3 112.015 30.6C112.415 29.8833 112.615 29.05 112.615 28.1ZM130.728 35.225C129.644 35.225 128.669 35.0333 127.803 34.65C126.953 34.25 126.278 33.7167 125.778 33.05C125.278 32.3667 125.011 31.6083 124.978 30.775H127.928C127.978 31.3583 128.253 31.85 128.753 32.25C129.269 32.6333 129.911 32.825 130.678 32.825C131.478 32.825 132.094 32.675 132.528 32.375C132.978 32.0583 133.203 31.6583 133.203 31.175C133.203 30.6583 132.953 30.275 132.453 30.025C131.969 29.775 131.194 29.5 130.128 29.2C129.094 28.9167 128.253 28.6417 127.603 28.375C126.953 28.1083 126.386 27.7 125.903 27.15C125.436 26.6 125.203 25.875 125.203 24.975C125.203 24.2417 125.419 23.575 125.853 22.975C126.286 22.3583 126.903 21.875 127.703 21.525C128.519 21.175 129.453 21 130.503 21C132.069 21 133.328 21.4 134.278 22.2C135.244 22.9833 135.761 24.0583 135.828 25.425H132.978C132.928 24.8083 132.678 24.3167 132.228 23.95C131.778 23.5833 131.169 23.4 130.403 23.4C129.653 23.4 129.078 23.5417 128.678 23.825C128.278 24.1083 128.078 24.4833 128.078 24.95C128.078 25.3167 128.211 25.625 128.478 25.875C128.744 26.125 129.069 26.325 129.453 26.475C129.836 26.6083 130.403 26.7833 131.153 27C132.153 27.2667 132.969 27.5417 133.603 27.825C134.253 28.0917 134.811 28.4917 135.278 29.025C135.744 29.5583 135.986 30.2667 136.003 31.15C136.003 31.9333 135.786 32.6333 135.353 33.25C134.919 33.8667 134.303 34.35 133.503 34.7C132.719 35.05 131.794 35.225 130.728 35.225ZM151.557 21.225V35H148.707V33.375C148.257 33.9417 147.665 34.3917 146.932 34.725C146.215 35.0417 145.449 35.2 144.632 35.2C143.549 35.2 142.574 34.975 141.707 34.525C140.857 34.075 140.182 33.4083 139.682 32.525C139.199 31.6417 138.957 30.575 138.957 29.325V21.225H141.782V28.9C141.782 30.1333 142.09 31.0833 142.707 31.75C143.324 32.4 144.165 32.725 145.232 32.725C146.299 32.725 147.14 32.4 147.757 31.75C148.39 31.0833 148.707 30.1333 148.707 28.9V21.225H151.557ZM171.992 21C173.076 21 174.042 21.225 174.892 21.675C175.759 22.125 176.434 22.7917 176.917 23.675C177.417 24.5583 177.667 25.625 177.667 26.875V35H174.842V27.3C174.842 26.0667 174.534 25.125 173.917 24.475C173.301 23.8083 172.459 23.475 171.392 23.475C170.326 23.475 169.476 23.8083 168.842 24.475C168.226 25.125 167.917 26.0667 167.917 27.3V35H165.092V27.3C165.092 26.0667 164.784 25.125 164.167 24.475C163.551 23.8083 162.709 23.475 161.642 23.475C160.576 23.475 159.726 23.8083 159.092 24.475C158.476 25.125 158.167 26.0667 158.167 27.3V35H155.317V21.225H158.167V22.8C158.634 22.2333 159.226 21.7917 159.942 21.475C160.659 21.1583 161.426 21 162.242 21C163.342 21 164.326 21.2333 165.192 21.7C166.059 22.1667 166.726 22.8417 167.192 23.725C167.609 22.8917 168.259 22.2333 169.142 21.75C170.026 21.25 170.976 21 171.992 21ZM197.969 21C199.052 21 200.019 21.225 200.869 21.675C201.736 22.125 202.411 22.7917 202.894 23.675C203.394 24.5583 203.644 25.625 203.644 26.875V35H200.819V27.3C200.819 26.0667 200.511 25.125 199.894 24.475C199.277 23.8083 198.436 23.475 197.369 23.475C196.302 23.475 195.452 23.8083 194.819 24.475C194.202 25.125 193.894 26.0667 193.894 27.3V35H191.069V27.3C191.069 26.0667 190.761 25.125 190.144 24.475C189.527 23.8083 188.686 23.475 187.619 23.475C186.552 23.475 185.702 23.8083 185.069 24.475C184.452 25.125 184.144 26.0667 184.144 27.3V35H181.294V21.225H184.144V22.8C184.611 22.2333 185.202 21.7917 185.919 21.475C186.636 21.1583 187.402 21 188.219 21C189.319 21 190.302 21.2333 191.169 21.7C192.036 22.1667 192.702 22.8417 193.169 23.725C193.586 22.8917 194.236 22.2333 195.119 21.75C196.002 21.25 196.952 21 197.969 21ZM206.321 28.05C206.321 26.6667 206.604 25.4417 207.171 24.375C207.754 23.3083 208.537 22.4833 209.521 21.9C210.521 21.3 211.621 21 212.821 21C213.904 21 214.846 21.2167 215.646 21.65C216.462 22.0667 217.112 22.5917 217.596 23.225V21.225H220.471V35H217.596V32.95C217.112 33.6 216.454 34.1417 215.621 34.575C214.787 35.0083 213.837 35.225 212.771 35.225C211.587 35.225 210.504 34.925 209.521 34.325C208.537 33.7083 207.754 32.8583 207.171 31.775C206.604 30.675 206.321 29.4333 206.321 28.05ZM217.596 28.1C217.596 27.15 217.396 26.325 216.996 25.625C216.612 24.925 216.104 24.3917 215.471 24.025C214.837 23.6583 214.154 23.475 213.421 23.475C212.687 23.475 212.004 23.6583 211.371 24.025C210.737 24.375 210.221 24.9 209.821 25.6C209.437 26.2833 209.246 27.1 209.246 28.05C209.246 29 209.437 29.8333 209.821 30.55C210.221 31.2667 210.737 31.8167 211.371 32.2C212.021 32.5667 212.704 32.75 213.421 32.75C214.154 32.75 214.837 32.5667 215.471 32.2C216.104 31.8333 216.612 31.3 216.996 30.6C217.396 29.8833 217.596 29.05 217.596 28.1ZM227.064 23.225C227.481 22.525 228.031 21.9833 228.714 21.6C229.414 21.2 230.239 21 231.189 21V23.95H230.464C229.347 23.95 228.497 24.2333 227.914 24.8C227.347 25.3667 227.064 26.35 227.064 27.75V35H224.214V21.225H227.064V23.225ZM246.209 21.225L237.759 41.475H234.809L237.609 34.775L232.184 21.225H235.359L239.234 31.725L243.259 21.225H246.209ZM249.509 35.175C248.993 35.175 248.559 35 248.209 34.65C247.859 34.3 247.684 33.8667 247.684 33.35C247.684 32.8333 247.859 32.4 248.209 32.05C248.559 31.7 248.993 31.525 249.509 31.525C250.009 31.525 250.434 31.7 250.784 32.05C251.134 32.4 251.309 32.8333 251.309 33.35C251.309 33.8667 251.134 34.3 250.784 34.65C250.434 35 250.009 35.175 249.509 35.175ZM255.54 35.175C255.023 35.175 254.59 35 254.24 34.65C253.89 34.3 253.715 33.8667 253.715 33.35C253.715 32.8333 253.89 32.4 254.24 32.05C254.59 31.7 255.023 31.525 255.54 31.525C256.04 31.525 256.465 31.7 256.815 32.05C257.165 32.4 257.34 32.8333 257.34 33.35C257.34 33.8667 257.165 34.3 256.815 34.65C256.465 35 256.04 35.175 255.54 35.175ZM261.57 35.175C261.053 35.175 260.62 35 260.27 34.65C259.92 34.3 259.745 33.8667 259.745 33.35C259.745 32.8333 259.92 32.4 260.27 32.05C260.62 31.7 261.053 31.525 261.57 31.525C262.07 31.525 262.495 31.7 262.845 32.05C263.195 32.4 263.37 32.8333 263.37 33.35C263.37 33.8667 263.195 34.3 262.845 34.65C262.495 35 262.07 35.175 261.57 35.175Z" fill="#333333"/>
<path d="M136.5 138.5C159.696 138.5 178.5 119.696 178.5 96.5C178.5 73.304 159.696 54.5 136.5 54.5C113.304 54.5 94.5 73.304 94.5 96.5C94.5 119.696 113.304 138.5 136.5 138.5Z" fill="#F9B56F" fill-opacity="0.05" stroke="#F9B56F" stroke-width="3"/>
<path fill-rule="evenodd" clip-rule="evenodd" d="M149.95 77.025C149.95 73.7 152.65 71 155.975 71C159.3 71 162 73.7 162 77.025C162 80.35 159.3 83.05 155.975 83.05C152.65 83.05 149.95 80.35 149.95 77.025ZM140.324 102.898L147.549 93.5757L147.449 93.6257C147.849 93.0757 147.924 92.3757 147.649 91.7507C147.377 91.1257 146.774 90.7007 146.127 90.6507C145.449 90.5757 144.777 90.8757 144.374 91.4257L138.327 99.2507L131.399 93.8007C130.974 93.4757 130.474 93.3482 129.974 93.4007C129.477 93.4757 129.027 93.7482 128.724 94.1482L121.327 103.776L121.174 104.001C120.749 104.798 120.949 105.823 121.699 106.376C122.049 106.601 122.424 106.751 122.849 106.751C123.427 106.776 123.974 106.473 124.324 106.001L130.599 97.9232L137.724 103.276L137.949 103.423C138.749 103.848 139.749 103.651 140.324 102.898ZM145.624 75.4507C145.524 76.0757 145.474 76.7007 145.474 77.3257C145.474 82.9507 150.024 87.4982 155.624 87.4982C156.249 87.4982 156.849 87.4257 157.474 87.3257V107.498C157.474 115.976 152.474 121.001 143.974 121.001H125.502C116.999 121.001 111.999 115.976 111.999 107.498V89.0007C111.999 80.5007 116.999 75.4507 125.502 75.4507H145.624Z" fill="#F9B56F"/>
</svg>
