<svg width="291" height="249" viewBox="0 0 291 249" fill="none" xmlns="http://www.w3.org/2000/svg">
<g clip-path="url(#clip0)">
<path d="M17.9604 54.1434C17.4751 54.144 17.0098 54.337 16.6666 54.6802C16.3235 55.0234 16.1304 55.4886 16.1299 55.974V245.252C16.1304 245.738 16.3234 246.203 16.6666 246.546C17.0098 246.889 17.475 247.083 17.9604 247.083H255.278C255.763 247.083 256.228 246.889 256.571 246.546C256.915 246.203 257.107 245.738 257.108 245.252V86.3571C257.107 85.8718 256.915 85.4065 256.571 85.0633C256.228 84.72 255.763 84.5269 255.278 84.5263H119.073C117.69 84.5275 116.357 84.0124 115.335 83.0818L84.7137 55.2594C83.9238 54.5405 82.894 54.1426 81.8259 54.1434H17.9604Z" fill="#3F3D56"/>
<path d="M127.563 29.6837C127.266 29.5099 126.913 29.4608 126.58 29.5472C126.248 29.6336 125.963 29.8484 125.788 30.1446L55.5092 149.738C55.3354 150.034 55.2863 150.387 55.3727 150.72C55.4591 151.053 55.674 151.338 55.9701 151.512L152.315 208.129C152.611 208.303 152.965 208.352 153.297 208.266C153.63 208.179 153.915 207.965 154.089 207.668L224.368 88.0755C224.542 87.7789 224.591 87.4256 224.505 87.0929C224.419 86.7603 224.204 86.4755 223.908 86.301L127.563 29.6837Z" fill="#E6E6E6"/>
<path d="M129.037 35.3621C128.741 35.1883 128.387 35.1392 128.055 35.2256C127.722 35.312 127.437 35.5268 127.263 35.8229L61.1874 148.263C61.0136 148.559 60.9646 148.913 61.051 149.245C61.1374 149.578 61.3522 149.863 61.6483 150.037L150.84 202.451C151.137 202.625 151.49 202.674 151.823 202.587C152.155 202.501 152.44 202.286 152.615 201.99L218.69 89.5503C218.864 89.2537 218.913 88.9004 218.826 88.5677C218.74 88.2351 218.525 87.9503 218.229 87.7758L129.037 35.3621Z" fill="white"/>
<path d="M112.185 90.9062L177.905 129.527C178.126 129.656 178.369 129.741 178.622 129.776C178.875 129.812 179.132 129.797 179.379 129.732C179.627 129.668 179.859 129.556 180.062 129.402C180.266 129.248 180.438 129.056 180.567 128.836C180.697 128.615 180.781 128.372 180.817 128.119C180.852 127.866 180.837 127.609 180.773 127.361C180.709 127.114 180.596 126.882 180.442 126.678C180.288 126.475 180.096 126.303 179.876 126.174L114.156 87.5531C113.935 87.4232 113.692 87.3381 113.439 87.3025C113.185 87.2669 112.928 87.2815 112.68 87.3456C112.433 87.4097 112.201 87.5219 111.996 87.6759C111.792 87.8298 111.621 88.0225 111.491 88.2429C111.362 88.4633 111.277 88.707 111.242 88.9602C111.206 89.2134 111.222 89.4711 111.286 89.7184C111.35 89.9658 111.463 90.198 111.617 90.4018C111.772 90.6056 111.965 90.777 112.185 90.9062Z" fill="#E6E6E6"/>
<path d="M129.979 59.3351L173.58 84.9572C174.194 85.3182 175.133 84.8602 175.677 83.9343C176.222 83.0084 176.165 81.9651 175.55 81.6041L131.95 55.982C131.335 55.621 130.396 56.079 129.852 57.0049C129.308 57.9309 129.365 58.9741 129.979 59.3351Z" fill="#E6E6E6"/>
<path d="M124.33 68.9472L167.931 94.5693C168.545 94.9303 169.484 94.4723 170.029 93.5464C170.573 92.6205 170.516 91.5772 169.902 91.2163L126.301 65.5941C125.686 65.2331 124.747 65.6911 124.203 66.6171C123.659 67.543 123.716 68.5862 124.33 68.9472Z" fill="#E6E6E6"/>
<path d="M105.814 101.748L171.535 140.368C171.979 140.629 172.509 140.703 173.008 140.573C173.507 140.443 173.934 140.121 174.195 139.676C174.456 139.232 174.53 138.702 174.401 138.203C174.271 137.704 173.949 137.277 173.505 137.015L107.785 98.3947C107.34 98.134 106.81 98.0604 106.311 98.1902C105.813 98.32 105.386 98.6425 105.125 99.0869C104.863 99.5313 104.789 100.061 104.919 100.56C105.048 101.059 105.37 101.486 105.814 101.748Z" fill="#E6E6E6"/>
<path d="M99.4428 112.589L165.163 151.21C165.608 151.471 166.138 151.544 166.636 151.414C167.135 151.285 167.562 150.962 167.823 150.518C168.084 150.073 168.158 149.544 168.029 149.045C167.9 148.546 167.578 148.118 167.133 147.857L101.413 109.236C101.193 109.107 100.95 109.022 100.697 108.987C100.444 108.952 100.186 108.966 99.9392 109.031C99.692 109.095 99.4599 109.207 99.2561 109.361C99.0523 109.515 98.8808 109.707 98.7514 109.928C98.6221 110.148 98.5373 110.391 98.502 110.644C98.4668 110.897 98.4817 111.154 98.5458 111.402C98.61 111.649 98.7223 111.881 98.8762 112.085C99.0301 112.288 99.2226 112.46 99.4428 112.589Z" fill="#E6E6E6"/>
<path d="M93.0722 123.431L158.792 162.052C159.237 162.312 159.767 162.385 160.265 162.255C160.764 162.125 161.19 161.803 161.452 161.359C161.713 160.915 161.787 160.385 161.658 159.886C161.528 159.387 161.207 158.96 160.763 158.698L95.0426 120.078C94.8224 119.948 94.5789 119.864 94.326 119.828C94.0731 119.793 93.8157 119.808 93.5686 119.872C93.3214 119.936 93.0893 120.049 92.8855 120.203C92.6817 120.356 92.5102 120.549 92.3808 120.769C92.2515 120.989 92.1667 121.233 92.1314 121.486C92.0962 121.739 92.111 121.996 92.1752 122.243C92.2394 122.49 92.3517 122.723 92.5056 122.926C92.6595 123.13 92.852 123.302 93.0722 123.431Z" fill="#E6E6E6"/>
<path d="M86.7011 134.273L152.421 172.893C152.641 173.023 152.885 173.107 153.138 173.143C153.391 173.178 153.648 173.163 153.895 173.099C154.143 173.035 154.375 172.922 154.578 172.768C154.782 172.615 154.954 172.422 155.083 172.202C155.212 171.982 155.297 171.738 155.332 171.485C155.368 171.232 155.353 170.975 155.289 170.728C155.224 170.481 155.112 170.249 154.958 170.045C154.804 169.841 154.612 169.669 154.392 169.54L88.6715 130.919C88.2269 130.658 87.6966 130.584 87.1975 130.714C86.6983 130.844 86.271 131.166 86.0097 131.611C85.7485 132.055 85.6745 132.586 85.8042 133.085C85.9338 133.584 86.2564 134.011 86.7011 134.273Z" fill="#E6E6E6"/>
<path d="M80.33 145.114L146.05 183.735C146.495 183.996 147.025 184.07 147.524 183.94C148.023 183.811 148.451 183.488 148.712 183.043C148.973 182.599 149.047 182.069 148.918 181.569C148.788 181.07 148.465 180.643 148.021 180.382L82.3004 141.761C82.0803 141.632 81.8368 141.547 81.5838 141.512C81.3309 141.476 81.0735 141.491 80.8264 141.555C80.5792 141.62 80.3471 141.732 80.1433 141.886C79.9395 142.04 79.7681 142.232 79.6387 142.452C79.5093 142.673 79.4245 142.916 79.3892 143.169C79.354 143.422 79.3689 143.679 79.4331 143.926C79.4973 144.174 79.6095 144.406 79.7634 144.609C79.9173 144.813 80.1098 144.985 80.33 145.114Z" fill="#E6E6E6"/>
<path d="M187.205 107.567C192.862 107.567 197.447 102.981 197.447 97.325C197.447 91.6688 192.862 87.0835 187.205 87.0835C181.549 87.0835 176.964 91.6688 176.964 97.325C176.964 102.981 181.549 107.567 187.205 107.567Z" fill="#E6E6E6"/>
<path d="M45.7961 64.1253C45.4598 64.0542 45.1091 64.1194 44.8208 64.3066C44.5325 64.4937 44.3303 64.7875 44.2584 65.1236L15.4006 200.803C15.3295 201.139 15.3947 201.49 15.5819 201.778C15.769 202.066 16.0629 202.269 16.399 202.341L125.703 225.589C126.039 225.66 126.39 225.595 126.678 225.407C126.967 225.22 127.169 224.926 127.241 224.59L156.098 88.911C156.17 88.5748 156.104 88.224 155.917 87.9357C155.73 87.6475 155.436 87.4452 155.1 87.3733L45.7961 64.1253Z" fill="#E6E6E6"/>
<path d="M48.9909 69.046C48.6547 68.9749 48.3039 69.0401 48.0157 69.2273C47.7274 69.4144 47.5251 69.7083 47.4532 70.0444L20.3215 197.608C20.2504 197.944 20.3156 198.295 20.5028 198.583C20.6899 198.872 20.9838 199.074 21.3199 199.146L122.509 220.668C122.845 220.739 123.196 220.674 123.484 220.487C123.772 220.299 123.974 220.006 124.046 219.67L151.178 92.1057C151.249 91.7695 151.184 91.4187 150.997 91.1304C150.81 90.8422 150.516 90.6399 150.18 90.568L48.9909 69.046Z" fill="white"/>
<path d="M125.127 142.927L50.5664 127.069C50.3162 127.016 50.0789 126.915 49.8681 126.77C49.6572 126.625 49.4769 126.441 49.3375 126.226C49.1981 126.012 49.1023 125.772 49.0556 125.521C49.009 125.27 49.0123 125.012 49.0655 124.762C49.1187 124.511 49.2207 124.274 49.3656 124.064C49.5105 123.853 49.6956 123.673 49.9101 123.534C50.1247 123.395 50.3645 123.3 50.616 123.254C50.8674 123.207 51.1255 123.211 51.3755 123.265L125.936 139.123C126.186 139.176 126.423 139.277 126.634 139.422C126.845 139.566 127.025 139.751 127.165 139.965C127.304 140.18 127.4 140.419 127.446 140.671C127.493 140.922 127.49 141.18 127.437 141.43C127.383 141.68 127.281 141.918 127.136 142.128C126.992 142.339 126.806 142.519 126.592 142.658C126.377 142.797 126.138 142.892 125.886 142.938C125.635 142.985 125.377 142.981 125.127 142.927Z" fill="#E6E6E6"/>
<path d="M133.305 107.622L83.8394 97.101C83.1425 96.9528 82.7586 95.981 82.9821 94.9305C83.2055 93.8801 83.9516 93.1487 84.6485 93.2969L134.114 103.818C134.811 103.966 135.195 104.938 134.971 105.988C134.748 107.039 134.002 107.77 133.305 107.622Z" fill="#E6E6E6"/>
<path d="M130.985 118.527L81.5196 108.006C80.8227 107.858 80.4388 106.886 80.6622 105.836C80.8857 104.785 81.6318 104.054 82.3287 104.202L131.794 114.723C132.491 114.871 132.875 115.843 132.651 116.893C132.428 117.944 131.682 118.675 130.985 118.527Z" fill="#E6E6E6"/>
<path d="M122.51 155.227L47.9502 139.369C47.4466 139.261 47.0063 138.957 46.7262 138.525C46.4461 138.093 46.349 137.567 46.4561 137.063C46.5633 136.559 46.866 136.118 47.2978 135.837C47.7296 135.556 48.2553 135.458 48.7593 135.565L123.319 151.423C123.569 151.476 123.806 151.578 124.017 151.723C124.227 151.867 124.407 152.052 124.546 152.266C124.685 152.48 124.781 152.72 124.827 152.971C124.874 153.222 124.87 153.48 124.817 153.73C124.764 153.979 124.662 154.216 124.517 154.427C124.373 154.637 124.188 154.817 123.974 154.956C123.76 155.095 123.52 155.191 123.269 155.237C123.018 155.284 122.76 155.28 122.51 155.227Z" fill="#E6E6E6"/>
<path d="M119.894 167.527L45.334 151.669C44.8304 151.561 44.3901 151.257 44.11 150.825C43.8299 150.392 43.7327 149.867 43.8399 149.363C43.9471 148.859 44.2498 148.418 44.6816 148.137C45.1134 147.856 45.6391 147.758 46.1431 147.865L120.703 163.723C120.953 163.776 121.19 163.878 121.4 164.022C121.611 164.167 121.791 164.352 121.93 164.566C122.069 164.78 122.164 165.02 122.211 165.271C122.257 165.522 122.254 165.78 122.201 166.029C122.148 166.279 122.046 166.516 121.901 166.726C121.757 166.937 121.572 167.117 121.358 167.256C121.143 167.395 120.904 167.49 120.653 167.537C120.402 167.583 120.144 167.58 119.894 167.527Z" fill="#E6E6E6"/>
<path d="M117.278 179.827L42.7182 163.969C42.4681 163.916 42.2308 163.814 42.0199 163.67C41.809 163.525 41.6287 163.34 41.4893 163.126C41.3499 162.912 41.2542 162.672 41.2075 162.421C41.1608 162.169 41.1642 161.911 41.2174 161.661C41.2705 161.411 41.3725 161.174 41.5174 160.963C41.6624 160.753 41.8474 160.573 42.0619 160.434C42.2765 160.295 42.5164 160.199 42.7678 160.153C43.0193 160.107 43.2774 160.111 43.5273 160.164L118.087 176.023C118.591 176.131 119.031 176.434 119.312 176.867C119.592 177.299 119.689 177.825 119.582 178.329C119.474 178.832 119.172 179.273 118.74 179.554C118.308 179.835 117.782 179.933 117.278 179.827Z" fill="#E6E6E6"/>
<path d="M114.662 192.127L40.102 176.268C39.8519 176.216 39.6146 176.114 39.4037 175.97C39.1928 175.825 39.0125 175.64 38.8731 175.426C38.7337 175.212 38.6379 174.972 38.5913 174.721C38.5446 174.469 38.548 174.211 38.6011 173.961C38.6543 173.711 38.7563 173.474 38.9012 173.263C39.0462 173.053 39.2312 172.873 39.4458 172.734C39.6603 172.595 39.9002 172.499 40.1516 172.453C40.4031 172.407 40.6612 172.411 40.9111 172.464L115.471 188.323C115.721 188.375 115.959 188.477 116.17 188.621C116.38 188.766 116.561 188.951 116.7 189.165C116.84 189.379 116.935 189.619 116.982 189.87C117.029 190.122 117.025 190.38 116.972 190.63C116.919 190.88 116.817 191.117 116.672 191.328C116.527 191.538 116.342 191.718 116.128 191.857C115.913 191.996 115.673 192.092 115.422 192.138C115.17 192.184 114.912 192.18 114.662 192.127Z" fill="#E6E6E6"/>
<path d="M112.046 204.427L37.4859 188.568C36.9822 188.46 36.542 188.157 36.2619 187.724C35.9817 187.292 35.8846 186.766 35.9918 186.262C36.0989 185.759 36.4017 185.318 36.8335 185.037C37.2653 184.756 37.7909 184.658 38.295 184.764L112.855 200.622C113.105 200.675 113.343 200.777 113.553 200.921C113.764 201.066 113.945 201.251 114.084 201.465C114.223 201.679 114.319 201.919 114.366 202.17C114.413 202.422 114.409 202.68 114.356 202.93C114.303 203.18 114.201 203.417 114.056 203.628C113.911 203.838 113.726 204.018 113.511 204.157C113.297 204.296 113.057 204.392 112.806 204.438C112.554 204.484 112.296 204.48 112.046 204.427Z" fill="#E6E6E6"/>
<path d="M65.4378 107.272C71.094 107.272 75.6793 102.687 75.6793 97.0308C75.6793 91.3745 71.094 86.7893 65.4378 86.7893C59.7816 86.7893 55.1963 91.3745 55.1963 97.0308C55.1963 102.687 59.7816 107.272 65.4378 107.272Z" fill="#E6E6E6"/>
<path d="M196.024 0.200994C195.734 0.0172776 195.382 -0.0437342 195.047 0.0313632C194.711 0.106461 194.419 0.311538 194.235 0.601583L119.951 117.749C119.767 118.039 119.706 118.391 119.781 118.726C119.856 119.061 120.061 119.353 120.351 119.538L214.726 179.382C215.016 179.565 215.368 179.626 215.703 179.551C216.038 179.476 216.33 179.271 216.515 178.981L290.799 61.8341C290.983 61.5436 291.044 61.1922 290.969 60.8568C290.894 60.5214 290.689 60.2294 290.398 60.045L196.024 0.200994Z" fill="#2B5AC9"/>
<path d="M197.305 5.92602C197.015 5.7423 196.663 5.6813 196.328 5.75639C195.993 5.83149 195.701 6.03656 195.516 6.32661L125.675 116.467C125.491 116.757 125.43 117.109 125.505 117.444C125.581 117.779 125.786 118.071 126.076 118.256L213.443 173.657C213.734 173.84 214.085 173.901 214.421 173.826C214.756 173.751 215.048 173.546 215.232 173.256L285.074 63.116C285.257 62.8255 285.318 62.474 285.243 62.1386C285.168 61.8032 284.963 61.5113 284.673 61.3269L197.305 5.92602Z" fill="white"/>
<path d="M242.961 101.69L178.584 60.8682C178.369 60.7314 178.182 60.5535 178.035 60.3446C177.888 60.1358 177.784 59.9 177.728 59.6508C177.672 59.4016 177.666 59.1439 177.71 58.8923C177.754 58.6407 177.847 58.4002 177.983 58.1846C178.12 57.9689 178.298 57.7823 178.507 57.6353C178.716 57.4884 178.952 57.3841 179.201 57.3283C179.45 57.2725 179.708 57.2664 179.959 57.3102C180.211 57.354 180.451 57.4469 180.667 57.5837L245.043 98.4054C245.259 98.5422 245.446 98.72 245.592 98.9289C245.739 99.1378 245.844 99.3736 245.899 99.6227C245.955 99.8719 245.961 100.13 245.918 100.381C245.874 100.633 245.781 100.873 245.644 101.089C245.507 101.305 245.329 101.491 245.121 101.638C244.912 101.785 244.676 101.889 244.427 101.945C244.178 102.001 243.92 102.007 243.668 101.963C243.417 101.92 243.176 101.827 242.961 101.69Z" fill="#2B5AC9"/>
<path d="M262.918 71.4399L220.208 44.3575C219.607 43.9759 219.585 42.9313 220.16 42.0244C220.735 41.1174 221.689 40.6914 222.291 41.073L265 68.1554C265.602 68.537 265.624 69.5815 265.048 70.4885C264.473 71.3955 263.519 71.8215 262.918 71.4399Z" fill="#2B5AC9"/>
<path d="M256.947 80.8554L214.238 53.773C213.637 53.3914 213.615 52.3468 214.19 51.4398C214.765 50.5329 215.719 50.1069 216.321 50.4885L259.03 77.5709C259.632 77.9525 259.653 78.997 259.078 79.904C258.503 80.811 257.549 81.237 256.947 80.8554Z" fill="#2B5AC9"/>
<path d="M236.226 112.31L171.85 71.488C171.415 71.2115 171.108 70.7737 170.996 70.2708C170.884 69.7679 170.976 69.241 171.252 68.8058C171.528 68.3706 171.965 68.0628 172.468 67.9499C172.97 67.8369 173.497 67.9282 173.933 68.2035L238.309 109.025C238.525 109.162 238.711 109.34 238.858 109.549C239.005 109.758 239.11 109.993 239.165 110.243C239.221 110.492 239.227 110.75 239.184 111.001C239.14 111.253 239.047 111.493 238.91 111.709C238.773 111.925 238.595 112.111 238.386 112.258C238.178 112.405 237.942 112.509 237.693 112.565C237.443 112.621 237.186 112.627 236.934 112.583C236.683 112.539 236.442 112.447 236.226 112.31Z" fill="#2B5AC9"/>
<path d="M229.492 122.93L165.116 82.1079C164.681 81.8314 164.374 81.3936 164.262 80.8907C164.149 80.3877 164.241 79.8608 164.517 79.4257C164.793 78.9905 165.231 78.6826 165.733 78.5697C166.236 78.4568 166.763 78.548 167.199 78.8234L231.575 119.645C231.791 119.782 231.978 119.96 232.125 120.168C232.272 120.377 232.377 120.613 232.433 120.863C232.489 121.112 232.495 121.37 232.451 121.622C232.408 121.874 232.315 122.114 232.178 122.33C232.041 122.546 231.863 122.733 231.654 122.88C231.445 123.027 231.209 123.131 230.959 123.187C230.71 123.242 230.452 123.248 230.2 123.204C229.948 123.16 229.708 123.067 229.492 122.93Z" fill="#2B5AC9"/>
<path d="M222.758 133.55L158.382 92.7278C158.166 92.5912 157.979 92.4134 157.832 92.2045C157.684 91.9955 157.58 91.7597 157.524 91.5103C157.468 91.2609 157.462 91.0029 157.505 90.7511C157.549 90.4993 157.642 90.2586 157.779 90.0428C157.916 89.8269 158.094 89.6401 158.303 89.4932C158.512 89.3462 158.748 89.2419 158.998 89.1862C159.247 89.1306 159.505 89.1246 159.757 89.1687C160.008 89.2128 160.249 89.3061 160.465 89.4433L224.841 130.265C225.276 130.542 225.583 130.979 225.695 131.482C225.807 131.985 225.715 132.512 225.44 132.947C225.164 133.382 224.726 133.69 224.223 133.803C223.721 133.916 223.194 133.825 222.758 133.55Z" fill="#2B5AC9"/>
<path d="M216.024 144.169L151.648 103.348C151.212 103.071 150.904 102.634 150.792 102.13C150.679 101.627 150.771 101.1 151.047 100.664C151.323 100.228 151.761 99.9204 152.264 99.8078C152.768 99.6951 153.295 99.7869 153.731 100.063L218.107 140.885C218.542 141.161 218.849 141.599 218.961 142.102C219.073 142.605 218.981 143.132 218.705 143.567C218.429 144.002 217.992 144.31 217.489 144.423C216.987 144.536 216.46 144.445 216.024 144.169Z" fill="#2B5AC9"/>
<path d="M209.29 154.789L144.913 113.968C144.698 113.831 144.511 113.653 144.364 113.444C144.217 113.235 144.113 112.999 144.057 112.75C144.001 112.501 143.995 112.243 144.039 111.992C144.083 111.74 144.176 111.5 144.313 111.284C144.449 111.068 144.627 110.882 144.836 110.735C145.045 110.588 145.281 110.484 145.53 110.428C145.779 110.372 146.037 110.366 146.288 110.41C146.54 110.453 146.781 110.546 146.996 110.683L211.372 151.505C211.808 151.781 212.116 152.219 212.229 152.722C212.341 153.225 212.249 153.753 211.973 154.188C211.697 154.624 211.259 154.932 210.756 155.045C210.253 155.157 209.725 155.065 209.29 154.789Z" fill="#2B5AC9"/>
<path d="M202.982 48.1273C208.638 48.1273 213.224 43.542 213.224 37.8858C213.224 32.2296 208.638 27.6443 202.982 27.6443C197.326 27.6443 192.741 32.2296 192.741 37.8858C192.741 43.542 197.326 48.1273 202.982 48.1273Z" fill="#2B5AC9"/>
<path d="M1.83059 103.858C1.5729 103.858 1.31811 103.912 1.08288 104.018C0.847652 104.123 0.637286 104.277 0.465569 104.469C0.293851 104.661 0.164654 104.887 0.0864106 105.133C0.00816703 105.378 -0.0173506 105.637 0.0115331 105.893L15.8798 246.723C15.9299 247.171 16.1432 247.584 16.4788 247.884C16.8144 248.184 17.2488 248.349 17.6988 248.349H255.539C255.99 248.349 256.424 248.184 256.76 247.884C257.095 247.584 257.308 247.171 257.358 246.723L273.226 105.893C273.255 105.637 273.23 105.378 273.152 105.133C273.073 104.887 272.944 104.661 272.773 104.469C272.602 104.276 272.392 104.121 272.156 104.016C271.921 103.911 271.666 103.857 271.408 103.858H1.83059Z" fill="#E6E6E6"/>
<path d="M23.4683 127.511L99.6951 127.098C100.21 127.094 100.703 126.886 101.065 126.52C101.427 126.153 101.628 125.658 101.626 125.143C101.623 124.628 101.416 124.135 101.05 123.772C100.684 123.41 100.189 123.207 99.6741 123.209L23.4472 123.622C22.9315 123.624 22.438 123.832 22.0753 124.199C21.7126 124.565 21.5104 125.061 21.5132 125.577C21.516 126.092 21.7235 126.586 22.0902 126.949C22.4568 127.311 22.9526 127.513 23.4683 127.511Z" fill="white"/>
<path d="M23.4683 139.537L68.6812 139.124C69.1963 139.12 69.6889 138.912 70.0509 138.545C70.4128 138.179 70.6145 137.684 70.6117 137.169C70.609 136.654 70.4019 136.161 70.036 135.798C69.6701 135.435 69.1753 135.233 68.6601 135.235L23.4472 135.647C22.9315 135.65 22.438 135.858 22.0753 136.224C21.7126 136.591 21.5104 137.087 21.5132 137.602C21.516 138.118 21.7235 138.612 22.0902 138.974C22.4568 139.337 22.9526 139.539 23.4683 139.537Z" fill="white"/>
</g>
<defs>
<clipPath id="clip0">
<rect width="291" height="249" fill="white"/>
</clipPath>
</defs>
</svg>
