<svg width="286" height="203" viewBox="0 0 286 203" fill="none" xmlns="http://www.w3.org/2000/svg">
<g clip-path="url(#clip0)">
<path d="M3.79961 7.59923C5.89808 7.59923 7.59923 5.89808 7.59923 3.79961C7.59923 1.70114 5.89808 0 3.79961 0C1.70114 0 0 1.70114 0 3.79961C0 5.89808 1.70114 7.59923 3.79961 7.59923Z" fill="#E6E6E6"/>
<path d="M23.033 7.59923C25.1315 7.59923 26.8326 5.89808 26.8326 3.79961C26.8326 1.70114 25.1315 0 23.033 0C20.9345 0 19.2334 1.70114 19.2334 3.79961C19.2334 5.89808 20.9345 7.59923 23.033 7.59923Z" fill="#E6E6E6"/>
<path d="M42.2664 7.59923C44.3649 7.59923 46.066 5.89808 46.066 3.79961C46.066 1.70114 44.3649 0 42.2664 0C40.1679 0 38.4668 1.70114 38.4668 3.79961C38.4668 5.89808 40.1679 7.59923 42.2664 7.59923Z" fill="#E6E6E6"/>
<path d="M61.5003 7.59923C63.5988 7.59923 65.2999 5.89808 65.2999 3.79961C65.2999 1.70114 63.5988 0 61.5003 0C59.4018 0 57.7007 1.70114 57.7007 3.79961C57.7007 5.89808 59.4018 7.59923 61.5003 7.59923Z" fill="#E6E6E6"/>
<path d="M80.7342 7.59923C82.8327 7.59923 84.5338 5.89808 84.5338 3.79961C84.5338 1.70114 82.8327 0 80.7342 0C78.6357 0 76.9346 1.70114 76.9346 3.79961C76.9346 5.89808 78.6357 7.59923 80.7342 7.59923Z" fill="#E6E6E6"/>
<path d="M99.9671 7.59923C102.066 7.59923 103.767 5.89808 103.767 3.79961C103.767 1.70114 102.066 0 99.9671 0C97.8686 0 96.1675 1.70114 96.1675 3.79961C96.1675 5.89808 97.8686 7.59923 99.9671 7.59923Z" fill="#E6E6E6"/>
<path d="M119.201 7.59923C121.299 7.59923 123.001 5.89808 123.001 3.79961C123.001 1.70114 121.299 0 119.201 0C117.103 0 115.401 1.70114 115.401 3.79961C115.401 5.89808 117.103 7.59923 119.201 7.59923Z" fill="#E6E6E6"/>
<path d="M138.434 7.59923C140.533 7.59923 142.234 5.89808 142.234 3.79961C142.234 1.70114 140.533 0 138.434 0C136.336 0 134.635 1.70114 134.635 3.79961C134.635 5.89808 136.336 7.59923 138.434 7.59923Z" fill="#E6E6E6"/>
<path d="M157.668 7.59923C159.767 7.59923 161.468 5.89808 161.468 3.79961C161.468 1.70114 159.767 0 157.668 0C155.57 0 153.869 1.70114 153.869 3.79961C153.869 5.89808 155.57 7.59923 157.668 7.59923Z" fill="#E6E6E6"/>
<path d="M176.902 7.59923C179.001 7.59923 180.702 5.89808 180.702 3.79961C180.702 1.70114 179.001 0 176.902 0C174.804 0 173.103 1.70114 173.103 3.79961C173.103 5.89808 174.804 7.59923 176.902 7.59923Z" fill="#E6E6E6"/>
<path d="M3.79961 27.0742C5.89808 27.0742 7.59923 25.3731 7.59923 23.2746C7.59923 21.1761 5.89808 19.475 3.79961 19.475C1.70114 19.475 0 21.1761 0 23.2746C0 25.3731 1.70114 27.0742 3.79961 27.0742Z" fill="#E6E6E6"/>
<path d="M23.033 27.0742C25.1315 27.0742 26.8326 25.3731 26.8326 23.2746C26.8326 21.1761 25.1315 19.475 23.033 19.475C20.9345 19.475 19.2334 21.1761 19.2334 23.2746C19.2334 25.3731 20.9345 27.0742 23.033 27.0742Z" fill="#E6E6E6"/>
<path d="M42.2664 27.0742C44.3649 27.0742 46.066 25.3731 46.066 23.2746C46.066 21.1761 44.3649 19.475 42.2664 19.475C40.1679 19.475 38.4668 21.1761 38.4668 23.2746C38.4668 25.3731 40.1679 27.0742 42.2664 27.0742Z" fill="#E6E6E6"/>
<path d="M61.5003 27.0742C63.5988 27.0742 65.2999 25.3731 65.2999 23.2746C65.2999 21.1761 63.5988 19.475 61.5003 19.475C59.4018 19.475 57.7007 21.1761 57.7007 23.2746C57.7007 25.3731 59.4018 27.0742 61.5003 27.0742Z" fill="#2B5AC9"/>
<path d="M80.7342 27.0742C82.8327 27.0742 84.5338 25.3731 84.5338 23.2746C84.5338 21.1761 82.8327 19.475 80.7342 19.475C78.6357 19.475 76.9346 21.1761 76.9346 23.2746C76.9346 25.3731 78.6357 27.0742 80.7342 27.0742Z" fill="#E6E6E6"/>
<path d="M99.9671 27.0742C102.066 27.0742 103.767 25.3731 103.767 23.2746C103.767 21.1761 102.066 19.475 99.9671 19.475C97.8686 19.475 96.1675 21.1761 96.1675 23.2746C96.1675 25.3731 97.8686 27.0742 99.9671 27.0742Z" fill="#E6E6E6"/>
<path d="M119.201 27.0742C121.299 27.0742 123.001 25.3731 123.001 23.2746C123.001 21.1761 121.299 19.475 119.201 19.475C117.103 19.475 115.401 21.1761 115.401 23.2746C115.401 25.3731 117.103 27.0742 119.201 27.0742Z" fill="#E6E6E6"/>
<path d="M138.434 27.0742C140.533 27.0742 142.234 25.3731 142.234 23.2746C142.234 21.1761 140.533 19.475 138.434 19.475C136.336 19.475 134.635 21.1761 134.635 23.2746C134.635 25.3731 136.336 27.0742 138.434 27.0742Z" fill="#E6E6E6"/>
<path d="M157.668 27.0742C159.767 27.0742 161.468 25.3731 161.468 23.2746C161.468 21.1761 159.767 19.475 157.668 19.475C155.57 19.475 153.869 21.1761 153.869 23.2746C153.869 25.3731 155.57 27.0742 157.668 27.0742Z" fill="#E6E6E6"/>
<path d="M176.902 27.0742C179.001 27.0742 180.702 25.3731 180.702 23.2746C180.702 21.1761 179.001 19.475 176.902 19.475C174.804 19.475 173.103 21.1761 173.103 23.2746C173.103 25.3731 174.804 27.0742 176.902 27.0742Z" fill="#E6E6E6"/>
<path d="M3.79961 46.5492C5.89808 46.5492 7.59923 44.8481 7.59923 42.7496C7.59923 40.6512 5.89808 38.95 3.79961 38.95C1.70114 38.95 0 40.6512 0 42.7496C0 44.8481 1.70114 46.5492 3.79961 46.5492Z" fill="#E6E6E6"/>
<path d="M23.033 46.5492C25.1315 46.5492 26.8326 44.8481 26.8326 42.7496C26.8326 40.6512 25.1315 38.95 23.033 38.95C20.9345 38.95 19.2334 40.6512 19.2334 42.7496C19.2334 44.8481 20.9345 46.5492 23.033 46.5492Z" fill="#E6E6E6"/>
<path d="M42.2664 46.5492C44.3649 46.5492 46.066 44.8481 46.066 42.7496C46.066 40.6512 44.3649 38.95 42.2664 38.95C40.1679 38.95 38.4668 40.6512 38.4668 42.7496C38.4668 44.8481 40.1679 46.5492 42.2664 46.5492Z" fill="#E6E6E6"/>
<path d="M61.5003 46.5492C63.5988 46.5492 65.2999 44.8481 65.2999 42.7496C65.2999 40.6512 63.5988 38.95 61.5003 38.95C59.4018 38.95 57.7007 40.6512 57.7007 42.7496C57.7007 44.8481 59.4018 46.5492 61.5003 46.5492Z" fill="#E6E6E6"/>
<path d="M80.7342 46.5492C82.8327 46.5492 84.5338 44.8481 84.5338 42.7496C84.5338 40.6512 82.8327 38.95 80.7342 38.95C78.6357 38.95 76.9346 40.6512 76.9346 42.7496C76.9346 44.8481 78.6357 46.5492 80.7342 46.5492Z" fill="#E6E6E6"/>
<path d="M99.9671 46.5492C102.066 46.5492 103.767 44.8481 103.767 42.7496C103.767 40.6512 102.066 38.95 99.9671 38.95C97.8686 38.95 96.1675 40.6512 96.1675 42.7496C96.1675 44.8481 97.8686 46.5492 99.9671 46.5492Z" fill="#E6E6E6"/>
<path d="M119.201 46.5492C121.299 46.5492 123.001 44.8481 123.001 42.7496C123.001 40.6512 121.299 38.95 119.201 38.95C117.103 38.95 115.401 40.6512 115.401 42.7496C115.401 44.8481 117.103 46.5492 119.201 46.5492Z" fill="#E6E6E6"/>
<path d="M138.434 46.5492C140.533 46.5492 142.234 44.8481 142.234 42.7496C142.234 40.6512 140.533 38.95 138.434 38.95C136.336 38.95 134.635 40.6512 134.635 42.7496C134.635 44.8481 136.336 46.5492 138.434 46.5492Z" fill="#E6E6E6"/>
<path d="M157.668 46.5492C159.767 46.5492 161.468 44.8481 161.468 42.7496C161.468 40.6512 159.767 38.95 157.668 38.95C155.57 38.95 153.869 40.6512 153.869 42.7496C153.869 44.8481 155.57 46.5492 157.668 46.5492Z" fill="#E6E6E6"/>
<path d="M176.902 46.5492C179.001 46.5492 180.702 44.8481 180.702 42.7496C180.702 40.6512 179.001 38.95 176.902 38.95C174.804 38.95 173.103 40.6512 173.103 42.7496C173.103 44.8481 174.804 46.5492 176.902 46.5492Z" fill="#E6E6E6"/>
<path d="M3.79961 66.0243C5.89808 66.0243 7.59923 64.3231 7.59923 62.2247C7.59923 60.1262 5.89808 58.425 3.79961 58.425C1.70114 58.425 0 60.1262 0 62.2247C0 64.3231 1.70114 66.0243 3.79961 66.0243Z" fill="#E6E6E6"/>
<path d="M23.033 66.0243C25.1315 66.0243 26.8326 64.3231 26.8326 62.2247C26.8326 60.1262 25.1315 58.425 23.033 58.425C20.9345 58.425 19.2334 60.1262 19.2334 62.2247C19.2334 64.3231 20.9345 66.0243 23.033 66.0243Z" fill="#E6E6E6"/>
<path d="M42.2664 66.0243C44.3649 66.0243 46.066 64.3231 46.066 62.2247C46.066 60.1262 44.3649 58.425 42.2664 58.425C40.1679 58.425 38.4668 60.1262 38.4668 62.2247C38.4668 64.3231 40.1679 66.0243 42.2664 66.0243Z" fill="#E6E6E6"/>
<path d="M61.5003 66.0243C63.5988 66.0243 65.2999 64.3231 65.2999 62.2247C65.2999 60.1262 63.5988 58.425 61.5003 58.425C59.4018 58.425 57.7007 60.1262 57.7007 62.2247C57.7007 64.3231 59.4018 66.0243 61.5003 66.0243Z" fill="#E6E6E6"/>
<path d="M80.7342 66.0243C82.8327 66.0243 84.5338 64.3231 84.5338 62.2247C84.5338 60.1262 82.8327 58.425 80.7342 58.425C78.6357 58.425 76.9346 60.1262 76.9346 62.2247C76.9346 64.3231 78.6357 66.0243 80.7342 66.0243Z" fill="#E6E6E6"/>
<path d="M99.9671 66.0243C102.066 66.0243 103.767 64.3231 103.767 62.2247C103.767 60.1262 102.066 58.425 99.9671 58.425C97.8686 58.425 96.1675 60.1262 96.1675 62.2247C96.1675 64.3231 97.8686 66.0243 99.9671 66.0243Z" fill="#E6E6E6"/>
<path d="M119.201 66.0243C121.299 66.0243 123.001 64.3231 123.001 62.2247C123.001 60.1262 121.299 58.425 119.201 58.425C117.103 58.425 115.401 60.1262 115.401 62.2247C115.401 64.3231 117.103 66.0243 119.201 66.0243Z" fill="#E6E6E6"/>
<path d="M138.434 66.0243C140.533 66.0243 142.234 64.3231 142.234 62.2247C142.234 60.1262 140.533 58.425 138.434 58.425C136.336 58.425 134.635 60.1262 134.635 62.2247C134.635 64.3231 136.336 66.0243 138.434 66.0243Z" fill="#E6E6E6"/>
<path d="M157.668 66.0243C159.767 66.0243 161.468 64.3231 161.468 62.2247C161.468 60.1262 159.767 58.425 157.668 58.425C155.57 58.425 153.869 60.1262 153.869 62.2247C153.869 64.3231 155.57 66.0243 157.668 66.0243Z" fill="#E6E6E6"/>
<path d="M176.902 66.0243C179.001 66.0243 180.702 64.3231 180.702 62.2247C180.702 60.1262 179.001 58.425 176.902 58.425C174.804 58.425 173.103 60.1262 173.103 62.2247C173.103 64.3231 174.804 66.0243 176.902 66.0243Z" fill="#E6E6E6"/>
<path d="M3.79961 85.4992C5.89808 85.4992 7.59923 83.7981 7.59923 81.6996C7.59923 79.6012 5.89808 77.9 3.79961 77.9C1.70114 77.9 0 79.6012 0 81.6996C0 83.7981 1.70114 85.4992 3.79961 85.4992Z" fill="#E6E6E6"/>
<path d="M23.033 85.4992C25.1315 85.4992 26.8326 83.7981 26.8326 81.6996C26.8326 79.6012 25.1315 77.9 23.033 77.9C20.9345 77.9 19.2334 79.6012 19.2334 81.6996C19.2334 83.7981 20.9345 85.4992 23.033 85.4992Z" fill="#2B5AC9"/>
<path d="M42.2664 85.4992C44.3649 85.4992 46.066 83.7981 46.066 81.6996C46.066 79.6012 44.3649 77.9 42.2664 77.9C40.1679 77.9 38.4668 79.6012 38.4668 81.6996C38.4668 83.7981 40.1679 85.4992 42.2664 85.4992Z" fill="#E6E6E6"/>
<path d="M61.5003 85.4992C63.5988 85.4992 65.2999 83.7981 65.2999 81.6996C65.2999 79.6012 63.5988 77.9 61.5003 77.9C59.4018 77.9 57.7007 79.6012 57.7007 81.6996C57.7007 83.7981 59.4018 85.4992 61.5003 85.4992Z" fill="#E6E6E6"/>
<path d="M80.7342 85.4992C82.8327 85.4992 84.5338 83.7981 84.5338 81.6996C84.5338 79.6012 82.8327 77.9 80.7342 77.9C78.6357 77.9 76.9346 79.6012 76.9346 81.6996C76.9346 83.7981 78.6357 85.4992 80.7342 85.4992Z" fill="#E6E6E6"/>
<path d="M99.9671 85.4992C102.066 85.4992 103.767 83.7981 103.767 81.6996C103.767 79.6012 102.066 77.9 99.9671 77.9C97.8686 77.9 96.1675 79.6012 96.1675 81.6996C96.1675 83.7981 97.8686 85.4992 99.9671 85.4992Z" fill="#E6E6E6"/>
<path d="M119.201 85.4992C121.299 85.4992 123.001 83.7981 123.001 81.6996C123.001 79.6012 121.299 77.9 119.201 77.9C117.103 77.9 115.401 79.6012 115.401 81.6996C115.401 83.7981 117.103 85.4992 119.201 85.4992Z" fill="#E6E6E6"/>
<path d="M138.434 85.4992C140.533 85.4992 142.234 83.7981 142.234 81.6996C142.234 79.6012 140.533 77.9 138.434 77.9C136.336 77.9 134.635 79.6012 134.635 81.6996C134.635 83.7981 136.336 85.4992 138.434 85.4992Z" fill="#E6E6E6"/>
<path d="M157.668 85.4992C159.767 85.4992 161.468 83.7981 161.468 81.6996C161.468 79.6012 159.767 77.9 157.668 77.9C155.57 77.9 153.869 79.6012 153.869 81.6996C153.869 83.7981 155.57 85.4992 157.668 85.4992Z" fill="#E6E6E6"/>
<path d="M176.902 85.4992C179.001 85.4992 180.702 83.7981 180.702 81.6996C180.702 79.6012 179.001 77.9 176.902 77.9C174.804 77.9 173.103 79.6012 173.103 81.6996C173.103 83.7981 174.804 85.4992 176.902 85.4992Z" fill="#E6E6E6"/>
<path d="M3.79961 104.974C5.89808 104.974 7.59923 103.273 7.59923 101.175C7.59923 99.0762 5.89808 97.3751 3.79961 97.3751C1.70114 97.3751 0 99.0762 0 101.175C0 103.273 1.70114 104.974 3.79961 104.974Z" fill="#E6E6E6"/>
<path d="M23.033 104.974C25.1315 104.974 26.8326 103.273 26.8326 101.175C26.8326 99.0762 25.1315 97.3751 23.033 97.3751C20.9345 97.3751 19.2334 99.0762 19.2334 101.175C19.2334 103.273 20.9345 104.974 23.033 104.974Z" fill="#E6E6E6"/>
<path d="M42.2664 104.974C44.3649 104.974 46.066 103.273 46.066 101.175C46.066 99.0762 44.3649 97.3751 42.2664 97.3751C40.1679 97.3751 38.4668 99.0762 38.4668 101.175C38.4668 103.273 40.1679 104.974 42.2664 104.974Z" fill="#E6E6E6"/>
<path d="M61.5003 104.974C63.5988 104.974 65.2999 103.273 65.2999 101.175C65.2999 99.0762 63.5988 97.3751 61.5003 97.3751C59.4018 97.3751 57.7007 99.0762 57.7007 101.175C57.7007 103.273 59.4018 104.974 61.5003 104.974Z" fill="#E6E6E6"/>
<path d="M80.7342 104.974C82.8327 104.974 84.5338 103.273 84.5338 101.175C84.5338 99.0762 82.8327 97.3751 80.7342 97.3751C78.6357 97.3751 76.9346 99.0762 76.9346 101.175C76.9346 103.273 78.6357 104.974 80.7342 104.974Z" fill="#E6E6E6"/>
<path d="M99.9671 104.974C102.066 104.974 103.767 103.273 103.767 101.175C103.767 99.0762 102.066 97.3751 99.9671 97.3751C97.8686 97.3751 96.1675 99.0762 96.1675 101.175C96.1675 103.273 97.8686 104.974 99.9671 104.974Z" fill="#E6E6E6"/>
<path d="M119.201 104.974C121.299 104.974 123.001 103.273 123.001 101.175C123.001 99.0762 121.299 97.3751 119.201 97.3751C117.103 97.3751 115.401 99.0762 115.401 101.175C115.401 103.273 117.103 104.974 119.201 104.974Z" fill="#E6E6E6"/>
<path d="M138.434 104.974C140.533 104.974 142.234 103.273 142.234 101.175C142.234 99.0762 140.533 97.3751 138.434 97.3751C136.336 97.3751 134.635 99.0762 134.635 101.175C134.635 103.273 136.336 104.974 138.434 104.974Z" fill="#E6E6E6"/>
<path d="M157.668 104.974C159.767 104.974 161.468 103.273 161.468 101.175C161.468 99.0762 159.767 97.3751 157.668 97.3751C155.57 97.3751 153.869 99.0762 153.869 101.175C153.869 103.273 155.57 104.974 157.668 104.974Z" fill="#E6E6E6"/>
<path d="M176.902 104.974C179.001 104.974 180.702 103.273 180.702 101.175C180.702 99.0762 179.001 97.3751 176.902 97.3751C174.804 97.3751 173.103 99.0762 173.103 101.175C173.103 103.273 174.804 104.974 176.902 104.974Z" fill="#E6E6E6"/>
<path d="M3.79961 124.449C5.89808 124.449 7.59923 122.748 7.59923 120.65C7.59923 118.551 5.89808 116.85 3.79961 116.85C1.70114 116.85 0 118.551 0 120.65C0 122.748 1.70114 124.449 3.79961 124.449Z" fill="#E6E6E6"/>
<path d="M23.033 124.449C25.1315 124.449 26.8326 122.748 26.8326 120.65C26.8326 118.551 25.1315 116.85 23.033 116.85C20.9345 116.85 19.2334 118.551 19.2334 120.65C19.2334 122.748 20.9345 124.449 23.033 124.449Z" fill="#E6E6E6"/>
<path d="M42.2664 124.449C44.3649 124.449 46.066 122.748 46.066 120.65C46.066 118.551 44.3649 116.85 42.2664 116.85C40.1679 116.85 38.4668 118.551 38.4668 120.65C38.4668 122.748 40.1679 124.449 42.2664 124.449Z" fill="#2B5AC9"/>
<path d="M61.5003 124.449C63.5988 124.449 65.2999 122.748 65.2999 120.65C65.2999 118.551 63.5988 116.85 61.5003 116.85C59.4018 116.85 57.7007 118.551 57.7007 120.65C57.7007 122.748 59.4018 124.449 61.5003 124.449Z" fill="#E6E6E6"/>
<path d="M80.7342 124.449C82.8327 124.449 84.5338 122.748 84.5338 120.65C84.5338 118.551 82.8327 116.85 80.7342 116.85C78.6357 116.85 76.9346 118.551 76.9346 120.65C76.9346 122.748 78.6357 124.449 80.7342 124.449Z" fill="#E6E6E6"/>
<path d="M99.9671 124.449C102.066 124.449 103.767 122.748 103.767 120.65C103.767 118.551 102.066 116.85 99.9671 116.85C97.8686 116.85 96.1675 118.551 96.1675 120.65C96.1675 122.748 97.8686 124.449 99.9671 124.449Z" fill="#E6E6E6"/>
<path d="M119.201 124.449C121.299 124.449 123.001 122.748 123.001 120.65C123.001 118.551 121.299 116.85 119.201 116.85C117.103 116.85 115.401 118.551 115.401 120.65C115.401 122.748 117.103 124.449 119.201 124.449Z" fill="#E6E6E6"/>
<path d="M138.434 124.449C140.533 124.449 142.234 122.748 142.234 120.65C142.234 118.551 140.533 116.85 138.434 116.85C136.336 116.85 134.635 118.551 134.635 120.65C134.635 122.748 136.336 124.449 138.434 124.449Z" fill="#E6E6E6"/>
<path d="M157.668 124.449C159.767 124.449 161.468 122.748 161.468 120.65C161.468 118.551 159.767 116.85 157.668 116.85C155.57 116.85 153.869 118.551 153.869 120.65C153.869 122.748 155.57 124.449 157.668 124.449Z" fill="#E6E6E6"/>
<path d="M176.902 124.449C179.001 124.449 180.702 122.748 180.702 120.65C180.702 118.551 179.001 116.85 176.902 116.85C174.804 116.85 173.103 118.551 173.103 120.65C173.103 122.748 174.804 124.449 176.902 124.449Z" fill="#E6E6E6"/>
<path d="M3.79961 143.924C5.89808 143.924 7.59923 142.223 7.59923 140.125C7.59923 138.026 5.89808 136.325 3.79961 136.325C1.70114 136.325 0 138.026 0 140.125C0 142.223 1.70114 143.924 3.79961 143.924Z" fill="#E6E6E6"/>
<path d="M23.033 143.924C25.1315 143.924 26.8326 142.223 26.8326 140.125C26.8326 138.026 25.1315 136.325 23.033 136.325C20.9345 136.325 19.2334 138.026 19.2334 140.125C19.2334 142.223 20.9345 143.924 23.033 143.924Z" fill="#E6E6E6"/>
<path d="M42.2664 143.924C44.3649 143.924 46.066 142.223 46.066 140.125C46.066 138.026 44.3649 136.325 42.2664 136.325C40.1679 136.325 38.4668 138.026 38.4668 140.125C38.4668 142.223 40.1679 143.924 42.2664 143.924Z" fill="#E6E6E6"/>
<path d="M61.5003 143.924C63.5988 143.924 65.2999 142.223 65.2999 140.125C65.2999 138.026 63.5988 136.325 61.5003 136.325C59.4018 136.325 57.7007 138.026 57.7007 140.125C57.7007 142.223 59.4018 143.924 61.5003 143.924Z" fill="#E6E6E6"/>
<path d="M80.7342 143.924C82.8327 143.924 84.5338 142.223 84.5338 140.125C84.5338 138.026 82.8327 136.325 80.7342 136.325C78.6357 136.325 76.9346 138.026 76.9346 140.125C76.9346 142.223 78.6357 143.924 80.7342 143.924Z" fill="#E6E6E6"/>
<path d="M99.9671 143.924C102.066 143.924 103.767 142.223 103.767 140.125C103.767 138.026 102.066 136.325 99.9671 136.325C97.8686 136.325 96.1675 138.026 96.1675 140.125C96.1675 142.223 97.8686 143.924 99.9671 143.924Z" fill="#E6E6E6"/>
<path d="M119.201 143.924C121.299 143.924 123.001 142.223 123.001 140.125C123.001 138.026 121.299 136.325 119.201 136.325C117.103 136.325 115.401 138.026 115.401 140.125C115.401 142.223 117.103 143.924 119.201 143.924Z" fill="#E6E6E6"/>
<path d="M138.434 143.924C140.533 143.924 142.234 142.223 142.234 140.125C142.234 138.026 140.533 136.325 138.434 136.325C136.336 136.325 134.635 138.026 134.635 140.125C134.635 142.223 136.336 143.924 138.434 143.924Z" fill="#E6E6E6"/>
<path d="M157.668 143.924C159.767 143.924 161.468 142.223 161.468 140.125C161.468 138.026 159.767 136.325 157.668 136.325C155.57 136.325 153.869 138.026 153.869 140.125C153.869 142.223 155.57 143.924 157.668 143.924Z" fill="#E6E6E6"/>
<path d="M176.902 143.924C179.001 143.924 180.702 142.223 180.702 140.125C180.702 138.026 179.001 136.325 176.902 136.325C174.804 136.325 173.103 138.026 173.103 140.125C173.103 142.223 174.804 143.924 176.902 143.924Z" fill="#E6E6E6"/>
<path d="M3.79961 163.399C5.89808 163.399 7.59923 161.698 7.59923 159.6C7.59923 157.501 5.89808 155.8 3.79961 155.8C1.70114 155.8 0 157.501 0 159.6C0 161.698 1.70114 163.399 3.79961 163.399Z" fill="#E6E6E6"/>
<path d="M23.033 163.399C25.1315 163.399 26.8326 161.698 26.8326 159.6C26.8326 157.501 25.1315 155.8 23.033 155.8C20.9345 155.8 19.2334 157.501 19.2334 159.6C19.2334 161.698 20.9345 163.399 23.033 163.399Z" fill="#E6E6E6"/>
<path d="M42.2664 163.399C44.3649 163.399 46.066 161.698 46.066 159.6C46.066 157.501 44.3649 155.8 42.2664 155.8C40.1679 155.8 38.4668 157.501 38.4668 159.6C38.4668 161.698 40.1679 163.399 42.2664 163.399Z" fill="#E6E6E6"/>
<path d="M61.5003 163.399C63.5988 163.399 65.2999 161.698 65.2999 159.6C65.2999 157.501 63.5988 155.8 61.5003 155.8C59.4018 155.8 57.7007 157.501 57.7007 159.6C57.7007 161.698 59.4018 163.399 61.5003 163.399Z" fill="#E6E6E6"/>
<path d="M80.7342 163.399C82.8327 163.399 84.5338 161.698 84.5338 159.6C84.5338 157.501 82.8327 155.8 80.7342 155.8C78.6357 155.8 76.9346 157.501 76.9346 159.6C76.9346 161.698 78.6357 163.399 80.7342 163.399Z" fill="#E6E6E6"/>
<path d="M99.9671 163.399C102.066 163.399 103.767 161.698 103.767 159.6C103.767 157.501 102.066 155.8 99.9671 155.8C97.8686 155.8 96.1675 157.501 96.1675 159.6C96.1675 161.698 97.8686 163.399 99.9671 163.399Z" fill="#E6E6E6"/>
<path d="M119.201 163.399C121.299 163.399 123.001 161.698 123.001 159.6C123.001 157.501 121.299 155.8 119.201 155.8C117.103 155.8 115.401 157.501 115.401 159.6C115.401 161.698 117.103 163.399 119.201 163.399Z" fill="#E6E6E6"/>
<path d="M138.434 163.399C140.533 163.399 142.234 161.698 142.234 159.6C142.234 157.501 140.533 155.8 138.434 155.8C136.336 155.8 134.635 157.501 134.635 159.6C134.635 161.698 136.336 163.399 138.434 163.399Z" fill="#E6E6E6"/>
<path d="M157.668 163.399C159.767 163.399 161.468 161.698 161.468 159.6C161.468 157.501 159.767 155.8 157.668 155.8C155.57 155.8 153.869 157.501 153.869 159.6C153.869 161.698 155.57 163.399 157.668 163.399Z" fill="#E6E6E6"/>
<path d="M176.902 163.399C179.001 163.399 180.702 161.698 180.702 159.6C180.702 157.501 179.001 155.8 176.902 155.8C174.804 155.8 173.103 157.501 173.103 159.6C173.103 161.698 174.804 163.399 176.902 163.399Z" fill="#E6E6E6"/>
<path d="M3.79961 182.874C5.89808 182.874 7.59923 181.173 7.59923 179.075C7.59923 176.976 5.89808 175.275 3.79961 175.275C1.70114 175.275 0 176.976 0 179.075C0 181.173 1.70114 182.874 3.79961 182.874Z" fill="#E6E6E6"/>
<path d="M23.033 182.874C25.1315 182.874 26.8326 181.173 26.8326 179.075C26.8326 176.976 25.1315 175.275 23.033 175.275C20.9345 175.275 19.2334 176.976 19.2334 179.075C19.2334 181.173 20.9345 182.874 23.033 182.874Z" fill="#E6E6E6"/>
<path d="M42.2664 182.874C44.3649 182.874 46.066 181.173 46.066 179.075C46.066 176.976 44.3649 175.275 42.2664 175.275C40.1679 175.275 38.4668 176.976 38.4668 179.075C38.4668 181.173 40.1679 182.874 42.2664 182.874Z" fill="#E6E6E6"/>
<path d="M61.5003 182.874C63.5988 182.874 65.2999 181.173 65.2999 179.075C65.2999 176.976 63.5988 175.275 61.5003 175.275C59.4018 175.275 57.7007 176.976 57.7007 179.075C57.7007 181.173 59.4018 182.874 61.5003 182.874Z" fill="#E6E6E6"/>
<path d="M80.7342 182.874C82.8327 182.874 84.5338 181.173 84.5338 179.075C84.5338 176.976 82.8327 175.275 80.7342 175.275C78.6357 175.275 76.9346 176.976 76.9346 179.075C76.9346 181.173 78.6357 182.874 80.7342 182.874Z" fill="#E6E6E6"/>
<path d="M99.9671 182.874C102.066 182.874 103.767 181.173 103.767 179.075C103.767 176.976 102.066 175.275 99.9671 175.275C97.8686 175.275 96.1675 176.976 96.1675 179.075C96.1675 181.173 97.8686 182.874 99.9671 182.874Z" fill="#E6E6E6"/>
<path d="M119.201 182.874C121.299 182.874 123.001 181.173 123.001 179.075C123.001 176.976 121.299 175.275 119.201 175.275C117.103 175.275 115.401 176.976 115.401 179.075C115.401 181.173 117.103 182.874 119.201 182.874Z" fill="#E6E6E6"/>
<path d="M138.434 182.874C140.533 182.874 142.234 181.173 142.234 179.075C142.234 176.976 140.533 175.275 138.434 175.275C136.336 175.275 134.635 176.976 134.635 179.075C134.635 181.173 136.336 182.874 138.434 182.874Z" fill="#E6E6E6"/>
<path d="M157.668 182.874C159.767 182.874 161.468 181.173 161.468 179.075C161.468 176.976 159.767 175.275 157.668 175.275C155.57 175.275 153.869 176.976 153.869 179.075C153.869 181.173 155.57 182.874 157.668 182.874Z" fill="#E6E6E6"/>
<path d="M176.902 182.874C179.001 182.874 180.702 181.173 180.702 179.075C180.702 176.976 179.001 175.275 176.902 175.275C174.804 175.275 173.103 176.976 173.103 179.075C173.103 181.173 174.804 182.874 176.902 182.874Z" fill="#E6E6E6"/>
<path d="M223.295 33.9572C224.569 33.9572 225.791 34.4633 226.692 35.3642C227.593 36.2651 228.099 37.487 228.099 38.761V230.912C228.099 231.543 227.974 232.168 227.733 232.751C227.492 233.333 227.138 233.863 226.692 234.309C226.246 234.755 225.716 235.109 225.133 235.35C224.55 235.592 223.926 235.716 223.295 235.716H85.4264C84.7955 235.716 84.1708 235.592 83.588 235.35C83.0052 235.109 82.4756 234.755 82.0296 234.309C81.5835 233.863 81.2296 233.333 80.9882 232.751C80.7468 232.168 80.6226 231.543 80.6226 230.912V38.761C80.6226 37.487 81.1287 36.2651 82.0296 35.3642C82.9304 34.4633 84.1523 33.9572 85.4264 33.9572H223.295Z" fill="#E6E6E6"/>
<path d="M85.9854 230.353H222.735V39.3203H85.9854V230.353Z" fill="white"/>
<path d="M192.31 69.5436C192.436 69.5436 192.561 69.5685 192.678 69.6168C192.794 69.6651 192.9 69.7358 192.99 69.825C193.079 69.9143 193.15 70.0202 193.198 70.1367C193.246 70.2533 193.271 70.3782 193.271 70.5044V72.4259C193.271 72.6807 193.17 72.9251 192.99 73.1053C192.809 73.2854 192.565 73.3867 192.31 73.3867H116.41C116.284 73.3867 116.159 73.3618 116.043 73.3135C115.926 73.2653 115.82 73.1945 115.731 73.1053C115.642 73.0161 115.571 72.9102 115.523 72.7936C115.475 72.677 115.45 72.5521 115.45 72.4259V70.5044C115.45 70.3782 115.475 70.2533 115.523 70.1367C115.571 70.0202 115.642 69.9143 115.731 69.825C115.82 69.7358 115.926 69.6651 116.043 69.6168C116.159 69.5685 116.284 69.5436 116.41 69.5436H192.31Z" fill="#E6E6E6"/>
<path d="M192.31 78.6708C192.565 78.6708 192.809 78.7721 192.99 78.9522C193.17 79.1324 193.271 79.3768 193.271 79.6316V81.5531C193.271 81.8079 193.17 82.0523 192.99 82.2325C192.809 82.4126 192.565 82.5139 192.31 82.5139H116.41C116.284 82.5139 116.159 82.489 116.043 82.4407C115.926 82.3924 115.82 82.3217 115.731 82.2325C115.642 82.1433 115.571 82.0373 115.523 81.9208C115.475 81.8042 115.45 81.6793 115.45 81.5531V79.6316C115.45 79.5054 115.475 79.3805 115.523 79.2639C115.571 79.1474 115.642 79.0415 115.731 78.9522C115.82 78.863 115.926 78.7922 116.043 78.744C116.159 78.6957 116.284 78.6708 116.41 78.6708H192.31Z" fill="#E6E6E6"/>
<path d="M192.31 87.798C192.565 87.798 192.809 87.8992 192.99 88.0794C193.17 88.2596 193.271 88.5039 193.271 88.7588V90.6803C193.271 90.9351 193.17 91.1794 192.99 91.3596C192.809 91.5398 192.565 91.641 192.31 91.641H116.41C116.156 91.641 115.911 91.5398 115.731 91.3596C115.551 91.1794 115.45 90.9351 115.45 90.6803V88.7588C115.45 88.5039 115.551 88.2596 115.731 88.0794C115.911 87.8992 116.156 87.798 116.41 87.798H192.31Z" fill="#2B5AC9"/>
<path d="M192.31 97.1249C192.565 97.1249 192.809 97.2262 192.99 97.4063C193.17 97.5865 193.271 97.8309 193.271 98.0857V100.007C193.271 100.262 193.17 100.506 192.99 100.687C192.809 100.867 192.565 100.968 192.31 100.968H116.41C116.284 100.968 116.159 100.943 116.043 100.895C115.926 100.847 115.82 100.776 115.731 100.687C115.642 100.597 115.571 100.491 115.523 100.375C115.475 100.258 115.45 100.133 115.45 100.007V98.0857C115.45 97.9595 115.475 97.8346 115.523 97.718C115.571 97.6015 115.642 97.4955 115.731 97.4063C115.82 97.3171 115.926 97.2464 116.043 97.1981C116.159 97.1498 116.284 97.1249 116.41 97.1249H192.31Z" fill="#E6E6E6"/>
<path d="M192.31 106.252C192.565 106.252 192.809 106.353 192.99 106.534C193.17 106.714 193.271 106.958 193.271 107.213V109.134C193.271 109.261 193.246 109.386 193.198 109.502C193.15 109.619 193.079 109.725 192.99 109.814C192.9 109.903 192.794 109.974 192.678 110.022C192.561 110.07 192.436 110.095 192.31 110.095H116.41C116.284 110.095 116.159 110.07 116.043 110.022C115.926 109.974 115.82 109.903 115.731 109.814C115.642 109.725 115.571 109.619 115.523 109.502C115.475 109.386 115.45 109.261 115.45 109.134V107.213C115.45 107.087 115.475 106.962 115.523 106.845C115.571 106.729 115.642 106.623 115.731 106.534C115.82 106.444 115.926 106.374 116.043 106.325C116.159 106.277 116.284 106.252 116.41 106.252H192.31Z" fill="#E6E6E6"/>
<path d="M192.31 115.379C192.565 115.379 192.809 115.481 192.99 115.661C193.17 115.841 193.271 116.085 193.271 116.34V118.262C193.271 118.516 193.17 118.761 192.99 118.941C192.809 119.121 192.565 119.222 192.31 119.222H116.41C116.156 119.222 115.911 119.121 115.731 118.941C115.551 118.761 115.45 118.516 115.45 118.262V116.34C115.45 116.085 115.551 115.841 115.731 115.661C115.911 115.481 116.156 115.379 116.41 115.379H192.31Z" fill="#E6E6E6"/>
<path d="M116.896 146.083C116.6 146.083 116.316 146.201 116.107 146.41C115.898 146.619 115.781 146.902 115.78 147.198V199.014C115.781 199.31 115.898 199.594 116.107 199.803C116.316 200.012 116.6 200.129 116.896 200.13H191.697C191.992 200.129 192.276 200.012 192.485 199.803C192.694 199.594 192.812 199.31 192.812 199.014V147.198C192.812 146.902 192.694 146.619 192.485 146.41C192.276 146.201 191.992 146.083 191.697 146.083H116.896Z" fill="#2B5AC9"/>
<path d="M154.61 89.8863L153.825 89.6778L170.96 25.2181H270.351V26.0306H171.584L154.61 89.8863Z" fill="#3F3D56"/>
<path d="M278.473 34.1517C276.787 34.1517 275.138 33.6515 273.736 32.7146C272.333 31.7776 271.24 30.4458 270.595 28.8876C269.95 27.3294 269.781 25.6149 270.11 23.9608C270.439 22.3066 271.251 20.7872 272.443 19.5946C273.636 18.402 275.155 17.5899 276.81 17.2609C278.464 16.9318 280.178 17.1007 281.736 17.7461C283.295 18.3915 284.626 19.4845 285.563 20.8868C286.5 22.2891 287 23.9378 287 25.6243C286.998 27.8851 286.099 30.0526 284.5 31.6512C282.901 33.2499 280.734 34.1491 278.473 34.1517ZM278.473 17.9091C276.947 17.9091 275.456 18.3616 274.187 19.2094C272.918 20.0572 271.929 21.2621 271.345 22.6719C270.761 24.0816 270.609 25.6329 270.906 27.1295C271.204 28.6261 271.939 30.0008 273.018 31.0798C274.097 32.1588 275.471 32.8936 276.968 33.1913C278.465 33.489 280.016 33.3362 281.426 32.7523C282.835 32.1683 284.04 31.1794 284.888 29.9107C285.736 28.6419 286.188 27.1503 286.188 25.6243C286.186 23.5789 285.372 21.6178 283.926 20.1714C282.48 18.7251 280.519 17.9115 278.473 17.9091Z" fill="#3F3D56"/>
<path d="M278.473 28.8729C280.267 28.8729 281.722 27.4185 281.722 25.6244C281.722 23.8303 280.267 22.3759 278.473 22.3759C276.679 22.3759 275.225 23.8303 275.225 25.6244C275.225 27.4185 276.679 28.8729 278.473 28.8729Z" fill="#2B5AC9"/>
<path d="M151.953 199.056L152.738 199.265L135.48 263.692L36.0884 263.502L36.0901 262.69L134.857 262.879L151.953 199.056Z" fill="#3F3D56"/>
</g>
<defs>
<clipPath id="clip0">
<rect width="286" height="203" fill="white"/>
</clipPath>
</defs>
</svg>
