<svg width="372" height="246" viewBox="0 0 372 246" fill="none" xmlns="http://www.w3.org/2000/svg">
<path opacity="0.1" d="M365.072 190.886C355.871 209.867 337.188 222.559 317.827 230.929C291.761 242.201 263.056 246.672 234.746 244.781C229.785 244.451 224.838 243.923 219.907 243.198C202.78 240.7 186.083 235.837 170.293 228.751C165.735 226.698 161.271 224.458 156.898 222.029C149.595 217.981 142.597 213.404 135.961 208.336C134.291 207.062 132.645 205.755 131.022 204.416C129.897 203.488 128.782 202.539 127.649 201.618C125.26 199.675 122.801 197.829 120.059 196.448C119.231 196.031 118.383 195.656 117.517 195.326C108.832 192.022 98.8166 193.269 89.7747 195.845C82.8972 197.805 76.1928 200.489 69.3222 202.404C66.2662 203.282 63.1522 203.944 60.0033 204.385C52.973 205.275 45.8336 204.648 39.066 202.546L38.4877 202.366C37.5181 202.061 36.5565 201.728 35.603 201.365L35.0247 201.144C34.1013 200.788 33.1974 200.406 32.3132 199.997L31.7349 199.734C30.8114 199.305 29.9076 198.851 29.0234 198.373C28.7048 198.207 28.3896 198.027 28.078 197.857C23.0472 195.047 18.4742 191.487 14.5169 187.298C14.4026 187.184 14.2952 187.066 14.1706 186.952C13.62 186.357 13.0797 185.751 12.5568 185.131C12.3629 184.902 12.169 184.674 11.9785 184.438C11.3575 183.681 10.7584 182.906 10.1812 182.114C10.0946 182 10.0115 181.882 9.92841 181.768C7.56372 178.497 5.60329 174.951 4.0898 171.209C4.04131 171.095 3.9963 170.977 3.95474 170.863C3.49301 169.674 3.07168 168.466 2.69075 167.237C2.53491 166.725 2.386 166.198 2.25441 165.686C2.20939 165.534 2.16783 165.378 2.12974 165.225C0.218167 157.7 0 149.877 0 142.099C0 141.192 0 140.286 0 139.381C0.0554079 126.8 0.249334 114.004 2.1055 101.596C2.1055 101.51 2.12974 101.423 2.14359 101.34C2.76484 97.1629 3.60987 93.0221 4.67504 88.9356C5.78985 84.6477 7.21458 80.4464 8.93799 76.3649C13.2079 66.3222 19.417 57.1834 26.3118 48.7129C43.6788 27.3982 66.4549 9.50487 93.113 2.80744C121.839 -4.40598 153.764 2.50615 176.935 20.9535C183.999 26.5774 190.347 33.2368 198.281 37.5482C205.207 41.3021 213.314 42.857 220.731 39.903C226.861 37.4616 230.85 36.2496 237.735 36.6201C251.987 37.4264 266.037 40.3693 279.415 45.3503C279.955 45.5477 280.496 45.752 281.032 45.9563C315.908 59.2993 345.887 85.8085 361.471 119.874C361.884 120.774 362.285 121.682 362.673 122.596C371.964 144.298 375.323 169.734 365.072 190.886Z" fill="#2B5AC9"/>
<path d="M339.636 37.3127H19.1882C16.7994 37.3127 14.8629 39.2492 14.8629 41.638V219.411C14.8629 221.8 16.7994 223.736 19.1882 223.736H339.636C342.025 223.736 343.962 221.8 343.962 219.411V41.638C343.962 39.2492 342.025 37.3127 339.636 37.3127Z" fill="url(#paint0_linear)"/>
<path d="M339.152 39.9341H19.7113C17.3225 39.9341 15.386 41.8706 15.386 44.2594V218.791C15.386 221.18 17.3225 223.116 19.7113 223.116H339.152C341.541 223.116 343.477 221.18 343.477 218.791V44.2594C343.477 41.8706 341.541 39.9341 339.152 39.9341Z" fill="white"/>
<path d="M339.152 39.9341H19.7113C17.3225 39.9341 15.386 41.8706 15.386 44.2594V218.791C15.386 221.18 17.3225 223.116 19.7113 223.116H339.152C341.541 223.116 343.477 221.18 343.477 218.791V44.2594C343.477 41.8706 341.541 39.9341 339.152 39.9341Z" fill="white"/>
<path opacity="0.04" d="M339.152 39.9341H19.7113C17.3225 39.9341 15.386 41.8706 15.386 44.2594V218.791C15.386 221.18 17.3225 223.116 19.7113 223.116H339.152C341.541 223.116 343.477 221.18 343.477 218.791V44.2594C343.477 41.8706 341.541 39.9341 339.152 39.9341Z" fill="white"/>
<path d="M341.811 37.8321H17.0517C16.6099 37.8321 16.1863 38.0076 15.8739 38.32C15.5615 38.6324 15.386 39.0561 15.386 39.4978V46.5381H343.463V39.4978C343.463 39.0584 343.29 38.6369 342.98 38.3249C342.671 38.0129 342.251 37.8358 341.811 37.8321Z" fill="#5A5773"/>
<path d="M21.938 44.436C23.1812 44.436 24.1889 43.4283 24.1889 42.1851C24.1889 40.9419 23.1812 39.9341 21.938 39.9341C20.6948 39.9341 19.687 40.9419 19.687 42.1851C19.687 43.4283 20.6948 44.436 21.938 44.436Z" fill="white"/>
<path d="M27.9982 44.436C29.2414 44.436 30.2492 43.4283 30.2492 42.1851C30.2492 40.9419 29.2414 39.9341 27.9982 39.9341C26.7551 39.9341 25.7473 40.9419 25.7473 42.1851C25.7473 43.4283 26.7551 44.436 27.9982 44.436Z" fill="white"/>
<path d="M34.0584 44.436C35.3016 44.436 36.3093 43.4283 36.3093 42.1851C36.3093 40.9419 35.3016 39.9341 34.0584 39.9341C32.8152 39.9341 31.8074 40.9419 31.8074 42.1851C31.8074 43.4283 32.8152 44.436 34.0584 44.436Z" fill="white"/>
<path opacity="0.2" d="M130.455 62.9112H42.408V70.3844H130.455V62.9112Z" fill="#2B5AC9"/>
<path opacity="0.1" d="M316.456 92.8765H42.408V207.834H316.456V92.8765Z" fill="#5A5773"/>
<path opacity="0.1" d="M202.866 100.374H198.173V91.2593C198.173 80.9742 189.973 72.424 179.688 72.2682C177.208 72.2421 174.747 72.7071 172.447 73.6364C170.148 74.5657 168.055 75.9409 166.289 77.6827C164.524 79.4246 163.12 81.4986 162.16 83.7853C161.199 86.0721 160.701 88.5262 160.693 91.0065V100.374H156.011C153.942 100.38 151.96 101.205 150.496 102.668C149.033 104.131 148.209 106.114 148.202 108.183V145.659C148.209 147.729 149.033 149.711 150.496 151.174C151.96 152.637 153.942 153.462 156.011 153.468H202.866C204.934 153.462 206.917 152.637 208.379 151.174C209.842 149.711 210.666 147.728 210.671 145.659V108.183C210.666 106.114 209.842 104.132 208.379 102.668C206.917 101.205 204.934 100.38 202.866 100.374ZM182.174 124.736V138.159C182.179 138.869 181.913 139.555 181.431 140.077C180.948 140.599 180.286 140.919 179.577 140.971C179.207 140.988 178.837 140.93 178.49 140.8C178.143 140.671 177.826 140.472 177.558 140.216C177.29 139.96 177.076 139.653 176.931 139.312C176.785 138.972 176.71 138.605 176.71 138.235V124.729C175.443 124.111 174.423 123.082 173.816 121.81C173.209 120.538 173.051 119.098 173.368 117.724C173.685 116.351 174.458 115.126 175.561 114.248C176.664 113.371 178.032 112.893 179.442 112.893C180.851 112.893 182.219 113.371 183.322 114.248C184.425 115.126 185.198 116.351 185.515 117.724C185.833 119.098 185.675 120.538 185.068 121.81C184.461 123.082 183.441 124.111 182.174 124.729V124.736ZM192.715 100.374H166.158V91.0065C166.158 87.4861 167.556 84.1099 170.046 81.6206C172.535 79.1313 175.911 77.7328 179.431 77.7328C182.952 77.7328 186.328 79.1313 188.817 81.6206C191.307 84.1099 192.705 87.4861 192.705 91.0065L192.715 100.374Z" fill="black"/>
<path d="M202.866 99.6813H198.173V90.5667C198.173 80.2816 189.973 71.7314 179.688 71.5756C177.208 71.5495 174.747 72.0146 172.447 72.9438C170.148 73.8731 168.055 75.2483 166.289 76.9902C164.524 78.732 163.12 80.806 162.16 83.0927C161.199 85.3795 160.701 87.8336 160.693 90.3139V99.6813H156.011C153.942 99.6877 151.96 100.512 150.496 101.976C149.033 103.439 148.209 105.421 148.202 107.49V144.967C148.209 147.036 149.033 149.019 150.496 150.482C151.96 151.945 153.942 152.77 156.011 152.776H202.866C204.934 152.769 206.917 151.945 208.379 150.481C209.842 149.018 210.666 147.036 210.671 144.967V107.49C210.666 105.422 209.842 103.439 208.379 101.976C206.917 100.513 204.934 99.6877 202.866 99.6813V99.6813ZM182.174 124.043V137.466C182.179 138.177 181.913 138.863 181.431 139.385C180.948 139.907 180.286 140.226 179.577 140.278C179.207 140.295 178.837 140.237 178.49 140.108C178.143 139.978 177.826 139.779 177.558 139.524C177.29 139.268 177.076 138.96 176.931 138.62C176.785 138.279 176.71 137.913 176.71 137.542V124.037C175.443 123.419 174.423 122.39 173.816 121.118C173.209 119.845 173.051 118.405 173.368 117.032C173.685 115.658 174.458 114.433 175.561 113.556C176.664 112.678 178.032 112.2 179.442 112.2C180.851 112.2 182.219 112.678 183.322 113.556C184.425 114.433 185.198 115.658 185.515 117.032C185.833 118.405 185.675 119.845 185.068 121.118C184.461 122.39 183.441 123.419 182.174 124.037V124.043ZM192.715 99.6813H166.158V90.3139C166.158 86.7935 167.556 83.4173 170.046 80.928C172.535 78.4387 175.911 77.0402 179.431 77.0402C182.952 77.0402 186.328 78.4387 188.817 80.928C191.307 83.4173 192.705 86.7935 192.705 90.3139L192.715 99.6813Z" fill="#2B5AC9"/>
<path opacity="0.1" d="M316.455 81.8122H288.716V88.3607H316.455V81.8122Z" fill="#5A5773"/>
<defs>
<linearGradient id="paint0_linear" x1="179.411" y1="223.736" x2="179.411" y2="37.3127" gradientUnits="userSpaceOnUse">
<stop stop-color="#808080" stop-opacity="0.25"/>
<stop offset="0.54" stop-color="#808080" stop-opacity="0.12"/>
<stop offset="1" stop-color="#808080" stop-opacity="0.1"/>
</linearGradient>
</defs>
</svg>
