<svg width="740" height="622" viewBox="0 0 740 622" fill="none" xmlns="http://www.w3.org/2000/svg">
<path d="M262.809 415.644C262.762 415.644 262.716 415.635 262.673 415.617C262.63 415.599 262.591 415.573 262.558 415.54C262.525 415.507 262.499 415.468 262.481 415.425C262.463 415.382 262.454 415.336 262.454 415.289V381.682C262.455 381.589 262.493 381.5 262.56 381.435C262.626 381.369 262.716 381.333 262.809 381.333C262.902 381.333 262.991 381.369 263.058 381.435C263.124 381.5 263.162 381.589 263.164 381.682V415.289C263.164 415.336 263.155 415.382 263.137 415.425C263.119 415.468 263.093 415.507 263.06 415.54C263.027 415.573 262.988 415.599 262.945 415.617C262.902 415.635 262.856 415.644 262.809 415.644Z" fill="black"/>
<path d="M298.168 355.032C297.404 356.331 296.505 357.545 295.486 358.654C294.507 359.797 293.434 360.847 292.38 361.918C290.206 363.987 287.974 366.002 285.626 367.875C280.942 371.645 275.979 375.055 270.78 378.073C265.585 381.132 260.095 383.659 254.393 385.614C251.531 386.588 248.602 387.352 245.629 387.898C244.123 388.079 242.623 388.374 241.111 388.458C239.598 388.501 238.083 388.57 236.569 388.59C230.535 388.386 224.539 387.536 218.686 386.054C212.842 384.639 207.09 382.871 201.461 380.758C195.827 378.685 190.295 376.355 184.791 374.002C183.414 373.421 182.034 372.828 180.647 372.322C179.969 372.083 179.237 371.835 178.511 371.534C178.175 371.337 177.822 371.166 177.501 370.947C177.186 370.719 176.885 370.472 176.599 370.209C175.506 369.114 174.685 367.777 174.203 366.307C173.713 364.858 173.441 363.344 173.399 361.815L173.402 361.859C169.796 342.072 165.165 322.486 159.528 303.179C156.785 293.508 153.721 283.932 150.573 274.39C147.42 264.848 144.058 255.38 140.487 245.985C138.686 241.296 136.881 236.608 134.989 231.957C134.073 229.624 133 227.356 132.207 224.887C131.422 222.439 130.909 219.912 130.677 217.352C130.548 216.055 130.511 214.75 130.568 213.448C130.711 212.038 131.293 210.708 132.231 209.646C133.168 208.584 134.415 207.843 135.796 207.527C137.049 207.213 138.326 207.002 139.614 206.897C142.217 206.723 144.828 207.081 147.287 207.95L154.45 210.302L183.101 219.711C184.328 220.063 185.524 220.512 186.68 221.053C187.836 221.635 188.896 222.392 189.822 223.297C191.695 225.104 192.917 227.481 193.298 230.057L195.424 244.999C195.427 245.017 195.422 245.036 195.411 245.05C195.4 245.065 195.383 245.075 195.365 245.078C195.346 245.081 195.328 245.076 195.313 245.066C195.297 245.055 195.287 245.039 195.284 245.02L192.781 230.142C192.351 227.71 191.147 225.481 189.35 223.789C188.463 222.946 187.452 222.244 186.353 221.708C185.224 221.2 184.057 220.782 182.862 220.458L154.086 211.438L146.892 209.183C144.587 208.399 142.146 208.096 139.72 208.291C138.504 208.411 137.298 208.62 136.113 208.916C135.025 209.168 134.044 209.754 133.307 210.592C132.57 211.431 132.113 212.479 132.002 213.59C131.959 214.801 131.999 216.013 132.121 217.219C132.349 219.672 132.846 222.093 133.604 224.437C134.351 226.76 135.436 229.052 136.363 231.395C138.268 236.058 140.103 240.747 141.869 245.463C148.928 264.325 155.112 283.48 160.421 302.928C163.073 312.637 165.547 322.396 167.741 332.217C170.056 342.012 171.958 351.895 173.89 361.771L173.893 361.796L173.894 361.815C173.885 364.771 174.987 367.623 176.981 369.803C177.247 370.045 177.527 370.271 177.82 370.48C178.116 370.682 178.446 370.83 178.757 371.008C179.417 371.266 180.109 371.493 180.847 371.736C182.281 372.232 183.665 372.799 185.056 373.358C190.606 375.618 196.157 377.844 201.799 379.816C207.429 381.799 213.158 383.488 218.963 384.877C224.743 386.284 230.649 387.111 236.593 387.346C238.072 387.335 239.551 387.277 241.03 387.245C242.506 387.174 243.958 386.894 245.425 386.73C248.346 386.213 251.225 385.482 254.039 384.544C259.681 382.63 265.131 380.191 270.318 377.26C275.526 374.338 280.512 371.036 285.237 367.382C287.623 365.582 289.896 363.64 292.115 361.639C293.191 360.603 294.288 359.586 295.29 358.478C296.328 357.408 297.251 356.231 298.042 354.967L298.046 354.959C298.056 354.943 298.071 354.932 298.089 354.927C298.108 354.922 298.127 354.925 298.143 354.935C298.159 354.944 298.171 354.96 298.175 354.978C298.18 354.996 298.177 355.016 298.168 355.032Z" fill="black"/>
<path d="M136.385 214.016L147.252 217.833L158.093 221.723L168.921 225.648L179.729 229.624C179.821 229.657 179.903 229.713 179.968 229.786C180.033 229.859 180.079 229.947 180.102 230.042L180.104 230.053C182.265 239.306 184.342 248.579 186.335 257.872C188.346 267.16 190.274 276.467 192.364 285.737C196.478 304.292 200.972 322.761 205.315 341.264C206.351 345.831 208.243 350.159 210.892 354.02C213.535 357.862 216.993 361.072 221.019 363.422C225.057 365.721 229.61 366.961 234.256 367.027C236.601 367.012 238.944 366.875 241.275 366.616C243.622 366.363 245.968 366.1 248.292 365.714C252.947 365.003 257.526 363.86 261.969 362.299C266.401 360.674 270.706 358.721 274.848 356.455C279.026 354.231 283.105 351.805 287.146 349.318C291.207 346.861 295.231 344.337 299.258 341.819C299.274 341.809 299.293 341.806 299.311 341.81C299.329 341.814 299.345 341.825 299.355 341.84C299.365 341.856 299.369 341.875 299.365 341.893C299.362 341.912 299.351 341.928 299.335 341.938C291.462 347.25 283.626 352.636 275.327 357.329C271.183 359.711 266.858 361.762 262.392 363.463C257.898 365.13 253.253 366.355 248.522 367.122C246.162 367.522 243.79 367.796 241.418 368.059C239.031 368.331 236.631 368.479 234.228 368.5C229.33 368.461 224.525 367.154 220.281 364.706C216.137 362.168 212.565 358.798 209.788 354.809C207.011 350.82 205.09 346.298 204.147 341.529C200.086 322.962 196.176 304.36 191.887 285.845C189.775 276.58 187.502 267.352 185.311 258.104C183.111 248.859 180.987 239.597 178.936 230.318L179.311 230.746L168.539 226.671L157.787 222.545L147.048 218.383L136.335 214.149C136.318 214.142 136.304 214.129 136.296 214.112C136.289 214.095 136.288 214.076 136.295 214.058C136.301 214.041 136.314 214.027 136.331 214.019C136.348 214.011 136.367 214.01 136.385 214.016Z" fill="black"/>
<path d="M261.91 159.218C258.933 157.409 258.183 151.959 260.478 148.31C263.372 143.71 266.607 152.059 266.607 152.059C271.885 159.897 282.611 138.939 282.611 138.939C282.611 138.939 274.098 128.204 254.689 135.36C235.28 142.517 248.56 166.883 248.56 166.883C248.56 166.883 228.299 176.425 235.109 201.814C235.109 201.814 253.214 197.598 252.135 167.357C252.135 167.357 259.712 164.37 261.91 159.218Z" fill="black"/>
<path d="M264.032 159.759C262.95 160.026 261.806 159.862 260.842 159.301C260.802 159.277 260.767 159.245 260.739 159.207C260.711 159.169 260.691 159.126 260.68 159.08C260.669 159.034 260.667 158.987 260.674 158.941C260.681 158.894 260.698 158.85 260.722 158.809C260.746 158.769 260.778 158.734 260.816 158.706C260.854 158.679 260.897 158.659 260.943 158.648C260.989 158.636 261.036 158.634 261.082 158.642C261.129 158.649 261.173 158.665 261.213 158.689C261.239 158.706 261.263 158.725 261.285 158.747C262.037 159.424 263.02 159.786 264.032 159.759Z" fill="black"/>
<path d="M282.059 140.035C283.215 141.886 284.12 143.884 284.749 145.975C285.422 148.094 285.676 150.323 285.497 152.539L285.361 152.137C286.008 152.818 286.64 153.514 287.263 154.218L289.131 156.369C289.295 156.586 289.413 156.835 289.477 157.099C289.542 157.363 289.552 157.638 289.506 157.906C289.461 158.175 289.362 158.431 289.214 158.659C289.066 158.888 288.874 159.084 288.648 159.235C288.264 159.529 287.854 159.787 287.422 160.005C287.2 160.144 286.949 160.232 286.688 160.262C286.427 160.291 286.163 160.262 285.915 160.176L286.162 160.028C286.134 163.094 285.812 166.15 285.201 169.155C284.881 170.723 284.217 172.2 283.255 173.479C282.693 174.178 281.899 174.653 281.016 174.819C280.573 174.87 280.124 174.852 279.686 174.765L278.593 174.577C277.17 174.321 275.714 174.322 274.291 174.578C272.893 174.869 271.599 175.532 270.546 176.498C268.495 178.676 266.911 181.253 265.895 184.068C265.889 184.082 265.878 184.093 265.865 184.1C265.851 184.106 265.835 184.106 265.821 184.101C265.808 184.095 265.798 184.085 265.792 184.073C265.786 184.061 265.784 184.046 265.787 184.033C266.154 182.543 266.66 181.091 267.298 179.696C267.923 178.256 268.796 176.938 269.877 175.8C271.007 174.628 272.452 173.807 274.036 173.437C275.6 173.106 277.214 173.091 278.784 173.391L279.929 173.624C280.235 173.695 280.549 173.719 280.861 173.697C281.487 173.59 282.054 173.262 282.46 172.774C283.354 171.635 284.007 170.326 284.378 168.926C285.25 166.035 285.736 163.041 285.822 160.022C285.824 159.977 285.844 159.933 285.877 159.902C285.911 159.871 285.955 159.855 286.001 159.856C286.025 159.857 286.048 159.863 286.07 159.873C286.27 159.928 286.48 159.938 286.685 159.905C286.891 159.871 287.086 159.794 287.259 159.678C287.66 159.459 288.036 159.197 288.381 158.897C288.542 158.779 288.676 158.628 288.776 158.456C288.876 158.283 288.939 158.091 288.961 157.892C288.984 157.694 288.964 157.493 288.905 157.302C288.845 157.111 288.747 156.935 288.616 156.784L286.611 154.838C285.94 154.18 285.277 153.514 284.629 152.833C284.581 152.782 284.544 152.722 284.52 152.656C284.496 152.59 284.487 152.519 284.492 152.45L284.493 152.43C284.583 151.391 284.581 150.346 284.485 149.307C284.377 148.256 284.203 147.213 283.967 146.183C283.471 144.098 282.8 142.06 281.96 140.089C281.957 140.083 281.955 140.075 281.955 140.068C281.955 140.06 281.956 140.053 281.958 140.046C281.961 140.039 281.964 140.032 281.969 140.027C281.974 140.021 281.98 140.017 281.987 140.014C282 140.008 282.014 140.008 282.027 140.011C282.04 140.015 282.051 140.023 282.059 140.035Z" fill="black"/>
<path d="M278.993 148.395C279.634 147.749 280.491 147.363 281.399 147.313C282.296 147.226 283.197 147.426 283.973 147.884C283.078 147.953 282.272 147.947 281.461 148.02C280.631 148.093 279.807 148.218 278.993 148.395Z" fill="black"/>
<path d="M281.164 152.783C281.44 152.774 281.701 152.657 281.893 152.459C282.085 152.26 282.192 151.994 282.192 151.718C282.192 151.442 282.085 151.177 281.893 150.978C281.701 150.779 281.44 150.663 281.164 150.653C280.888 150.663 280.627 150.779 280.435 150.978C280.243 151.177 280.136 151.442 280.136 151.718C280.136 151.994 280.243 152.26 280.435 152.459C280.627 152.657 280.888 152.774 281.164 152.783Z" fill="black"/>
<path d="M267.373 165.009C268.365 166.216 269.269 167.437 270.234 168.608C271.182 169.799 272.233 170.904 273.375 171.91C271.917 171.299 270.644 170.316 269.686 169.058C268.687 167.852 267.905 166.482 267.373 165.009Z" fill="black"/>
<path d="M194.531 240.389C195.236 237.114 196.092 233.933 197.016 230.74C197.952 227.557 198.929 224.382 200.06 221.26C202.259 214.976 204.887 208.851 207.926 202.929C209.475 199.967 211.188 197.093 213.055 194.321C214.909 191.512 217.008 188.873 219.327 186.435C221.647 183.936 224.325 181.795 227.274 180.083C230.281 178.345 233.65 177.327 237.116 177.108L237.125 177.107C237.184 177.105 237.243 177.107 237.301 177.115C240.654 177.605 243.976 178.182 247.293 178.837C250.609 179.484 253.917 180.185 257.204 180.998C260.535 181.739 263.79 182.792 266.924 184.143C268.477 184.914 269.886 185.729 271.416 186.459L275.976 188.643C277.515 189.371 279.004 190.2 280.435 191.123C281.905 192.046 283.177 193.254 284.176 194.674C286.139 197.359 288.443 199.855 290.649 202.387C295.11 207.432 299.658 212.401 304.292 217.294C304.37 217.377 304.42 217.483 304.433 217.595C304.447 217.708 304.424 217.823 304.368 217.922L304.364 217.929C302.645 220.959 300.791 223.877 298.843 226.751C296.892 229.619 294.82 232.412 292.598 235.094C290.37 237.795 287.926 240.31 285.29 242.615C282.622 245.034 279.489 246.882 276.081 248.044L276.535 247.774C274.073 250.28 271.554 252.686 268.898 254.993C267.567 256.142 266.205 257.262 264.749 258.306C264.01 258.844 263.24 259.336 262.442 259.781C261.521 260.357 260.466 260.68 259.381 260.72L260.573 259.332C261.138 261.811 261.724 264.294 262.339 266.76L263.289 270.442C263.45 271.052 263.619 271.659 263.795 272.251C263.95 272.801 264.135 273.341 264.352 273.87L264.377 273.927C264.441 274.069 264.475 274.222 264.48 274.377C264.484 274.533 264.457 274.687 264.402 274.832C264.346 274.977 264.263 275.11 264.156 275.223C264.049 275.336 263.921 275.427 263.779 275.49C263.662 275.542 263.536 275.575 263.408 275.587C255.498 276.331 247.601 276.838 239.672 277.115C231.728 277.439 223.772 277.256 215.851 276.568C213.866 276.361 211.881 276.11 209.904 275.73C207.896 275.386 205.93 274.827 204.041 274.062C203.05 273.657 202.125 273.107 201.295 272.43C200.856 272.053 200.482 271.608 200.186 271.111C199.902 270.61 199.746 270.173 199.521 269.701C198.724 267.852 198.072 265.944 197.571 263.994C196.585 260.137 195.871 256.215 195.433 252.258C194.971 248.31 194.666 244.381 194.531 240.389ZM194.756 240.411C195.343 248.27 196.684 256.054 198.761 263.656C199.304 265.522 199.992 267.342 200.818 269.101C201.031 269.514 201.236 270.004 201.454 270.354C201.678 270.699 201.956 271.007 202.277 271.264C203.004 271.811 203.806 272.248 204.659 272.564C208.336 273.772 212.158 274.487 216.023 274.692C223.87 275.184 231.738 275.232 239.59 274.835C247.458 274.527 255.341 273.986 263.166 273.218L262.223 274.935C261.94 274.288 261.701 273.622 261.509 272.943C261.318 272.313 261.142 271.689 260.975 271.066C260.631 269.819 260.336 268.57 260.036 267.323C259.442 264.826 258.882 262.332 258.34 259.824C258.308 259.677 258.305 259.525 258.332 259.376C258.359 259.228 258.415 259.087 258.496 258.96C258.578 258.833 258.684 258.724 258.807 258.638C258.931 258.553 259.07 258.492 259.218 258.46C259.321 258.438 259.427 258.43 259.532 258.436C260.185 258.355 260.812 258.135 261.372 257.791C262.095 257.397 262.793 256.96 263.464 256.483C264.841 255.519 266.178 254.447 267.487 253.341C270.1 251.122 272.634 248.755 275.066 246.334L275.074 246.326C275.199 246.203 275.353 246.113 275.521 246.064C278.672 245.019 281.584 243.358 284.087 241.177C286.688 238.984 289.111 236.587 291.332 234.009C293.59 231.442 295.715 228.747 297.728 225.967C299.74 223.189 301.662 220.324 303.423 217.393L303.495 218.028C299.021 212.981 294.53 207.955 290.09 202.878C287.887 200.317 285.669 197.801 283.591 195.089C281.703 192.38 278.594 190.855 275.609 189.403C272.585 187.987 269.45 186.597 266.462 185.115C263.363 183.9 260.158 182.978 256.889 182.358C250.337 180.941 243.667 179.987 237.036 179.007L237.221 179.015C234.056 179.249 230.988 180.213 228.258 181.831C225.492 183.472 222.96 185.478 220.728 187.794C218.454 190.127 216.392 192.658 214.565 195.357C212.701 198.054 210.988 200.852 209.434 203.739C206.285 209.528 203.516 215.516 201.145 221.665C198.734 227.802 196.582 234.086 194.756 240.411Z" fill="black"/>
<path d="M275.801 247.054C274.994 245.216 274.237 243.363 273.47 241.515C272.701 239.668 271.976 237.805 271.178 235.973C270.437 234.117 269.642 232.285 268.816 230.471C268.416 229.557 267.981 228.662 267.509 227.785C267.29 227.339 267.043 226.907 266.769 226.492C266.64 226.281 266.499 226.076 266.348 225.879L265.841 225.329C267.306 226.719 268.484 228.385 269.306 230.231C270.242 232.013 271.037 233.858 271.832 235.7C272.579 237.563 273.316 239.428 273.978 241.321C274.64 243.214 275.27 245.118 275.801 247.054Z" fill="black"/>
<path d="M264.564 282.426C264.497 282.426 264.431 282.407 264.374 282.371C264.317 282.334 264.272 282.283 264.243 282.222L260.733 274.765C260.713 274.723 260.701 274.677 260.699 274.63C260.696 274.584 260.703 274.537 260.719 274.493C260.735 274.449 260.759 274.408 260.79 274.374C260.822 274.339 260.86 274.311 260.902 274.291C260.944 274.271 260.99 274.26 261.037 274.257C261.084 274.255 261.13 274.262 261.174 274.278C261.218 274.294 261.258 274.319 261.293 274.35C261.327 274.382 261.355 274.42 261.375 274.462L264.885 281.919C264.911 281.974 264.922 282.033 264.918 282.093C264.914 282.153 264.896 282.21 264.864 282.261C264.832 282.311 264.787 282.353 264.735 282.382C264.683 282.411 264.624 282.426 264.564 282.426Z" fill="black"/>
<path d="M200.852 271.08L205.137 286.862C202.895 278.946 201.306 272.833 200.852 271.08Z" fill="black"/>
<path d="M352.161 370.254C349.765 374.472 350.873 383.146 350.376 386.098C349.7 390.272 348.115 394.245 345.731 397.735C345.087 392.77 344.33 387.817 343.55 382.864C342.771 377.922 341.889 372.991 341.076 368.049C340.16 363.129 339.302 358.187 338.341 353.279L336.883 345.906C336.352 343.452 335.866 340.997 335.301 338.555C335.618 341.043 335.991 343.519 336.341 346.007L337.482 353.426C338.262 358.38 339.132 363.31 339.957 368.241C340.872 373.172 341.731 378.103 342.692 383.022C343.652 387.93 344.624 392.85 345.731 397.735C340.375 405.595 331.358 410.56 321.301 414.348C313.765 417.17 306.004 419.349 298.102 420.862C292.316 369.994 301.345 334.212 301.345 334.212C301.345 334.212 300.317 332.934 296.746 332.934C293.164 332.934 283.208 338.815 283.208 338.815C245.41 361.818 233.658 349.038 224.72 339.324C218.855 332.946 210.323 305.238 205.171 287.008C239.907 299.787 259.196 282.066 262.812 282.066C263.953 282.066 269.547 281.478 277.344 280.731C278.262 281.67 278.977 282.788 279.444 284.016C279.91 285.244 280.119 286.555 280.056 287.867C283.288 292.459 287.209 284.791 285.502 282.066C285.12 281.441 284.823 280.768 284.621 280.064C286.169 279.928 287.774 279.782 289.412 279.646C292.135 283.378 295.288 288.897 298.102 291.611C303.04 296.383 303.899 288.716 303.899 288.716C310.023 293.149 310.023 285.312 310.023 285.312C315.47 288.546 313.594 280.731 313.594 280.731C313.968 280.406 314.244 279.983 314.392 279.51C314.539 279.037 314.553 278.532 314.43 278.051C321.386 277.705 328.358 277.803 335.301 278.345C356.5 280.494 376.682 342.389 376.682 342.389C377.45 353.381 360.839 354.919 352.161 370.254Z" fill="black"/>
<path d="M230.9 387.597C231.691 392.53 232.178 397.487 232.692 402.442C233.17 407.4 233.397 412.378 233.705 417.348L234.648 432.26L235.521 447.177C235.522 447.196 235.516 447.214 235.503 447.228C235.491 447.242 235.474 447.251 235.455 447.252C235.437 447.254 235.419 447.248 235.404 447.236C235.39 447.224 235.381 447.207 235.379 447.188L233.941 432.315L232.574 417.436C232.113 412.477 231.57 407.525 231.278 402.552C231.022 397.577 230.739 392.604 230.759 387.608C230.759 387.59 230.766 387.572 230.778 387.559C230.79 387.546 230.807 387.538 230.825 387.537C230.842 387.535 230.86 387.541 230.874 387.552C230.888 387.563 230.898 387.579 230.9 387.597Z" fill="black"/>
<path d="M246.417 387.202C246.916 392.193 247.111 397.19 247.332 402.185C247.518 407.182 247.452 412.183 247.467 417.183L247.531 432.181L247.524 447.182C247.524 447.2 247.517 447.218 247.504 447.231C247.491 447.245 247.473 447.252 247.454 447.253C247.436 447.253 247.418 447.246 247.404 447.233C247.391 447.22 247.383 447.203 247.382 447.184L246.822 432.194L246.332 417.204C246.164 412.207 245.913 407.211 245.914 402.212C245.951 397.211 245.961 392.211 246.276 387.205C246.277 387.187 246.285 387.171 246.298 387.158C246.31 387.146 246.328 387.139 246.345 387.139C246.363 387.138 246.38 387.145 246.394 387.157C246.407 387.168 246.415 387.185 246.417 387.202Z" fill="black"/>
<path d="M241.274 459.147C260.597 459.147 276.262 452.796 276.262 444.961C276.262 437.127 260.597 430.776 241.274 430.776C221.95 430.776 206.286 437.127 206.286 444.961C206.286 452.796 221.95 459.147 241.274 459.147Z" fill="black"/>
<path d="M259.456 259.578C258.715 260.105 257.855 260.44 256.953 260.553C256.489 260.618 256.017 260.6 255.559 260.501C255.314 260.467 255.085 260.361 254.9 260.197C254.715 260.033 254.582 259.817 254.519 259.578C254.669 259.714 254.846 259.817 255.038 259.882C255.231 259.946 255.434 259.97 255.636 259.952C256.046 259.942 256.456 259.908 256.863 259.849C257.722 259.713 258.588 259.623 259.456 259.578Z" fill="black"/>
<path d="M275.033 247.806C278.768 250.228 282.492 252.67 286.259 255.017C287.203 255.597 288.151 256.176 289.113 256.709C289.589 256.989 290.078 257.226 290.555 257.478C290.782 257.572 291.049 257.712 291.241 257.772C291.327 257.792 291.411 257.817 291.493 257.847C291.682 257.882 291.874 257.927 292.061 257.979C293.122 258.426 294.149 258.952 295.133 259.55C296.103 260.118 297.058 260.704 297.999 261.309C301.796 263.693 305.39 266.386 308.745 269.361C310.466 270.85 311.985 272.559 313.262 274.443L313.693 275.212L314.04 275.965C314.298 276.483 314.52 277.018 314.702 277.566C314.884 278.161 314.91 278.792 314.777 279.4C314.626 280.011 314.287 280.559 313.806 280.965L313.899 280.663C314.043 281.385 314.133 282.117 314.168 282.853C314.224 283.607 314.134 284.364 313.903 285.084C313.843 285.276 313.748 285.456 313.624 285.615L313.439 285.862L313.18 286.051C313.009 286.176 312.81 286.256 312.6 286.283C312.404 286.331 312.199 286.337 312 286.301C311.619 286.257 311.246 286.159 310.893 286.01L309.909 285.499L310.245 285.308C310.22 286.14 310.091 286.966 309.861 287.767C309.656 288.61 309.169 289.359 308.481 289.889C308.103 290.116 307.677 290.254 307.237 290.292C306.798 290.33 306.355 290.266 305.944 290.106C305.549 289.959 305.164 289.789 304.79 289.597L303.737 288.932L304.159 288.745C304.049 290.085 303.603 291.375 302.862 292.496C302.646 292.798 302.365 293.047 302.039 293.225C301.714 293.404 301.352 293.507 300.982 293.526L300.421 293.483C300.247 293.44 300.082 293.372 299.912 293.315C299.585 293.196 299.274 293.035 298.988 292.837C297.912 292.066 296.947 291.149 296.122 290.113C295.29 289.115 294.512 288.083 293.769 287.031C292.281 284.931 290.886 282.779 289.402 280.722C288.688 279.697 287.908 278.719 287.067 277.795C286.684 277.37 286.242 277.001 285.754 276.702C285.581 276.588 285.381 276.523 285.173 276.511C285.027 276.513 284.888 276.572 284.784 276.675L285 276.273C284.853 277.635 285.011 279.013 285.462 280.307C285.577 280.624 285.714 280.932 285.872 281.23C285.951 281.378 286.035 281.523 286.124 281.664C286.227 281.864 286.333 282.095 286.428 282.314C286.679 283.148 286.728 284.03 286.573 284.887C286.308 286.539 285.507 288.059 284.294 289.21C283.935 289.546 283.499 289.789 283.025 289.919C282.551 290.049 282.052 290.061 281.572 289.954C280.697 289.657 279.948 289.071 279.448 288.293C279.353 288.18 279.304 288.035 279.31 287.887L279.314 287.801C279.386 286.108 278.992 284.427 278.173 282.944C277.964 282.58 277.727 282.233 277.466 281.905C277.195 281.562 276.937 281.319 276.579 280.924C275.91 280.201 275.355 279.38 274.933 278.489C274.156 276.743 273.694 274.873 273.569 272.966C273.425 271.108 273.441 269.241 273.617 267.385L273.648 267.591C273.082 266.511 272.241 265.601 271.209 264.953C270.146 264.252 268.981 263.719 267.757 263.372C266.522 262.995 265.255 262.733 263.972 262.589C263.326 262.539 262.679 262.473 262.03 262.437L260.076 262.389C260.058 262.39 260.039 262.383 260.025 262.37C260.012 262.358 260.003 262.34 260.003 262.321C260.003 262.303 260.01 262.285 260.023 262.271C260.035 262.258 260.052 262.249 260.07 262.248L262.035 262.154C262.691 262.149 263.347 262.18 264.006 262.191C265.328 262.263 266.64 262.456 267.926 262.768C269.236 263.076 270.489 263.586 271.641 264.281C272.226 264.636 272.77 265.055 273.263 265.531C273.792 266.017 274.228 266.597 274.548 267.241C274.572 267.29 274.583 267.344 274.582 267.399L274.58 267.447C274.491 269.25 274.534 271.056 274.711 272.852C274.869 274.609 275.336 276.324 276.09 277.918C276.474 278.677 276.971 279.373 277.564 279.982C277.824 280.262 278.242 280.645 278.545 281.015C278.866 281.394 279.155 281.8 279.407 282.229C280.397 283.959 280.88 285.934 280.8 287.926L280.667 287.434C281.068 287.906 281.503 288.418 281.956 288.484C282.2 288.528 282.452 288.512 282.689 288.436C282.925 288.361 283.14 288.229 283.314 288.052C284.253 287.129 284.873 285.932 285.085 284.632C285.196 284.026 285.176 283.403 285.025 282.806L284.867 282.444C284.761 282.269 284.661 282.092 284.569 281.911C284.384 281.551 284.225 281.178 284.092 280.796C283.579 279.271 283.42 277.649 283.628 276.054C283.646 275.906 283.716 275.769 283.825 275.668L283.844 275.651C284.212 275.314 284.695 275.129 285.195 275.135C285.63 275.153 286.052 275.283 286.421 275.514C287.025 275.887 287.569 276.348 288.038 276.88C288.908 277.861 289.712 278.899 290.446 279.985C291.905 282.119 293.241 284.302 294.66 286.417C295.371 287.472 296.083 288.523 296.856 289.519C297.589 290.518 298.454 291.411 299.428 292.175C299.661 292.352 299.915 292.496 300.186 292.605C300.317 292.653 300.448 292.716 300.579 292.755L300.975 292.798C301.243 292.79 301.505 292.721 301.742 292.597C301.979 292.472 302.185 292.296 302.345 292.08C303.046 291.072 303.487 289.906 303.628 288.686C303.64 288.614 303.679 288.549 303.739 288.507C303.798 288.464 303.871 288.446 303.943 288.458C303.981 288.464 304.017 288.478 304.05 288.499L305.042 289.145C305.386 289.326 305.739 289.487 306.1 289.629C306.44 289.77 306.808 289.832 307.175 289.809C307.543 289.786 307.9 289.679 308.22 289.495C308.824 289.031 309.254 288.376 309.44 287.636C309.673 286.882 309.795 286.097 309.8 285.308C309.801 285.27 309.811 285.233 309.83 285.2C309.848 285.167 309.875 285.139 309.907 285.12C309.939 285.1 309.976 285.089 310.014 285.087C310.051 285.085 310.089 285.093 310.123 285.11L310.136 285.116L311.071 285.583C311.38 285.707 311.706 285.787 312.038 285.822C312.341 285.868 312.651 285.799 312.906 285.629C313.162 285.459 313.345 285.2 313.42 284.902C313.613 284.247 313.68 283.561 313.617 282.881C313.574 282.182 313.467 281.488 313.297 280.808C313.284 280.754 313.286 280.697 313.302 280.644C313.318 280.591 313.349 280.543 313.39 280.506C313.75 280.164 313.998 279.722 314.103 279.237C314.207 278.752 314.163 278.247 313.976 277.788C313.784 277.288 313.557 276.803 313.297 276.335L312.915 275.587L312.498 274.917C311.198 273.168 309.676 271.595 307.971 270.238C304.583 267.397 301.035 264.752 297.346 262.315C295.554 261.076 293.672 259.973 291.715 259.017C291.633 258.997 291.553 258.97 291.477 258.934C291.32 258.9 291.102 258.856 290.92 258.804C290.587 258.69 290.362 258.557 290.079 258.433C289.574 258.162 289.077 257.881 288.603 257.582C287.641 256.998 286.712 256.379 285.783 255.758C282.077 253.269 278.484 250.637 274.951 247.921C274.937 247.91 274.927 247.894 274.924 247.875C274.921 247.857 274.926 247.839 274.936 247.824C274.947 247.809 274.963 247.798 274.981 247.795C274.999 247.792 275.018 247.795 275.033 247.806Z" fill="black"/>
<path d="M290.954 273.21C293.427 275.509 295.771 277.943 297.977 280.5C300.202 283.051 302.277 285.729 304.19 288.521C304.242 288.599 304.261 288.694 304.243 288.785C304.225 288.877 304.172 288.958 304.096 289.01C304.019 289.063 303.924 289.084 303.833 289.067C303.741 289.051 303.659 288.999 303.605 288.923L303.597 288.91C301.793 286.071 299.826 283.339 297.706 280.728C295.594 278.1 293.34 275.59 290.954 273.21Z" fill="black"/>
<path d="M298.105 271.676C302.394 275.939 306.465 280.417 310.303 285.09C310.361 285.163 310.389 285.257 310.379 285.35C310.369 285.443 310.322 285.528 310.25 285.587C310.177 285.646 310.084 285.674 309.991 285.665C309.898 285.656 309.812 285.61 309.753 285.538L309.742 285.525C306.098 280.716 302.214 276.094 298.105 271.676Z" fill="black"/>
<path d="M303.213 270.568C305.036 272.166 306.844 273.782 308.637 275.415L311.303 277.894C312.18 278.74 313.055 279.571 313.876 280.514C313.938 280.585 313.969 280.678 313.962 280.772C313.956 280.866 313.912 280.954 313.841 281.016C313.77 281.077 313.678 281.109 313.584 281.102C313.49 281.096 313.403 281.052 313.341 280.981L313.33 280.969L313.321 280.956C312.594 280.034 311.753 279.148 310.927 278.271L308.392 275.671C306.683 273.954 304.957 272.253 303.213 270.568Z" fill="black"/>
<path d="M282.158 243.863C283.072 245 284.089 246.051 285.195 247.002C286.283 247.989 287.386 248.961 288.504 249.917L295.267 255.589C299.785 259.36 304.404 263.019 308.969 266.727L309.032 266.784L309.047 266.799C311.038 268.879 313.298 270.683 315.768 272.163C318.238 273.606 320.921 274.65 323.716 275.258C329.341 276.486 335.206 275.992 340.547 273.84C343.163 272.77 345.806 271.242 348.501 270.021C351.177 268.725 353.92 267.566 356.674 266.445C359.445 265.362 362.25 264.369 365.098 263.505C367.95 262.595 370.882 261.963 373.855 261.615C373.891 261.612 373.927 261.616 373.961 261.627L373.974 261.631C376.574 262.496 379.292 262.956 382.032 262.995C384.751 263.05 387.445 262.457 389.89 261.265C391.1 260.615 392.263 259.88 393.371 259.067C394.724 258.411 396.247 258.189 397.731 258.429C399.144 258.579 400.541 258.856 401.905 259.257C402.201 259.359 402.506 259.435 402.815 259.483C403.082 259.516 403.352 259.499 403.613 259.433C404.11 259.293 404.543 258.985 404.84 258.563L405.124 258.297C405.07 258.323 405.021 258.358 404.978 258.399C404.87 258.497 404.798 258.628 404.773 258.772C404.754 258.879 404.761 258.989 404.793 259.093C404.824 259.198 404.88 259.293 404.956 259.371L404.855 258.539C405.031 258.189 405.101 257.795 405.054 257.407C405.032 257.189 404.99 256.974 404.93 256.763C404.871 256.557 404.795 256.356 404.702 256.162C404.658 256.074 404.631 255.978 404.625 255.879C404.619 255.781 404.632 255.682 404.665 255.589L404.681 255.543C404.874 254.659 404.815 253.738 404.512 252.886C404.231 251.918 403.863 250.978 403.412 250.077C403.361 249.974 403.332 249.861 403.325 249.746C403.319 249.63 403.336 249.515 403.374 249.406L403.394 249.353C403.529 248.999 403.59 248.621 403.575 248.242C403.534 247.836 403.429 247.439 403.263 247.066C403.079 246.662 402.85 246.281 402.58 245.928C402.314 245.571 402.015 245.238 401.688 244.935C401.546 244.808 401.446 244.64 401.403 244.454C401.36 244.268 401.375 244.074 401.445 243.897L401.467 243.843C401.759 243.146 401.774 242.365 401.51 241.658C401.147 240.978 400.538 240.462 399.808 240.217C398.034 239.659 396.152 239.538 394.322 239.863C390.384 240.413 386.505 241.325 382.735 242.59L382.726 242.593C382.6 242.633 382.468 242.65 382.335 242.645C378.818 242.498 375.261 244.054 371.591 245.201C369.737 245.779 367.985 246.428 365.943 246.858C363.983 247.268 362.06 247.475 360.128 247.699C352.414 248.418 344.73 248.666 337.037 248.757L334.154 248.785L332.712 248.793L331.991 248.796C331.74 248.797 331.447 248.788 331.178 248.764C329.522 248.609 327.966 247.899 326.763 246.749C326.359 246.349 326.083 246.037 325.737 245.677L317.873 237.258C312.634 231.641 307.434 225.987 302.273 220.295C302.253 220.274 302.243 220.245 302.243 220.216C302.244 220.186 302.257 220.158 302.278 220.138C302.299 220.118 302.327 220.106 302.357 220.106C302.386 220.106 302.414 220.118 302.435 220.138C307.957 225.481 313.434 230.867 318.866 236.296L327.017 244.437C327.343 244.762 327.719 245.156 328.005 245.423C328.924 246.259 330.097 246.761 331.336 246.848C331.718 246.877 332.188 246.847 332.679 246.837L334.116 246.794L336.987 246.697C344.638 246.38 352.309 246.08 359.876 245.289C361.755 245.075 363.654 244.87 365.455 244.494C367.173 244.146 369.042 243.478 370.848 242.914C372.671 242.329 374.488 241.72 376.392 241.191C378.347 240.596 380.386 240.324 382.429 240.387L382.03 240.443C384.014 239.824 385.978 239.298 387.986 238.837C390.001 238.362 392.043 238.009 394.1 237.78C395.158 237.666 396.222 237.627 397.285 237.663C398.421 237.701 399.541 237.944 400.591 238.38C401.78 238.844 402.744 239.75 403.282 240.909C403.525 241.514 403.628 242.166 403.584 242.816C403.548 243.447 403.397 244.066 403.138 244.642L402.918 243.55C403.335 243.948 403.713 244.386 404.046 244.857C404.386 245.326 404.672 245.833 404.899 246.366C405.135 246.935 405.276 247.539 405.315 248.154C405.332 248.8 405.21 249.443 404.957 250.037L404.939 249.313C405.417 250.331 405.793 251.393 406.062 252.485C406.206 253.049 406.294 253.626 406.327 254.207C406.38 254.856 406.286 255.508 406.053 256.115L406.032 255.497C406.289 256.069 406.441 256.683 406.481 257.31C406.528 257.983 406.373 258.656 406.035 259.24L405.935 258.408C406.012 258.488 406.07 258.585 406.102 258.692C406.135 258.798 406.142 258.911 406.123 259.02C406.097 259.169 406.022 259.305 405.91 259.406C405.859 259.454 405.801 259.494 405.738 259.524L406.022 259.259C405.789 259.644 405.463 259.964 405.074 260.19C404.715 260.417 404.323 260.587 403.912 260.696C403.496 260.786 403.067 260.798 402.646 260.733C402.273 260.663 401.907 260.562 401.551 260.43C400.268 260.009 398.95 259.704 397.612 259.518C396.353 259.267 395.049 259.399 393.866 259.896C392.712 260.684 391.508 261.394 390.26 262.022C387.69 263.24 384.867 263.83 382.024 263.742C379.217 263.653 376.436 263.166 373.765 262.296L373.884 262.312C370.975 262.667 368.112 263.33 365.343 264.291C362.54 265.195 359.803 266.296 357.104 267.475C354.419 268.69 351.752 269.945 349.148 271.327C346.497 272.648 344.059 274.203 341.242 275.49C335.595 277.982 329.297 278.593 323.276 277.234C320.284 276.553 317.418 275.405 314.783 273.832C312.184 272.237 309.821 270.285 307.764 268.034L307.842 268.105C303.31 264.325 298.888 260.425 294.477 256.507C292.268 254.553 290.101 252.551 287.975 250.5C286.907 249.482 285.855 248.444 284.82 247.388C284.314 246.846 283.792 246.326 283.313 245.756L282.594 244.905C282.369 244.604 282.168 244.278 281.958 243.969C281.942 243.945 281.936 243.915 281.941 243.886C281.947 243.857 281.964 243.831 281.988 243.815C282.012 243.798 282.042 243.791 282.071 243.796C282.1 243.801 282.126 243.818 282.143 243.842L282.158 243.863Z" fill="black"/>
<path d="M387.831 244.413C390.2 243.655 392.637 243.127 395.108 242.837C396.354 242.685 397.614 242.661 398.865 242.768C400.169 242.83 401.432 243.243 402.521 243.963C402.597 244.019 402.648 244.102 402.662 244.195C402.676 244.288 402.653 244.383 402.598 244.459C402.542 244.535 402.459 244.586 402.366 244.6C402.272 244.615 402.178 244.592 402.102 244.536L402.084 244.522C401.118 243.828 399.985 243.405 398.801 243.296C397.587 243.135 396.359 243.1 395.137 243.19C392.668 243.362 390.221 243.772 387.831 244.413Z" fill="black"/>
<path d="M391.065 248.581C393.287 248.098 395.547 247.81 397.819 247.721C398.967 247.682 400.117 247.752 401.252 247.931C402.465 248.063 403.595 248.608 404.454 249.475C404.516 249.546 404.548 249.638 404.542 249.732C404.537 249.826 404.494 249.914 404.423 249.977C404.389 250.008 404.348 250.031 404.304 250.047C404.26 250.062 404.213 250.068 404.167 250.066C404.073 250.06 403.985 250.017 403.922 249.946L403.909 249.931L403.897 249.915C403.17 249.132 402.2 248.616 401.145 248.452C400.05 248.222 398.937 248.096 397.819 248.076C395.558 248.047 393.298 248.216 391.065 248.581Z" fill="black"/>
<path d="M392.257 253.103C394.562 252.686 396.911 252.571 399.245 252.762C400.429 252.849 401.595 253.104 402.707 253.521C403.869 253.932 404.892 254.662 405.659 255.627C405.687 255.665 405.708 255.707 405.719 255.752C405.731 255.798 405.734 255.845 405.727 255.891C405.721 255.938 405.705 255.982 405.682 256.023C405.658 256.063 405.626 256.098 405.589 256.126C405.551 256.154 405.509 256.175 405.463 256.186C405.418 256.198 405.371 256.2 405.325 256.193C405.278 256.187 405.234 256.171 405.194 256.147C405.154 256.123 405.119 256.091 405.091 256.053L405.081 256.04L405.076 256.031C404.423 255.132 403.532 254.433 402.504 254.013C401.452 253.557 400.34 253.255 399.202 253.115C396.898 252.809 394.563 252.805 392.257 253.103Z" fill="black"/>
<path d="M355.597 139.411V207.91L450.601 216.344V139.411H355.597ZM440.13 206.121L365.302 199.986V148.613L440.13 147.846V206.121Z" fill="black"/>
<path d="M370.945 154.152C371.045 156.249 371.132 158.261 371.178 160.24C371.228 162.222 371.26 164.172 371.184 166.14L370.92 165.875C372.609 165.932 374.297 166.016 375.985 166.024C377.674 166.041 379.362 166.002 381.05 165.946L380.856 166.14C380.783 164.138 380.729 162.136 380.711 160.134C380.672 158.131 380.67 156.129 380.689 154.127L381.05 154.489C379.407 154.496 377.757 154.414 376.087 154.373L370.945 154.152ZM370.895 154.102L375.883 153.881C377.59 153.84 379.317 153.759 381.05 153.766C381.146 153.767 381.237 153.805 381.305 153.873C381.372 153.94 381.411 154.032 381.412 154.127C381.431 156.129 381.429 158.131 381.39 160.133C381.372 162.135 381.318 164.138 381.245 166.14L381.244 166.153C381.243 166.178 381.238 166.202 381.228 166.225C381.217 166.247 381.203 166.267 381.185 166.284C381.167 166.301 381.146 166.314 381.123 166.322C381.1 166.331 381.075 166.335 381.05 166.334C379.362 166.278 377.674 166.239 375.985 166.256C374.297 166.263 372.609 166.348 370.92 166.404C370.887 166.405 370.853 166.4 370.822 166.388C370.791 166.376 370.762 166.358 370.737 166.336C370.713 166.313 370.693 166.285 370.679 166.255C370.666 166.224 370.658 166.191 370.657 166.157L370.656 166.14C370.581 164.104 370.612 162.049 370.663 160.027C370.708 158.002 370.796 156.01 370.895 154.102Z" fill="black"/>
<path d="M419.534 153.093C419.709 157.172 419.827 161.143 419.931 165.083C420.053 169.033 420.106 172.914 420.151 176.792C420.196 180.668 420.136 184.5 420.009 188.353C419.902 192.206 419.744 196.089 419.733 199.99L419.476 199.733C421.783 199.765 424.09 199.705 426.397 199.695C428.704 199.678 431.011 199.59 433.318 199.541L432.869 199.99C432.742 196.077 432.648 192.164 432.588 188.251L432.456 176.512C432.427 172.599 432.437 168.686 432.487 164.774L432.704 153.035L433.318 153.65L426.547 153.398L419.534 153.093ZM419.418 152.977L426.246 152.671L433.318 152.42C433.396 152.417 433.473 152.429 433.546 152.457C433.619 152.484 433.686 152.525 433.743 152.578C433.8 152.632 433.846 152.695 433.879 152.766C433.911 152.837 433.929 152.914 433.932 152.992V152.999L433.933 153.035L434.149 164.774C434.196 168.686 434.206 172.599 434.18 176.512L434.048 188.251C433.984 192.164 433.89 196.077 433.767 199.99L433.766 200.014C433.762 200.13 433.713 200.239 433.629 200.319C433.545 200.398 433.433 200.442 433.318 200.439C431.011 200.39 428.704 200.302 426.397 200.285C424.09 200.275 421.783 200.215 419.476 200.247C419.442 200.248 419.409 200.242 419.378 200.229C419.348 200.217 419.319 200.199 419.295 200.175C419.272 200.152 419.253 200.124 419.239 200.094C419.226 200.063 419.219 200.03 419.219 199.997V199.99C419.208 196.064 419.049 192.122 418.943 188.149C418.816 184.176 418.755 180.182 418.8 176.232C418.845 172.285 418.899 168.339 419.02 164.463C419.124 160.578 419.243 156.724 419.418 152.977Z" fill="black"/>
<path d="M409.467 219.396V212.693L398.997 211.763V218.344C392.638 218.516 387.901 220.261 387.652 222.837C387.339 226.068 394.206 229.379 402.991 230.233C411.776 231.086 419.152 229.158 419.465 225.926C419.711 223.389 415.528 220.803 409.467 219.396Z" fill="black"/>
<path d="M311.506 229.665C316.702 226.351 321.959 223.137 327.233 219.952C327.295 219.916 327.367 219.902 327.438 219.913C332.318 220.664 337.18 221.524 342.04 222.397C346.899 223.282 351.773 224.064 356.656 224.799L371.303 227.01C376.179 227.781 381.062 228.514 385.931 229.332C386.028 229.348 386.114 229.402 386.171 229.481C386.228 229.56 386.251 229.659 386.235 229.755C386.219 229.849 386.169 229.933 386.093 229.99C382.478 232.707 378.837 235.39 375.17 238.038L369.69 242.037L364.175 245.988C364.167 245.994 364.158 245.996 364.149 245.995C364.14 245.993 364.132 245.988 364.126 245.981C364.12 245.973 364.118 245.964 364.119 245.955C364.12 245.946 364.125 245.937 364.132 245.932L369.477 241.751L374.856 237.618C378.436 234.854 382.035 232.115 385.652 229.401L385.814 230.059C380.936 229.296 376.071 228.449 371.201 227.641L356.606 225.111C351.741 224.264 346.869 223.466 341.98 222.771C337.093 222.064 332.208 221.344 327.341 220.514L327.545 220.475C322.242 223.612 316.922 226.719 311.542 229.726C311.534 229.731 311.525 229.732 311.516 229.729C311.507 229.727 311.499 229.721 311.494 229.713C311.49 229.705 311.488 229.696 311.49 229.687C311.493 229.678 311.498 229.67 311.506 229.665Z" fill="black"/>
<path d="M317.805 236.191C320.793 236.957 323.759 237.796 326.721 238.647L335.581 241.284L344.394 244.077C347.322 245.037 350.248 246.008 353.15 247.054C350.161 246.29 347.196 245.45 344.234 244.599L335.373 241.962L326.561 239.167C323.632 238.207 320.707 237.237 317.805 236.191Z" fill="black"/>
<path d="M418.358 223.451C420.15 223.207 421.963 223.155 423.766 223.294C425.619 223.383 427.435 223.85 429.101 224.666C429.972 225.119 430.723 225.773 431.291 226.575C431.857 227.411 432.171 228.393 432.194 229.403C432.212 230.372 432.066 231.338 431.764 232.259C431.497 233.207 431.038 234.091 430.416 234.854C429.794 235.618 429.032 236.256 428.171 236.733C427.361 237.2 426.512 237.595 425.633 237.914C423.884 238.566 422.04 238.925 420.174 238.977C418.333 239.016 416.497 238.776 414.728 238.268C413.03 237.744 411.222 237.689 409.496 238.108C410.303 237.67 411.203 237.428 412.121 237.404C413.037 237.344 413.956 237.377 414.865 237.5C416.594 237.812 418.356 237.901 420.107 237.766C421.832 237.625 423.527 237.238 425.142 236.615C425.945 236.304 426.723 235.933 427.471 235.506C428.192 235.125 428.833 234.608 429.357 233.982C429.881 233.357 430.283 232.638 430.54 231.863C430.823 231.083 430.974 230.261 430.986 229.432C431.002 228.635 430.792 227.851 430.38 227.169C429.933 226.481 429.332 225.907 428.624 225.493C427.099 224.642 425.429 224.082 423.699 223.843C421.933 223.561 420.146 223.43 418.358 223.451Z" fill="black"/>
<path d="M411.049 242.922C411.049 242.922 410.745 252.897 405.445 258.889C405.658 258.405 405.761 257.88 405.747 257.351C405.734 256.822 405.604 256.302 405.367 255.829C406.218 253.785 404.175 249.695 404.175 249.695C405.367 246.969 402.302 244.242 402.302 244.242C402.302 244.242 404.175 240.323 399.238 238.96C399.238 238.96 412.731 232.656 411.049 242.922Z" fill="black"/>
<path d="M440.015 317.537C439.967 317.538 439.919 317.53 439.873 317.515L348.556 287.296C348.5 287.277 348.448 287.247 348.403 287.209C348.358 287.17 348.321 287.122 348.294 287.069C348.268 287.016 348.252 286.959 348.247 286.899C348.243 286.84 348.25 286.78 348.269 286.724C348.288 286.668 348.317 286.615 348.356 286.57C348.395 286.525 348.442 286.489 348.495 286.462C348.548 286.435 348.606 286.419 348.665 286.415C348.724 286.41 348.784 286.418 348.84 286.436L439.965 316.593L557.296 249.432V244.045L339.692 204.327L304.056 218.083C303.944 218.125 303.82 218.122 303.711 218.073C303.602 218.025 303.516 217.935 303.473 217.823C303.43 217.711 303.433 217.587 303.481 217.478C303.529 217.368 303.619 217.282 303.731 217.239L339.485 203.437C339.563 203.409 339.647 203.401 339.729 203.414L557.829 243.222C557.933 243.241 558.027 243.296 558.095 243.378C558.162 243.459 558.2 243.561 558.2 243.667V249.695C558.2 249.775 558.179 249.853 558.139 249.922C558.099 249.991 558.041 250.048 557.972 250.087L440.239 317.478C440.171 317.517 440.094 317.537 440.015 317.537Z" fill="black"/>
<path d="M439.759 311.818C439.723 311.818 439.687 311.812 439.652 311.801L342.605 281.073C342.561 281.059 342.52 281.037 342.484 281.007C342.449 280.977 342.419 280.94 342.398 280.899C342.355 280.815 342.346 280.718 342.375 280.628C342.403 280.539 342.466 280.464 342.549 280.421C342.633 280.377 342.73 280.369 342.819 280.398L439.718 311.078L557.571 243.359C557.612 243.336 557.656 243.321 557.703 243.315C557.749 243.309 557.796 243.312 557.841 243.324C557.886 243.337 557.928 243.358 557.965 243.386C558.002 243.415 558.033 243.45 558.056 243.491C558.079 243.531 558.094 243.576 558.1 243.622C558.106 243.668 558.103 243.715 558.09 243.76C558.078 243.805 558.057 243.847 558.029 243.884C558 243.921 557.965 243.952 557.924 243.975L439.936 311.771C439.882 311.802 439.821 311.818 439.759 311.818Z" fill="black"/>
<path d="M440.014 317.44C439.923 317.44 439.836 317.405 439.77 317.342C439.704 317.279 439.665 317.193 439.661 317.102L439.405 311.48C439.403 311.433 439.41 311.387 439.426 311.343C439.442 311.299 439.466 311.259 439.497 311.224C439.529 311.19 439.567 311.162 439.609 311.142C439.651 311.122 439.697 311.111 439.743 311.109C439.836 311.108 439.926 311.142 439.995 311.205C440.064 311.267 440.106 311.354 440.114 311.447L440.369 317.069C440.371 317.116 440.364 317.162 440.348 317.206C440.333 317.25 440.308 317.291 440.277 317.325C440.246 317.359 440.208 317.387 440.165 317.407C440.123 317.427 440.077 317.438 440.031 317.44H440.014Z" fill="black"/>
<path d="M440.047 315.434L440.757 358.85L441.289 402.267C441.48 416.739 441.876 431.211 441.643 445.683C441.516 452.919 441.388 460.155 441.106 467.392L440.679 478.246C440.466 481.864 440.319 485.482 440.047 489.1C440.044 489.144 440.024 489.186 439.991 489.217C439.958 489.247 439.915 489.264 439.87 489.264C439.825 489.264 439.782 489.247 439.749 489.217C439.716 489.186 439.696 489.144 439.693 489.1C439.42 485.482 439.274 481.864 439.061 478.246L438.634 467.392C438.352 460.155 438.224 452.919 438.096 445.683C437.864 431.211 438.259 416.739 438.451 402.267L438.983 358.85L439.693 315.434C439.693 315.387 439.712 315.343 439.746 315.31C439.779 315.277 439.823 315.259 439.87 315.259C439.917 315.259 439.961 315.277 439.994 315.31C440.028 315.343 440.047 315.387 440.047 315.434Z" fill="black"/>
<path d="M548.731 255.829L549.441 299.246L549.973 342.662C550.165 357.135 550.56 371.607 550.328 386.079C550.2 393.315 550.072 400.551 549.79 407.787L549.363 418.641C549.15 422.26 549.004 425.878 548.731 429.496C548.728 429.54 548.708 429.582 548.675 429.613C548.642 429.643 548.599 429.66 548.554 429.66C548.509 429.66 548.466 429.643 548.433 429.613C548.4 429.582 548.38 429.54 548.377 429.496C548.105 425.878 547.958 422.26 547.745 418.641L547.318 407.787C547.037 400.551 546.908 393.315 546.781 386.079C546.548 371.607 546.944 357.135 547.135 342.662L547.667 299.246L548.377 255.829C548.377 255.783 548.396 255.738 548.43 255.705C548.463 255.673 548.508 255.654 548.554 255.654C548.601 255.654 548.645 255.673 548.679 255.705C548.712 255.738 548.731 255.783 548.732 255.829H548.731Z" fill="black"/>
<path d="M367.996 375.106C367.996 375.106 376.109 375.782 403.98 394.934C408.54 398.127 414.12 399.518 419.644 398.837C421.115 398.674 422.557 398.304 423.925 397.738C423.925 397.738 445.122 403.221 426.224 406.799C426.224 406.799 399.153 407.566 378.977 392.742L379.233 400.92H369.017C369.017 400.92 364.42 379.706 367.996 375.106Z" fill="black"/>
<path d="M376.667 343.949C378.234 346.591 379.721 349.274 381.25 351.936L385.702 359.992C387.204 362.665 388.615 365.396 390.07 368.087C391.509 370.744 393.23 373.239 395.202 375.528C396.171 376.684 397.201 377.789 398.285 378.838C399.366 379.88 400.535 380.867 401.691 381.874C404 383.884 406.368 385.821 408.71 387.789C411.067 389.738 413.465 391.638 415.946 393.419C417.175 394.324 418.434 395.189 419.74 395.976L420.73 396.548L421.754 397.053C422.439 397.39 423.171 397.621 423.925 397.738C422.385 397.574 420.897 397.086 419.559 396.306C418.185 395.603 416.855 394.819 415.555 393.994C412.972 392.315 410.485 390.5 408.033 388.645C405.569 386.802 403.215 384.825 400.854 382.858C399.685 381.868 398.494 380.893 397.351 379.822C393.922 376.629 391.073 372.864 388.933 368.694C387.526 365.959 386.093 363.254 384.741 360.497L380.638 352.258C379.316 349.487 377.951 346.739 376.667 343.949Z" fill="black"/>
<path d="M357.918 362.724C359.967 364.447 361.839 366.371 363.507 368.466C365.223 370.523 366.726 372.747 367.996 375.106C365.944 373.385 364.072 371.461 362.407 369.363C360.694 367.305 359.19 365.081 357.918 362.724Z" fill="black"/>
<path d="M309.74 437.303C309.74 437.303 317.871 436.893 348.042 452.16C352.986 454.717 358.701 455.352 364.085 453.942C365.522 453.584 366.901 453.025 368.182 452.281C368.182 452.281 389.92 454.891 371.666 460.956C371.666 460.956 344.938 465.323 322.97 453.319L324.311 461.391L314.186 462.752C314.186 462.752 306.808 442.339 309.74 437.303Z" fill="black"/>
<path d="M326.858 412.069C327.528 414.568 328.109 417.085 328.737 419.593L329.606 423.369C329.847 424.603 330.231 425.806 330.751 426.951C331.275 428.073 331.942 429.122 332.737 430.072C333.554 431.023 334.445 431.95 335.357 432.829C337.179 434.601 339.154 436.208 341.258 437.632C345.533 440.467 349.891 443.244 354.284 445.913C356.485 447.245 358.714 448.532 361.001 449.697C362.13 450.306 363.291 450.856 364.477 451.345C365.643 451.885 366.9 452.203 368.182 452.281C366.879 452.357 365.574 452.159 364.352 451.699C363.113 451.305 361.895 450.847 360.703 450.327C358.329 449.275 356.024 448.087 353.742 446.86C349.181 444.391 344.807 441.65 340.461 438.805C338.297 437.32 336.274 435.64 334.417 433.784C333.494 432.847 332.618 431.889 331.779 430.859C330.935 429.808 330.253 428.636 329.754 427.383C329.266 426.148 328.923 424.861 328.731 423.547L328.06 419.73C327.661 417.176 327.215 414.632 326.858 412.069Z" fill="black"/>
<path d="M309.051 418.31C309.667 421.432 310.019 424.6 310.104 427.781C310.253 430.96 310.131 434.145 309.74 437.303C309.121 434.182 308.769 431.014 308.687 427.833C308.541 424.654 308.663 421.469 309.051 418.31Z" fill="black"/>
<path d="M285.556 165.565C284.11 165.707 282.652 165.458 281.335 164.844C280.647 164.54 280.045 164.072 279.58 163.482C279.116 162.888 278.906 162.136 278.993 161.388C279.189 162.03 279.529 162.617 279.988 163.106C280.448 163.594 281.013 163.97 281.641 164.204C282.909 164.759 284.218 165.214 285.556 165.565Z" fill="black"/>
<path d="M422.741 158.802C423.181 158.787 423.597 158.602 423.902 158.285C424.208 157.969 424.379 157.546 424.379 157.106C424.379 156.666 424.208 156.243 423.902 155.927C423.597 155.61 423.181 155.425 422.741 155.41C422.302 155.425 421.886 155.61 421.58 155.927C421.275 156.243 421.104 156.666 421.104 157.106C421.104 157.546 421.275 157.969 421.58 158.285C421.886 158.602 422.302 158.787 422.741 158.802Z" fill="black"/>
<path d="M423.012 168.166C423.452 168.151 423.868 167.966 424.173 167.649C424.479 167.333 424.65 166.91 424.65 166.47C424.65 166.03 424.479 165.607 424.173 165.291C423.868 164.974 423.452 164.789 423.012 164.773C422.573 164.789 422.157 164.974 421.851 165.291C421.546 165.607 421.375 166.03 421.375 166.47C421.375 166.91 421.546 167.333 421.851 167.649C422.157 167.966 422.573 168.151 423.012 168.166Z" fill="black"/>
<path d="M423.148 178.209C423.587 178.193 424.004 178.008 424.309 177.692C424.615 177.375 424.785 176.952 424.785 176.512C424.785 176.072 424.615 175.649 424.309 175.333C424.004 175.017 423.587 174.831 423.148 174.816C422.709 174.831 422.292 175.017 421.987 175.333C421.681 175.649 421.511 176.072 421.511 176.512C421.511 176.952 421.681 177.375 421.987 177.692C422.292 178.008 422.709 178.193 423.148 178.209Z" fill="black"/>
<path d="M423.148 189.337C423.587 189.322 424.004 189.136 424.309 188.82C424.615 188.503 424.785 188.08 424.785 187.64C424.785 187.2 424.615 186.778 424.309 186.461C424.004 186.145 423.587 185.959 423.148 185.944C422.709 185.959 422.292 186.145 421.987 186.461C421.681 186.778 421.511 187.2 421.511 187.64C421.511 188.08 421.681 188.503 421.987 188.82C422.292 189.136 422.709 189.322 423.148 189.337Z" fill="black"/>
<path d="M423.419 198.294C423.859 198.278 424.275 198.093 424.58 197.777C424.886 197.46 425.057 197.037 425.057 196.597C425.057 196.157 424.886 195.734 424.58 195.418C424.275 195.102 423.859 194.916 423.419 194.901C422.98 194.916 422.564 195.102 422.258 195.418C421.953 195.734 421.782 196.157 421.782 196.597C421.782 197.037 421.953 197.46 422.258 197.777C422.564 198.093 422.98 198.278 423.419 198.294Z" fill="black"/>
<path d="M375.943 160.826C376.189 160.825 376.429 160.754 376.636 160.622C376.844 160.491 377.01 160.303 377.116 160.081C377.289 159.695 377.406 159.285 377.465 158.866C377.519 158.641 377.525 158.408 377.485 158.181C377.444 157.954 377.356 157.738 377.228 157.547C377.071 157.368 376.869 157.235 376.643 157.162C376.417 157.089 376.175 157.078 375.943 157.131C375.53 157.215 375.158 157.436 374.886 157.758C374.658 158.083 374.537 158.47 374.539 158.867C374.529 159.282 374.612 159.693 374.781 160.072C374.884 160.294 375.048 160.483 375.254 160.616C375.459 160.75 375.698 160.822 375.943 160.826ZM375.943 160.926C375.366 160.962 374.793 160.821 374.298 160.522C374.038 160.332 373.827 160.083 373.683 159.795C373.538 159.507 373.465 159.189 373.468 158.866C373.463 158.54 373.525 158.216 373.65 157.915C373.775 157.614 373.96 157.341 374.194 157.114C374.423 156.894 374.701 156.73 375.005 156.637C375.309 156.545 375.63 156.526 375.943 156.581C376.514 156.67 377.045 156.929 377.466 157.324C377.918 157.723 378.214 158.269 378.301 158.866C378.337 159.18 378.289 159.498 378.162 159.787C378.035 160.076 377.833 160.326 377.577 160.511C377.087 160.811 376.517 160.956 375.943 160.926Z" fill="black"/>
<path d="M379.192 166.175C378.143 166.351 377.085 166.469 376.024 166.528C375.454 166.553 374.88 166.583 374.298 166.568C373.716 166.554 373.134 166.478 372.569 166.425L372.512 166.42C372.479 166.417 372.447 166.407 372.417 166.392C372.388 166.376 372.362 166.355 372.341 166.329C372.32 166.304 372.304 166.274 372.294 166.243C372.284 166.211 372.281 166.177 372.284 166.144V166.14C372.365 165.528 372.41 164.911 372.418 164.294C372.379 163.649 372.47 163.003 372.687 162.395C372.943 161.739 373.388 161.175 373.965 160.774C374.543 160.373 375.227 160.153 375.93 160.143C376.633 160.133 377.323 160.332 377.912 160.716C378.501 161.1 378.962 161.651 379.237 162.299C379.502 162.941 379.58 163.646 379.461 164.331C379.393 165.007 379.28 165.636 379.192 166.175ZM379.122 166.105L378.852 164.257C378.823 163.711 378.673 163.178 378.414 162.697C378.15 162.247 377.779 161.868 377.334 161.594C376.889 161.32 376.384 161.159 375.863 161.126C375.316 161.112 374.775 161.24 374.293 161.499C373.811 161.758 373.405 162.138 373.114 162.601C372.809 163.11 372.671 163.702 372.721 164.294C372.729 164.911 372.774 165.528 372.854 166.14L372.569 165.855C373.103 165.802 373.619 165.725 374.135 165.712C374.651 165.697 375.174 165.726 375.702 165.751C376.764 165.816 377.872 165.944 379.122 166.105Z" fill="black"/>
<path d="M385.468 154.152C385.567 156.249 385.654 158.261 385.7 160.24C385.751 162.222 385.782 164.172 385.707 166.14L385.443 165.875C387.131 165.932 388.819 166.016 390.508 166.024C392.196 166.041 393.884 166.002 395.573 165.946L395.379 166.14C395.305 164.138 395.252 162.136 395.233 160.134C395.194 158.131 395.192 156.129 395.212 154.127L395.573 154.489C393.93 154.496 392.279 154.414 390.61 154.373L385.468 154.152ZM385.417 154.102L390.406 153.881C392.113 153.84 393.839 153.759 395.573 153.766C395.668 153.767 395.76 153.805 395.827 153.873C395.895 153.94 395.933 154.032 395.934 154.127C395.954 156.129 395.951 158.131 395.912 160.133C395.894 162.135 395.841 164.138 395.767 166.14V166.153C395.766 166.178 395.76 166.202 395.75 166.225C395.74 166.247 395.725 166.267 395.707 166.284C395.689 166.301 395.668 166.314 395.645 166.322C395.622 166.331 395.597 166.335 395.573 166.334C393.884 166.278 392.196 166.239 390.508 166.256C388.819 166.263 387.131 166.348 385.443 166.404C385.409 166.405 385.376 166.4 385.344 166.388C385.313 166.376 385.284 166.358 385.26 166.336C385.235 166.313 385.215 166.285 385.202 166.255C385.188 166.224 385.18 166.191 385.179 166.157L385.178 166.14C385.103 164.104 385.134 162.049 385.185 160.027C385.23 158.002 385.318 156.01 385.417 154.102Z" fill="black"/>
<path d="M390.465 160.826C390.711 160.825 390.951 160.754 391.159 160.622C391.366 160.491 391.532 160.303 391.638 160.081C391.811 159.695 391.928 159.285 391.988 158.866C392.041 158.641 392.048 158.408 392.007 158.181C391.966 157.954 391.878 157.738 391.75 157.547C391.593 157.368 391.391 157.235 391.165 157.162C390.939 157.089 390.697 157.078 390.465 157.131C390.052 157.215 389.68 157.436 389.408 157.758C389.18 158.083 389.059 158.47 389.061 158.867C389.051 159.282 389.134 159.693 389.304 160.072C389.407 160.294 389.57 160.483 389.776 160.616C389.982 160.75 390.221 160.822 390.465 160.826ZM390.465 160.926C389.889 160.962 389.315 160.821 388.82 160.522C388.56 160.332 388.349 160.083 388.205 159.795C388.061 159.507 387.987 159.189 387.99 158.866C387.985 158.54 388.047 158.216 388.172 157.915C388.297 157.614 388.482 157.341 388.716 157.114C388.945 156.894 389.223 156.73 389.527 156.637C389.831 156.545 390.153 156.526 390.465 156.581C391.036 156.67 391.567 156.929 391.988 157.324C392.44 157.723 392.736 158.269 392.823 158.866C392.859 159.18 392.811 159.498 392.684 159.787C392.557 160.076 392.355 160.326 392.1 160.511C391.609 160.811 391.04 160.956 390.465 160.926Z" fill="black"/>
<path d="M393.714 166.175C392.665 166.351 391.607 166.469 390.546 166.528C389.976 166.553 389.402 166.583 388.82 166.568C388.238 166.555 387.656 166.478 387.091 166.425L387.034 166.42C387.001 166.417 386.969 166.407 386.939 166.392C386.91 166.376 386.884 166.355 386.863 166.329C386.842 166.304 386.826 166.274 386.816 166.243C386.806 166.211 386.803 166.177 386.806 166.144V166.14C386.887 165.528 386.932 164.911 386.94 164.294C386.901 163.649 386.992 163.003 387.209 162.395C387.465 161.739 387.91 161.175 388.487 160.774C389.065 160.373 389.749 160.153 390.452 160.143C391.155 160.133 391.845 160.332 392.434 160.716C393.023 161.1 393.484 161.651 393.759 162.299C394.024 162.941 394.102 163.646 393.983 164.331C393.915 165.007 393.802 165.636 393.714 166.175ZM393.644 166.105L393.374 164.257C393.345 163.711 393.195 163.178 392.936 162.697C392.672 162.247 392.301 161.868 391.856 161.594C391.411 161.32 390.906 161.159 390.385 161.126C389.838 161.112 389.297 161.241 388.815 161.499C388.333 161.758 387.927 162.138 387.636 162.601C387.331 163.11 387.193 163.702 387.242 164.294C387.251 164.911 387.296 165.528 387.376 166.14L387.091 165.855C387.625 165.802 388.141 165.725 388.657 165.712C389.173 165.697 389.696 165.726 390.224 165.751C391.286 165.816 392.394 165.944 393.644 166.105Z" fill="black"/>
<path d="M400.26 154.152C400.359 156.249 400.447 158.261 400.493 160.24C400.543 162.222 400.574 164.172 400.499 166.14L400.235 165.875C401.923 165.932 403.612 166.016 405.3 166.024C406.988 166.041 408.677 166.002 410.365 165.946L410.171 166.14C410.097 164.138 410.044 162.136 410.026 160.134C409.987 158.131 409.984 156.129 410.004 154.127L410.365 154.489C408.722 154.496 407.072 154.414 405.402 154.373L400.26 154.152ZM400.21 154.102L405.198 153.881C406.905 153.84 408.631 153.759 410.365 153.766C410.461 153.767 410.552 153.805 410.62 153.873C410.687 153.94 410.725 154.032 410.726 154.127C410.746 156.129 410.744 158.131 410.705 160.133C410.686 162.135 410.633 164.138 410.56 166.14L410.559 166.153C410.558 166.178 410.552 166.202 410.542 166.225C410.532 166.247 410.518 166.267 410.5 166.284C410.482 166.301 410.46 166.314 410.437 166.322C410.414 166.331 410.39 166.335 410.365 166.334C408.677 166.278 406.988 166.239 405.3 166.256C403.612 166.263 401.923 166.348 400.235 166.404C400.202 166.405 400.168 166.4 400.137 166.388C400.105 166.376 400.077 166.358 400.052 166.336C400.028 166.313 400.008 166.285 399.994 166.255C399.98 166.224 399.973 166.191 399.971 166.157V166.14C399.895 164.104 399.927 162.049 399.977 160.027C400.023 158.002 400.111 156.01 400.21 154.102Z" fill="black"/>
<path d="M405.258 160.826C405.504 160.825 405.744 160.754 405.951 160.622C406.159 160.491 406.325 160.303 406.431 160.081C406.603 159.695 406.721 159.285 406.78 158.866C406.834 158.641 406.84 158.408 406.799 158.181C406.758 157.954 406.671 157.738 406.543 157.547C406.386 157.368 406.184 157.235 405.957 157.162C405.731 157.089 405.49 157.078 405.258 157.131C404.845 157.215 404.472 157.436 404.2 157.758C403.973 158.083 403.851 158.47 403.854 158.867C403.844 159.282 403.927 159.693 404.096 160.072C404.199 160.294 404.363 160.483 404.568 160.616C404.774 160.75 405.013 160.822 405.258 160.826ZM405.258 160.926C404.681 160.962 404.107 160.821 403.612 160.522C403.353 160.332 403.142 160.083 402.998 159.795C402.853 159.507 402.78 159.189 402.782 158.866C402.778 158.54 402.84 158.216 402.964 157.915C403.089 157.614 403.275 157.341 403.509 157.114C403.738 156.894 404.015 156.73 404.319 156.637C404.623 156.545 404.945 156.526 405.258 156.581C405.829 156.67 406.36 156.929 406.781 157.324C407.233 157.723 407.529 158.269 407.616 158.866C407.652 159.18 407.604 159.498 407.477 159.787C407.349 160.076 407.148 160.326 406.892 160.511C406.402 160.811 405.832 160.956 405.258 160.926Z" fill="black"/>
<path d="M408.506 166.175C407.458 166.351 406.4 166.469 405.338 166.528C404.769 166.553 404.194 166.583 403.612 166.568C403.03 166.554 402.448 166.478 401.884 166.425L401.826 166.42C401.793 166.417 401.761 166.407 401.732 166.392C401.702 166.376 401.676 166.355 401.655 166.329C401.634 166.304 401.618 166.274 401.608 166.242C401.599 166.211 401.595 166.177 401.598 166.144L401.599 166.14C401.679 165.528 401.724 164.911 401.733 164.294C401.693 163.649 401.785 163.003 402.002 162.395C402.257 161.739 402.702 161.175 403.28 160.774C403.857 160.373 404.541 160.153 405.244 160.143C405.947 160.133 406.637 160.332 407.226 160.716C407.815 161.1 408.276 161.651 408.551 162.299C408.816 162.941 408.894 163.646 408.776 164.331C408.707 165.007 408.594 165.636 408.506 166.175ZM408.436 166.105L408.166 164.257C408.137 163.711 407.988 163.178 407.729 162.697C407.464 162.247 407.093 161.868 406.648 161.594C406.204 161.32 405.699 161.159 405.177 161.126C404.631 161.112 404.09 161.24 403.608 161.499C403.126 161.758 402.719 162.138 402.428 162.601C402.124 163.11 401.986 163.702 402.035 164.293C402.044 164.911 402.088 165.527 402.169 166.14L401.884 165.855C402.417 165.802 402.933 165.725 403.449 165.712C403.965 165.697 404.488 165.726 405.017 165.751C406.078 165.815 407.186 165.944 408.436 166.105Z" fill="black"/>
<path d="M393.704 169.07C393.803 171.166 393.891 173.178 393.936 175.158C393.987 177.14 394.018 179.089 393.943 181.057L393.679 180.793C395.367 180.85 397.055 180.934 398.744 180.941C400.432 180.958 402.121 180.919 403.809 180.863L403.615 181.057C403.541 179.055 403.488 177.053 403.469 175.051C403.431 173.049 403.428 171.047 403.448 169.045L403.809 169.406C402.166 169.413 400.515 169.331 398.846 169.291L393.704 169.07ZM393.654 169.019L398.642 168.798C400.349 168.758 402.075 168.676 403.809 168.683C403.905 168.684 403.996 168.722 404.063 168.79C404.131 168.858 404.169 168.949 404.17 169.045C404.19 171.047 404.187 173.049 404.149 175.051C404.13 177.053 404.077 179.055 404.003 181.057V181.071C404.002 181.095 403.996 181.12 403.986 181.142C403.976 181.164 403.961 181.185 403.943 181.201C403.925 181.218 403.904 181.231 403.881 181.24C403.858 181.248 403.834 181.252 403.809 181.252C402.121 181.195 400.432 181.156 398.744 181.173C397.055 181.181 395.367 181.265 393.679 181.322C393.611 181.324 393.545 181.299 393.496 181.253C393.447 181.207 393.417 181.143 393.415 181.075V181.057C393.339 179.021 393.371 176.966 393.421 174.944C393.467 172.919 393.554 170.927 393.654 169.019Z" fill="black"/>
<path d="M398.702 175.743C398.947 175.742 399.187 175.671 399.395 175.54C399.602 175.408 399.768 175.221 399.874 174.999C400.047 174.612 400.165 174.203 400.224 173.783C400.277 173.559 400.284 173.326 400.243 173.099C400.202 172.872 400.115 172.656 399.986 172.464C399.829 172.285 399.627 172.152 399.401 172.079C399.175 172.006 398.933 171.996 398.702 172.049C398.289 172.132 397.916 172.353 397.644 172.676C397.416 173 397.295 173.388 397.297 173.784C397.287 174.199 397.37 174.611 397.54 174.989C397.643 175.211 397.807 175.4 398.012 175.534C398.218 175.667 398.457 175.74 398.702 175.743ZM398.702 175.844C398.125 175.88 397.551 175.739 397.056 175.44C396.796 175.25 396.585 175 396.441 174.712C396.297 174.424 396.223 174.106 396.226 173.784C396.221 173.458 396.283 173.134 396.408 172.833C396.533 172.531 396.718 172.259 396.952 172.032C397.181 171.811 397.459 171.648 397.763 171.555C398.067 171.462 398.389 171.443 398.702 171.499C399.272 171.587 399.803 171.846 400.224 172.242C400.676 172.641 400.972 173.187 401.059 173.783C401.095 174.097 401.047 174.415 400.92 174.704C400.793 174.993 400.591 175.243 400.336 175.428C399.845 175.729 399.276 175.873 398.702 175.844Z" fill="black"/>
<path d="M401.95 181.092C400.901 181.268 399.844 181.386 398.782 181.446C398.213 181.471 397.638 181.5 397.056 181.485C396.474 181.472 395.892 181.396 395.328 181.343L395.27 181.337C395.237 181.334 395.205 181.325 395.176 181.309C395.146 181.294 395.12 181.272 395.099 181.247C395.078 181.221 395.062 181.192 395.052 181.16C395.042 181.128 395.039 181.095 395.042 181.062L395.043 181.057C395.123 180.445 395.168 179.828 395.176 179.211C395.137 178.566 395.228 177.92 395.445 177.312C395.701 176.657 396.146 176.093 396.724 175.691C397.301 175.29 397.985 175.071 398.688 175.06C399.391 175.05 400.081 175.25 400.67 175.634C401.259 176.018 401.72 176.569 401.995 177.216C402.26 177.859 402.338 178.563 402.22 179.248C402.151 179.924 402.038 180.554 401.95 181.092ZM401.88 181.022L401.61 179.174C401.581 178.628 401.432 178.096 401.173 177.615C400.908 177.164 400.537 176.785 400.092 176.511C399.647 176.238 399.142 176.077 398.621 176.043C398.074 176.029 397.533 176.158 397.051 176.417C396.569 176.675 396.163 177.055 395.872 177.519C395.567 178.028 395.43 178.62 395.479 179.211C395.487 179.828 395.532 180.445 395.613 181.057L395.328 180.772C395.861 180.719 396.377 180.643 396.893 180.629C397.409 180.614 397.932 180.644 398.46 180.669C399.522 180.733 400.63 180.861 401.88 181.022Z" fill="black"/>
<path d="M377.908 169.07C378.008 171.166 378.095 173.178 378.141 175.158C378.191 177.14 378.223 179.089 378.147 181.057L377.883 180.793C379.572 180.85 381.26 180.934 382.948 180.941C384.637 180.958 386.325 180.919 388.013 180.863L387.819 181.057C387.746 179.055 387.692 177.053 387.674 175.051C387.635 173.049 387.633 171.047 387.652 169.045L388.013 169.406C386.37 169.413 384.72 169.331 383.05 169.291L377.908 169.07ZM377.858 169.019L382.846 168.798C384.553 168.758 386.28 168.676 388.013 168.683C388.109 168.684 388.2 168.722 388.268 168.79C388.335 168.858 388.374 168.949 388.375 169.045C388.394 171.047 388.392 173.049 388.353 175.051C388.335 177.053 388.281 179.055 388.208 181.057L388.207 181.071C388.206 181.095 388.201 181.12 388.19 181.142C388.18 181.164 388.166 181.185 388.148 181.201C388.13 181.218 388.109 181.231 388.086 181.24C388.063 181.248 388.038 181.252 388.013 181.252C386.325 181.195 384.637 181.156 382.948 181.173C381.26 181.181 379.572 181.265 377.883 181.322C377.85 181.323 377.816 181.317 377.785 181.306C377.754 181.294 377.725 181.276 377.7 181.253C377.676 181.23 377.656 181.203 377.642 181.172C377.628 181.141 377.621 181.109 377.62 181.075L377.619 181.057C377.544 179.021 377.575 176.966 377.626 174.944C377.671 172.919 377.759 170.927 377.858 169.019Z" fill="black"/>
<path d="M370.945 184.61C371.045 186.706 371.132 188.718 371.178 190.698C371.228 192.68 371.26 194.629 371.184 196.597L370.92 196.333C372.609 196.39 374.297 196.474 375.985 196.481C377.674 196.498 379.362 196.459 381.05 196.403L380.856 196.597C380.783 194.595 380.729 192.593 380.711 190.591C380.672 188.589 380.67 186.587 380.689 184.585L381.05 184.946C379.407 184.953 377.757 184.871 376.087 184.831L370.945 184.61ZM370.895 184.559L375.883 184.338C377.59 184.297 379.317 184.216 381.05 184.223C381.146 184.224 381.237 184.262 381.305 184.33C381.372 184.398 381.411 184.489 381.412 184.585C381.431 186.587 381.429 188.589 381.39 190.591C381.372 192.593 381.318 194.595 381.245 196.597L381.244 196.611C381.243 196.635 381.238 196.66 381.228 196.682C381.217 196.704 381.203 196.725 381.185 196.741C381.167 196.758 381.146 196.771 381.123 196.78C381.1 196.788 381.075 196.792 381.05 196.792C379.362 196.735 377.674 196.696 375.985 196.713C374.297 196.721 372.609 196.805 370.92 196.862C370.887 196.863 370.853 196.857 370.822 196.845C370.791 196.834 370.762 196.816 370.737 196.793C370.713 196.77 370.693 196.742 370.679 196.712C370.666 196.681 370.658 196.648 370.657 196.615L370.656 196.597C370.581 194.561 370.612 192.506 370.663 190.484C370.708 188.459 370.796 186.467 370.895 184.559Z" fill="black"/>
<path d="M375.943 191.283C376.189 191.282 376.429 191.211 376.636 191.08C376.844 190.948 377.01 190.76 377.116 190.539C377.289 190.152 377.406 189.743 377.465 189.323C377.519 189.099 377.525 188.866 377.485 188.639C377.444 188.411 377.356 188.195 377.228 188.004C377.071 187.825 376.869 187.692 376.643 187.619C376.417 187.546 376.175 187.536 375.943 187.589C375.53 187.672 375.158 187.893 374.886 188.215C374.658 188.54 374.537 188.928 374.539 189.324C374.529 189.739 374.612 190.15 374.781 190.529C374.884 190.751 375.048 190.94 375.254 191.074C375.459 191.207 375.698 191.28 375.943 191.283ZM375.943 191.384C375.366 191.42 374.793 191.279 374.298 190.98C374.038 190.79 373.827 190.54 373.683 190.252C373.538 189.964 373.465 189.646 373.468 189.324C373.463 188.998 373.525 188.674 373.65 188.372C373.775 188.071 373.96 187.799 374.194 187.572C374.423 187.351 374.701 187.187 375.005 187.095C375.309 187.002 375.63 186.983 375.943 187.039C376.514 187.127 377.045 187.386 377.466 187.782C377.918 188.18 378.214 188.727 378.301 189.323C378.337 189.637 378.289 189.955 378.162 190.244C378.035 190.533 377.833 190.783 377.577 190.968C377.087 191.268 376.517 191.413 375.943 191.384Z" fill="black"/>
<path d="M379.192 196.632C378.143 196.808 377.085 196.926 376.024 196.986C375.454 197.011 374.88 197.04 374.298 197.025C373.716 197.012 373.134 196.935 372.569 196.882L372.512 196.877C372.479 196.874 372.447 196.864 372.417 196.849C372.388 196.833 372.362 196.812 372.341 196.787C372.32 196.761 372.304 196.732 372.294 196.7C372.284 196.668 372.281 196.635 372.284 196.602V196.597C372.365 195.985 372.41 195.368 372.418 194.751C372.379 194.106 372.47 193.46 372.687 192.852C372.943 192.197 373.388 191.632 373.965 191.231C374.543 190.83 375.227 190.611 375.93 190.6C376.633 190.59 377.323 190.79 377.912 191.174C378.501 191.558 378.962 192.109 379.237 192.756C379.502 193.399 379.58 194.103 379.461 194.788C379.393 195.464 379.28 196.094 379.192 196.632ZM379.122 196.562L378.852 194.714C378.823 194.168 378.673 193.636 378.414 193.155C378.15 192.704 377.779 192.325 377.334 192.051C376.889 191.777 376.384 191.617 375.863 191.583C375.316 191.569 374.775 191.698 374.293 191.957C373.811 192.215 373.405 192.595 373.114 193.059C372.809 193.568 372.671 194.159 372.721 194.751C372.729 195.368 372.774 195.985 372.854 196.597L372.569 196.312C373.103 196.259 373.619 196.183 374.135 196.169C374.651 196.154 375.174 196.184 375.702 196.209C376.764 196.273 377.872 196.401 379.122 196.562Z" fill="black"/>
<path d="M385.468 184.61C385.567 186.706 385.654 188.718 385.7 190.698C385.751 192.68 385.782 194.629 385.707 196.597L385.443 196.333C387.131 196.39 388.819 196.474 390.508 196.481C392.196 196.498 393.884 196.459 395.573 196.403L395.379 196.597C395.305 194.595 395.252 192.593 395.233 190.591C395.194 188.589 395.192 186.587 395.212 184.585L395.573 184.946C393.93 184.953 392.279 184.871 390.61 184.831L385.468 184.61ZM385.417 184.559L390.406 184.338C392.113 184.297 393.839 184.216 395.573 184.223C395.668 184.224 395.76 184.262 395.827 184.33C395.895 184.398 395.933 184.489 395.934 184.585C395.954 186.587 395.951 188.589 395.912 190.591C395.894 192.593 395.841 194.595 395.767 196.597V196.611C395.766 196.635 395.76 196.66 395.75 196.682C395.74 196.704 395.725 196.725 395.707 196.741C395.689 196.758 395.668 196.771 395.645 196.78C395.622 196.788 395.597 196.792 395.573 196.792C393.884 196.735 392.196 196.696 390.508 196.713C388.819 196.721 387.131 196.805 385.443 196.862C385.409 196.863 385.376 196.857 385.344 196.845C385.313 196.834 385.284 196.816 385.26 196.793C385.235 196.77 385.215 196.742 385.202 196.712C385.188 196.681 385.18 196.648 385.179 196.615L385.178 196.597C385.103 194.561 385.134 192.506 385.185 190.484C385.23 188.459 385.318 186.467 385.417 184.559Z" fill="black"/>
<path d="M400.137 184.61C400.237 186.706 400.324 188.718 400.37 190.698C400.421 192.68 400.452 194.629 400.377 196.597L400.112 196.333C401.801 196.39 403.489 196.474 405.178 196.481C406.866 196.498 408.554 196.459 410.243 196.403L410.048 196.597C409.975 194.595 409.922 192.593 409.903 190.591C409.864 188.589 409.862 186.587 409.882 184.585L410.243 184.946C408.6 184.953 406.949 184.871 405.279 184.831L400.137 184.61ZM400.087 184.559L405.075 184.338C406.783 184.297 408.509 184.216 410.243 184.223C410.338 184.224 410.429 184.262 410.497 184.33C410.565 184.398 410.603 184.489 410.604 184.585C410.624 186.587 410.621 188.589 410.582 190.591C410.564 192.593 410.511 194.595 410.437 196.597L410.436 196.611C410.436 196.635 410.43 196.66 410.42 196.682C410.409 196.704 410.395 196.725 410.377 196.741C410.359 196.758 410.338 196.771 410.315 196.78C410.292 196.788 410.267 196.792 410.243 196.792C408.554 196.735 406.866 196.696 405.178 196.713C403.489 196.721 401.801 196.805 400.112 196.862C400.079 196.863 400.045 196.857 400.014 196.845C399.983 196.834 399.954 196.816 399.929 196.793C399.905 196.77 399.885 196.742 399.871 196.712C399.858 196.681 399.85 196.648 399.849 196.615L399.848 196.597C399.773 194.561 399.804 192.506 399.855 190.484C399.9 188.459 399.988 186.467 400.087 184.559Z" fill="black"/>
<path d="M405.135 191.283C405.381 191.282 405.621 191.212 405.829 191.08C406.036 190.948 406.202 190.761 406.308 190.539C406.481 190.152 406.598 189.743 406.657 189.323C406.711 189.099 406.718 188.866 406.677 188.639C406.636 188.412 406.548 188.195 406.42 188.004C406.263 187.825 406.061 187.692 405.835 187.619C405.609 187.546 405.367 187.536 405.135 187.589C404.722 187.672 404.35 187.893 404.078 188.216C403.85 188.54 403.729 188.928 403.731 189.324C403.721 189.739 403.804 190.151 403.973 190.529C404.077 190.751 404.24 190.94 404.446 191.074C404.651 191.207 404.89 191.28 405.135 191.283ZM405.135 191.384C404.558 191.42 403.985 191.279 403.49 190.98C403.23 190.79 403.019 190.54 402.875 190.252C402.731 189.964 402.657 189.646 402.66 189.324C402.655 188.998 402.717 188.674 402.842 188.373C402.967 188.071 403.152 187.799 403.386 187.572C403.615 187.351 403.893 187.188 404.197 187.095C404.501 187.002 404.822 186.983 405.135 187.039C405.706 187.127 406.237 187.386 406.658 187.782C407.11 188.181 407.406 188.727 407.493 189.323C407.529 189.637 407.481 189.955 407.354 190.244C407.227 190.533 407.025 190.783 406.769 190.968C406.279 191.268 405.709 191.413 405.135 191.384Z" fill="black"/>
<path d="M408.384 196.632C407.335 196.808 406.277 196.926 405.216 196.986C404.646 197.011 404.072 197.04 403.49 197.025C402.908 197.012 402.326 196.935 401.761 196.882L401.704 196.877C401.671 196.874 401.639 196.864 401.609 196.849C401.58 196.833 401.554 196.812 401.533 196.787C401.512 196.761 401.496 196.732 401.486 196.7C401.476 196.668 401.473 196.635 401.476 196.602V196.597C401.557 195.985 401.602 195.368 401.61 194.751C401.571 194.106 401.662 193.46 401.879 192.852C402.135 192.197 402.58 191.632 403.157 191.231C403.735 190.83 404.419 190.611 405.122 190.6C405.825 190.59 406.515 190.79 407.104 191.174C407.693 191.558 408.154 192.109 408.429 192.756C408.694 193.399 408.772 194.103 408.653 194.788C408.585 195.464 408.472 196.094 408.384 196.632ZM408.313 196.562L408.044 194.714C408.015 194.168 407.865 193.636 407.606 193.155C407.342 192.704 406.971 192.325 406.526 192.051C406.081 191.777 405.576 191.617 405.055 191.583C404.508 191.569 403.967 191.698 403.485 191.957C403.003 192.215 402.597 192.595 402.306 193.059C402.001 193.568 401.863 194.159 401.912 194.751C401.921 195.368 401.966 195.985 402.046 196.597L401.761 196.312C402.295 196.259 402.811 196.183 403.327 196.169C403.843 196.154 404.366 196.184 404.894 196.209C405.956 196.273 407.064 196.401 408.313 196.562Z" fill="black"/>
<path d="M327.854 224.771L327.658 225.884L328.771 226.08L328.967 224.967L327.854 224.771Z" fill="black"/>
<path d="M368.656 233.061L366.44 232.673L366.634 231.56L368.85 231.947L368.656 233.061ZM364.224 232.285L362.008 231.898L362.202 230.784L364.418 231.172L364.224 232.285ZM359.792 231.51L357.576 231.122L357.77 230.009L359.986 230.397L359.792 231.51ZM355.36 230.735L353.144 230.346L353.339 229.233L355.555 229.621L355.36 230.735ZM350.929 229.958L348.713 229.571L348.907 228.457L351.123 228.845L350.929 229.958ZM346.497 229.183L344.281 228.795L344.475 227.682L346.691 228.07L346.497 229.183ZM342.065 228.408L339.849 228.02L340.043 226.907L342.259 227.294L342.065 228.408ZM337.633 227.631L335.417 227.244L335.611 226.13L337.827 226.518L337.633 227.631ZM333.201 226.856L330.985 226.468L331.18 225.355L333.395 225.743L333.201 226.856Z" fill="black"/>
<path d="M371.069 232.334L370.874 233.447L371.987 233.643L372.182 232.529L371.069 232.334Z" fill="black"/>
<path d="M324.21 228.654L323.974 229.761L325.079 229.997L325.316 228.89L324.21 228.654Z" fill="black"/>
<path d="M363.836 238.26L361.683 237.801L361.92 236.694L364.073 237.153L363.836 238.26ZM359.531 237.342L357.378 236.883L357.613 235.776L359.766 236.236L359.531 237.342ZM355.225 236.423L353.072 235.965L353.307 234.858L355.46 235.317L355.225 236.423ZM350.918 235.506L348.765 235.046L349.001 233.94L351.154 234.399L350.918 235.506ZM346.612 234.587L344.459 234.129L344.694 233.022L346.847 233.48L346.612 234.587ZM342.306 233.669L340.152 233.21L340.387 232.103L342.541 232.562L342.306 233.669ZM337.999 232.751L335.846 232.292L336.082 231.185L338.235 231.645L337.999 232.751ZM333.692 231.832L331.539 231.373L331.775 230.266L333.928 230.726L333.692 231.832ZM329.386 230.915L327.233 230.455L327.469 229.349L329.622 229.808L329.386 230.915Z" fill="black"/>
<path d="M366.226 237.612L365.99 238.718L367.095 238.955L367.331 237.848L366.226 237.612Z" fill="black"/>
<path d="M327.691 235.172C329.621 235.282 331.533 235.605 333.393 236.134C335.266 236.615 337.079 237.304 338.8 238.187C336.869 238.079 334.957 237.756 333.097 237.225C331.225 236.741 329.412 236.053 327.691 235.172Z" fill="black"/>
</svg>
