<svg width="188" height="217" viewBox="0 0 188 217" fill="none" xmlns="http://www.w3.org/2000/svg">
<path d="M29.6963 180.14C28.7763 180.14 27.9497 179.98 27.2163 179.66C26.4963 179.327 25.9297 178.873 25.5163 178.3C25.103 177.713 24.8897 177.04 24.8763 176.28H26.8163C26.883 176.933 27.1497 177.487 27.6163 177.94C28.0963 178.38 28.7897 178.6 29.6963 178.6C30.563 178.6 31.243 178.387 31.7363 177.96C32.243 177.52 32.4963 176.96 32.4963 176.28C32.4963 175.747 32.3497 175.313 32.0563 174.98C31.763 174.647 31.3963 174.393 30.9563 174.22C30.5163 174.047 29.923 173.86 29.1763 173.66C28.2563 173.42 27.5163 173.18 26.9563 172.94C26.4097 172.7 25.9363 172.327 25.5363 171.82C25.1497 171.3 24.9563 170.607 24.9563 169.74C24.9563 168.98 25.1497 168.307 25.5363 167.72C25.923 167.133 26.463 166.68 27.1563 166.36C27.863 166.04 28.6697 165.88 29.5763 165.88C30.883 165.88 31.9497 166.207 32.7763 166.86C33.6163 167.513 34.0897 168.38 34.1963 169.46H32.1963C32.1297 168.927 31.8497 168.46 31.3563 168.06C30.863 167.647 30.2097 167.44 29.3963 167.44C28.6363 167.44 28.0163 167.64 27.5363 168.04C27.0563 168.427 26.8163 168.973 26.8163 169.68C26.8163 170.187 26.9563 170.6 27.2363 170.92C27.5297 171.24 27.883 171.487 28.2963 171.66C28.723 171.82 29.3163 172.007 30.0763 172.22C30.9963 172.473 31.7363 172.727 32.2963 172.98C32.8563 173.22 33.3363 173.6 33.7363 174.12C34.1363 174.627 34.3363 175.32 34.3363 176.2C34.3363 176.88 34.1563 177.52 33.7963 178.12C33.4363 178.72 32.903 179.207 32.1963 179.58C31.4897 179.953 30.6563 180.14 29.6963 180.14ZM36.3346 174.48C36.3346 173.36 36.5613 172.38 37.0146 171.54C37.4679 170.687 38.0879 170.027 38.8746 169.56C39.6746 169.093 40.5613 168.86 41.5346 168.86C42.4946 168.86 43.3279 169.067 44.0346 169.48C44.7413 169.893 45.2679 170.413 45.6146 171.04V169.04H47.4546V180H45.6146V177.96C45.2546 178.6 44.7146 179.133 43.9946 179.56C43.2879 179.973 42.4613 180.18 41.5146 180.18C40.5413 180.18 39.6613 179.94 38.8746 179.46C38.0879 178.98 37.4679 178.307 37.0146 177.44C36.5613 176.573 36.3346 175.587 36.3346 174.48ZM45.6146 174.5C45.6146 173.673 45.4479 172.953 45.1146 172.34C44.7813 171.727 44.3279 171.26 43.7546 170.94C43.1946 170.607 42.5746 170.44 41.8946 170.44C41.2146 170.44 40.5946 170.6 40.0346 170.92C39.4746 171.24 39.0279 171.707 38.6946 172.32C38.3613 172.933 38.1946 173.653 38.1946 174.48C38.1946 175.32 38.3613 176.053 38.6946 176.68C39.0279 177.293 39.4746 177.767 40.0346 178.1C40.5946 178.42 41.2146 178.58 41.8946 178.58C42.5746 178.58 43.1946 178.42 43.7546 178.1C44.3279 177.767 44.7813 177.293 45.1146 176.68C45.4479 176.053 45.6146 175.327 45.6146 174.5ZM54.6102 178.32L58.0102 169.04H59.9502L55.6502 180H53.5302L49.2302 169.04H51.1902L54.6102 178.32ZM71.7412 174.1C71.7412 174.447 71.7212 174.813 71.6812 175.2H62.9212C62.9878 176.28 63.3545 177.127 64.0212 177.74C64.7012 178.34 65.5212 178.64 66.4812 178.64C67.2678 178.64 67.9212 178.46 68.4412 178.1C68.9745 177.727 69.3478 177.233 69.5612 176.62H71.5212C71.2278 177.673 70.6412 178.533 69.7612 179.2C68.8812 179.853 67.7878 180.18 66.4812 180.18C65.4412 180.18 64.5078 179.947 63.6812 179.48C62.8678 179.013 62.2278 178.353 61.7612 177.5C61.2945 176.633 61.0612 175.633 61.0612 174.5C61.0612 173.367 61.2878 172.373 61.7412 171.52C62.1945 170.667 62.8278 170.013 63.6412 169.56C64.4678 169.093 65.4145 168.86 66.4812 168.86C67.5212 168.86 68.4412 169.087 69.2412 169.54C70.0412 169.993 70.6545 170.62 71.0812 171.42C71.5212 172.207 71.7412 173.1 71.7412 174.1ZM69.8612 173.72C69.8612 173.027 69.7078 172.433 69.4012 171.94C69.0945 171.433 68.6745 171.053 68.1412 170.8C67.6212 170.533 67.0412 170.4 66.4012 170.4C65.4812 170.4 64.6945 170.693 64.0412 171.28C63.4012 171.867 63.0345 172.68 62.9412 173.72H69.8612ZM81.2955 170.82C81.6155 170.193 82.0689 169.707 82.6555 169.36C83.2555 169.013 83.9822 168.84 84.8355 168.84V170.72H84.3555C82.3155 170.72 81.2955 171.827 81.2955 174.04V180H79.4755V169.04H81.2955V170.82ZM96.9365 174.1C96.9365 174.447 96.9165 174.813 96.8765 175.2H88.1165C88.1832 176.28 88.5498 177.127 89.2165 177.74C89.8965 178.34 90.7165 178.64 91.6765 178.64C92.4632 178.64 93.1165 178.46 93.6365 178.1C94.1698 177.727 94.5432 177.233 94.7565 176.62H96.7165C96.4232 177.673 95.8365 178.533 94.9565 179.2C94.0765 179.853 92.9832 180.18 91.6765 180.18C90.6365 180.18 89.7032 179.947 88.8765 179.48C88.0632 179.013 87.4232 178.353 86.9565 177.5C86.4898 176.633 86.2565 175.633 86.2565 174.5C86.2565 173.367 86.4832 172.373 86.9365 171.52C87.3898 170.667 88.0232 170.013 88.8365 169.56C89.6632 169.093 90.6098 168.86 91.6765 168.86C92.7165 168.86 93.6365 169.087 94.4365 169.54C95.2365 169.993 95.8498 170.62 96.2765 171.42C96.7165 172.207 96.9365 173.1 96.9365 174.1ZM95.0565 173.72C95.0565 173.027 94.9032 172.433 94.5965 171.94C94.2898 171.433 93.8698 171.053 93.3365 170.8C92.8165 170.533 92.2365 170.4 91.5965 170.4C90.6765 170.4 89.8898 170.693 89.2365 171.28C88.5965 171.867 88.2298 172.68 88.1365 173.72H95.0565ZM101.159 171.06C101.519 170.433 102.052 169.913 102.759 169.5C103.479 169.073 104.312 168.86 105.259 168.86C106.232 168.86 107.112 169.093 107.899 169.56C108.699 170.027 109.325 170.687 109.779 171.54C110.232 172.38 110.459 173.36 110.459 174.48C110.459 175.587 110.232 176.573 109.779 177.44C109.325 178.307 108.699 178.98 107.899 179.46C107.112 179.94 106.232 180.18 105.259 180.18C104.325 180.18 103.499 179.973 102.779 179.56C102.072 179.133 101.532 178.607 101.159 177.98V185.2H99.3388V169.04H101.159V171.06ZM108.599 174.48C108.599 173.653 108.432 172.933 108.099 172.32C107.765 171.707 107.312 171.24 106.739 170.92C106.179 170.6 105.559 170.44 104.879 170.44C104.212 170.44 103.592 170.607 103.019 170.94C102.459 171.26 102.005 171.733 101.659 172.36C101.325 172.973 101.159 173.687 101.159 174.5C101.159 175.327 101.325 176.053 101.659 176.68C102.005 177.293 102.459 177.767 103.019 178.1C103.592 178.42 104.212 178.58 104.879 178.58C105.559 178.58 106.179 178.42 106.739 178.1C107.312 177.767 107.765 177.293 108.099 176.68C108.432 176.053 108.599 175.32 108.599 174.48ZM117.634 180.18C116.608 180.18 115.674 179.947 114.834 179.48C114.008 179.013 113.354 178.353 112.874 177.5C112.408 176.633 112.174 175.633 112.174 174.5C112.174 173.38 112.414 172.393 112.894 171.54C113.388 170.673 114.054 170.013 114.894 169.56C115.734 169.093 116.674 168.86 117.714 168.86C118.754 168.86 119.694 169.093 120.534 169.56C121.374 170.013 122.034 170.667 122.514 171.52C123.008 172.373 123.254 173.367 123.254 174.5C123.254 175.633 123.001 176.633 122.494 177.5C122.001 178.353 121.328 179.013 120.474 179.48C119.621 179.947 118.674 180.18 117.634 180.18ZM117.634 178.58C118.288 178.58 118.901 178.427 119.474 178.12C120.048 177.813 120.508 177.353 120.854 176.74C121.214 176.127 121.394 175.38 121.394 174.5C121.394 173.62 121.221 172.873 120.874 172.26C120.528 171.647 120.074 171.193 119.514 170.9C118.954 170.593 118.348 170.44 117.694 170.44C117.028 170.44 116.414 170.593 115.854 170.9C115.308 171.193 114.868 171.647 114.534 172.26C114.201 172.873 114.034 173.62 114.034 174.5C114.034 175.393 114.194 176.147 114.514 176.76C114.848 177.373 115.288 177.833 115.834 178.14C116.381 178.433 116.981 178.58 117.634 178.58ZM127.467 170.82C127.787 170.193 128.241 169.707 128.827 169.36C129.427 169.013 130.154 168.84 131.007 168.84V170.72H130.527C128.487 170.72 127.467 171.827 127.467 174.04V180H125.647V169.04H127.467V170.82ZM135.328 170.54V177C135.328 177.533 135.442 177.913 135.668 178.14C135.895 178.353 136.288 178.46 136.848 178.46H138.188V180H136.548C135.535 180 134.775 179.767 134.268 179.3C133.762 178.833 133.508 178.067 133.508 177V170.54H132.088V169.04H133.508V166.28H135.328V169.04H138.188V170.54H135.328ZM147.946 170.54V177C147.946 177.533 148.059 177.913 148.286 178.14C148.512 178.353 148.906 178.46 149.466 178.46H150.806V180H149.166C148.152 180 147.392 179.767 146.886 179.3C146.379 178.833 146.126 178.067 146.126 177V170.54H144.706V169.04H146.126V166.28H147.946V169.04H150.806V170.54H147.946ZM157.791 180.18C156.764 180.18 155.831 179.947 154.991 179.48C154.164 179.013 153.511 178.353 153.031 177.5C152.564 176.633 152.331 175.633 152.331 174.5C152.331 173.38 152.571 172.393 153.051 171.54C153.544 170.673 154.211 170.013 155.051 169.56C155.891 169.093 156.831 168.86 157.871 168.86C158.911 168.86 159.851 169.093 160.691 169.56C161.531 170.013 162.191 170.667 162.671 171.52C163.164 172.373 163.411 173.367 163.411 174.5C163.411 175.633 163.157 176.633 162.651 177.5C162.157 178.353 161.484 179.013 160.631 179.48C159.777 179.947 158.831 180.18 157.791 180.18ZM157.791 178.58C158.444 178.58 159.057 178.427 159.631 178.12C160.204 177.813 160.664 177.353 161.011 176.74C161.371 176.127 161.551 175.38 161.551 174.5C161.551 173.62 161.377 172.873 161.031 172.26C160.684 171.647 160.231 171.193 159.671 170.9C159.111 170.593 158.504 170.44 157.851 170.44C157.184 170.44 156.571 170.593 156.011 170.9C155.464 171.193 155.024 171.647 154.691 172.26C154.357 172.873 154.191 173.62 154.191 174.5C154.191 175.393 154.351 176.147 154.671 176.76C155.004 177.373 155.444 177.833 155.991 178.14C156.537 178.433 157.137 178.58 157.791 178.58ZM63.9616 201.06C64.3216 200.433 64.8549 199.913 65.5616 199.5C66.2816 199.073 67.1149 198.86 68.0616 198.86C69.0349 198.86 69.9149 199.093 70.7016 199.56C71.5016 200.027 72.1282 200.687 72.5816 201.54C73.0349 202.38 73.2616 203.36 73.2616 204.48C73.2616 205.587 73.0349 206.573 72.5816 207.44C72.1282 208.307 71.5016 208.98 70.7016 209.46C69.9149 209.94 69.0349 210.18 68.0616 210.18C67.1282 210.18 66.3016 209.973 65.5816 209.56C64.8749 209.133 64.3349 208.607 63.9616 207.98V215.2H62.1416V199.04H63.9616V201.06ZM71.4016 204.48C71.4016 203.653 71.2349 202.933 70.9016 202.32C70.5682 201.707 70.1149 201.24 69.5416 200.92C68.9816 200.6 68.3616 200.44 67.6816 200.44C67.0149 200.44 66.3949 200.607 65.8216 200.94C65.2616 201.26 64.8082 201.733 64.4616 202.36C64.1282 202.973 63.9616 203.687 63.9616 204.5C63.9616 205.327 64.1282 206.053 64.4616 206.68C64.8082 207.293 65.2616 207.767 65.8216 208.1C66.3949 208.42 67.0149 208.58 67.6816 208.58C68.3616 208.58 68.9816 208.42 69.5416 208.1C70.1149 207.767 70.5682 207.293 70.9016 206.68C71.2349 206.053 71.4016 205.32 71.4016 204.48ZM77.4772 200.82C77.7972 200.193 78.2505 199.707 78.8372 199.36C79.4372 199.013 80.1639 198.84 81.0172 198.84V200.72H80.5372C78.4972 200.72 77.4772 201.827 77.4772 204.04V210H75.6572V199.04H77.4772V200.82ZM87.8981 210.18C86.8715 210.18 85.9381 209.947 85.0981 209.48C84.2715 209.013 83.6181 208.353 83.1381 207.5C82.6715 206.633 82.4381 205.633 82.4381 204.5C82.4381 203.38 82.6781 202.393 83.1581 201.54C83.6515 200.673 84.3181 200.013 85.1581 199.56C85.9981 199.093 86.9381 198.86 87.9781 198.86C89.0181 198.86 89.9581 199.093 90.7981 199.56C91.6381 200.013 92.2981 200.667 92.7781 201.52C93.2715 202.373 93.5181 203.367 93.5181 204.5C93.5181 205.633 93.2648 206.633 92.7581 207.5C92.2648 208.353 91.5915 209.013 90.7381 209.48C89.8848 209.947 88.9381 210.18 87.8981 210.18ZM87.8981 208.58C88.5515 208.58 89.1648 208.427 89.7381 208.12C90.3115 207.813 90.7715 207.353 91.1181 206.74C91.4781 206.127 91.6581 205.38 91.6581 204.5C91.6581 203.62 91.4848 202.873 91.1381 202.26C90.7915 201.647 90.3381 201.193 89.7781 200.9C89.2181 200.593 88.6115 200.44 87.9581 200.44C87.2915 200.44 86.6781 200.593 86.1181 200.9C85.5715 201.193 85.1315 201.647 84.7981 202.26C84.4648 202.873 84.2981 203.62 84.2981 204.5C84.2981 205.393 84.4581 206.147 84.7781 206.76C85.1115 207.373 85.5515 207.833 86.0981 208.14C86.6448 208.433 87.2448 208.58 87.8981 208.58ZM100.371 200.54H98.0711V210H96.2511V200.54H94.8311V199.04H96.2511V198.26C96.2511 197.033 96.5644 196.14 97.1911 195.58C97.8311 195.007 98.8511 194.72 100.251 194.72V196.24C99.4511 196.24 98.8844 196.4 98.5511 196.72C98.2311 197.027 98.0711 197.54 98.0711 198.26V199.04H100.371V200.54ZM103.433 197.26C103.086 197.26 102.793 197.14 102.553 196.9C102.313 196.66 102.193 196.367 102.193 196.02C102.193 195.673 102.313 195.38 102.553 195.14C102.793 194.9 103.086 194.78 103.433 194.78C103.766 194.78 104.046 194.9 104.273 195.14C104.513 195.38 104.633 195.673 104.633 196.02C104.633 196.367 104.513 196.66 104.273 196.9C104.046 197.14 103.766 197.26 103.433 197.26ZM104.313 199.04V210H102.493V199.04H104.313ZM109.235 195.2V210H107.415V195.2H109.235ZM122.337 204.1C122.337 204.447 122.317 204.813 122.277 205.2H113.517C113.584 206.28 113.95 207.127 114.617 207.74C115.297 208.34 116.117 208.64 117.077 208.64C117.864 208.64 118.517 208.46 119.037 208.1C119.57 207.727 119.944 207.233 120.157 206.62H122.117C121.824 207.673 121.237 208.533 120.357 209.2C119.477 209.853 118.384 210.18 117.077 210.18C116.037 210.18 115.104 209.947 114.277 209.48C113.464 209.013 112.824 208.353 112.357 207.5C111.89 206.633 111.657 205.633 111.657 204.5C111.657 203.367 111.884 202.373 112.337 201.52C112.79 200.667 113.424 200.013 114.237 199.56C115.064 199.093 116.01 198.86 117.077 198.86C118.117 198.86 119.037 199.087 119.837 199.54C120.637 199.993 121.25 200.62 121.677 201.42C122.117 202.207 122.337 203.1 122.337 204.1ZM120.457 203.72C120.457 203.027 120.304 202.433 119.997 201.94C119.69 201.433 119.27 201.053 118.737 200.8C118.217 200.533 117.637 200.4 116.997 200.4C116.077 200.4 115.29 200.693 114.637 201.28C113.997 201.867 113.63 202.68 113.537 203.72H120.457ZM125.319 210.12C124.973 210.12 124.679 210 124.439 209.76C124.199 209.52 124.079 209.227 124.079 208.88C124.079 208.533 124.199 208.24 124.439 208C124.679 207.76 124.973 207.64 125.319 207.64C125.653 207.64 125.933 207.76 126.159 208C126.399 208.24 126.519 208.533 126.519 208.88C126.519 209.227 126.399 209.52 126.159 209.76C125.933 210 125.653 210.12 125.319 210.12Z" fill="#333333"/>
<path d="M63.0497 38.175C61.883 38.175 60.833 37.975 59.8997 37.575C58.9664 37.1583 58.233 36.575 57.6997 35.825C57.1664 35.075 56.8997 34.2 56.8997 33.2H59.9497C60.0164 33.95 60.308 34.5667 60.8247 35.05C61.358 35.5333 62.0997 35.775 63.0497 35.775C64.033 35.775 64.7997 35.5417 65.3497 35.075C65.8997 34.5917 66.1747 33.975 66.1747 33.225C66.1747 32.6417 65.9997 32.1667 65.6497 31.8C65.3164 31.4333 64.8914 31.15 64.3747 30.95C63.8747 30.75 63.1747 30.5333 62.2747 30.3C61.1414 30 60.2164 29.7 59.4997 29.4C58.7997 29.0833 58.1997 28.6 57.6997 27.95C57.1997 27.3 56.9497 26.4333 56.9497 25.35C56.9497 24.35 57.1997 23.475 57.6997 22.725C58.1997 21.975 58.8997 21.4 59.7997 21C60.6997 20.6 61.7414 20.4 62.9247 20.4C64.608 20.4 65.983 20.825 67.0497 21.675C68.133 22.5083 68.733 23.6583 68.8497 25.125H65.6997C65.6497 24.4917 65.3497 23.95 64.7997 23.5C64.2497 23.05 63.5247 22.825 62.6247 22.825C61.808 22.825 61.1414 23.0333 60.6247 23.45C60.108 23.8667 59.8497 24.4667 59.8497 25.25C59.8497 25.7833 60.008 26.225 60.3247 26.575C60.658 26.9083 61.0747 27.175 61.5747 27.375C62.0747 27.575 62.758 27.7917 63.6247 28.025C64.7747 28.3417 65.708 28.6583 66.4247 28.975C67.158 29.2917 67.7747 29.7833 68.2747 30.45C68.7914 31.1 69.0497 31.975 69.0497 33.075C69.0497 33.9583 68.808 34.7917 68.3247 35.575C67.858 36.3583 67.1664 36.9917 66.2497 37.475C65.3497 37.9417 64.283 38.175 63.0497 38.175ZM75.7376 26.55V34.175C75.7376 34.6917 75.8543 35.0667 76.0876 35.3C76.3376 35.5167 76.7543 35.625 77.3376 35.625H79.0876V38H76.8376C75.5543 38 74.5709 37.7 73.8876 37.1C73.2043 36.5 72.8626 35.525 72.8626 34.175V26.55H71.2376V24.225H72.8626V20.8H75.7376V24.225H79.0876V26.55H75.7376ZM94.3394 30.775C94.3394 31.2917 94.306 31.7583 94.2394 32.175H83.7144C83.7977 33.275 84.206 34.1583 84.9394 34.825C85.6727 35.4917 86.5727 35.825 87.6394 35.825C89.1727 35.825 90.256 35.1833 90.8894 33.9H93.9644C93.5477 35.1667 92.7894 36.2083 91.6894 37.025C90.606 37.825 89.256 38.225 87.6394 38.225C86.3227 38.225 85.1394 37.9333 84.0894 37.35C83.056 36.75 82.2394 35.9167 81.6394 34.85C81.056 33.7667 80.7644 32.5167 80.7644 31.1C80.7644 29.6833 81.0477 28.4417 81.6144 27.375C82.1977 26.2917 83.006 25.4583 84.0394 24.875C85.0894 24.2917 86.2894 24 87.6394 24C88.9394 24 90.0977 24.2833 91.1144 24.85C92.131 25.4167 92.9227 26.2167 93.4894 27.25C94.056 28.2667 94.3394 29.4417 94.3394 30.775ZM91.3644 29.875C91.3477 28.825 90.9727 27.9833 90.2394 27.35C89.506 26.7167 88.5977 26.4 87.5144 26.4C86.531 26.4 85.6894 26.7167 84.9894 27.35C84.2894 27.9667 83.8727 28.8083 83.7394 29.875H91.3644ZM99.994 26.25C100.477 25.6167 101.136 25.0833 101.969 24.65C102.802 24.2167 103.744 24 104.794 24C105.994 24 107.086 24.3 108.069 24.9C109.069 25.4833 109.852 26.3083 110.419 27.375C110.986 28.4417 111.269 29.6667 111.269 31.05C111.269 32.4333 110.986 33.675 110.419 34.775C109.852 35.8583 109.069 36.7083 108.069 37.325C107.086 37.925 105.994 38.225 104.794 38.225C103.744 38.225 102.811 38.0167 101.994 37.6C101.177 37.1667 100.511 36.6333 99.994 36V44.55H97.144V24.225H99.994V26.25ZM108.369 31.05C108.369 30.1 108.169 29.2833 107.769 28.6C107.386 27.9 106.869 27.375 106.219 27.025C105.586 26.6583 104.902 26.475 104.169 26.475C103.452 26.475 102.769 26.6583 102.119 27.025C101.486 27.3917 100.969 27.925 100.569 28.625C100.186 29.325 99.994 30.15 99.994 31.1C99.994 32.05 100.186 32.8833 100.569 33.6C100.969 34.3 101.486 34.8333 102.119 35.2C102.769 35.5667 103.452 35.75 104.169 35.75C104.902 35.75 105.586 35.5667 106.219 35.2C106.869 34.8167 107.386 34.2667 107.769 33.55C108.169 32.8333 108.369 32 108.369 31.05ZM120.157 24.275C120.257 22.725 120.848 21.5167 121.932 20.65C123.032 19.7833 124.432 19.35 126.132 19.35C127.298 19.35 128.307 19.5583 129.157 19.975C130.007 20.3917 130.648 20.9583 131.082 21.675C131.515 22.3917 131.732 23.2 131.732 24.1C131.732 25.1333 131.457 26.0167 130.907 26.75C130.357 27.4833 129.698 27.975 128.932 28.225V28.325C129.915 28.625 130.682 29.175 131.232 29.975C131.782 30.7583 132.057 31.7667 132.057 33C132.057 33.9833 131.832 34.8583 131.382 35.625C130.932 36.3917 130.265 37 129.382 37.45C128.498 37.8833 127.44 38.1 126.207 38.1C124.407 38.1 122.923 37.6417 121.757 36.725C120.607 35.7917 119.99 34.4583 119.907 32.725H122.657C122.723 33.6083 123.065 34.3333 123.682 34.9C124.298 35.45 125.132 35.725 126.182 35.725C127.198 35.725 127.982 35.45 128.532 34.9C129.082 34.3333 129.357 33.6083 129.357 32.725C129.357 31.5583 128.982 30.7333 128.232 30.25C127.498 29.75 126.365 29.5 124.832 29.5H124.182V27.15H124.857C126.207 27.1333 127.232 26.9083 127.932 26.475C128.648 26.0417 129.007 25.3583 129.007 24.425C129.007 23.625 128.748 22.9917 128.232 22.525C127.715 22.0417 126.982 21.8 126.032 21.8C125.098 21.8 124.373 22.0417 123.857 22.525C123.34 22.9917 123.032 23.575 122.932 24.275H120.157Z" fill="#333333"/>
<path d="M94.5 143.5C117.696 143.5 136.5 124.696 136.5 101.5C136.5 78.304 117.696 59.5 94.5 59.5C71.304 59.5 52.5 78.304 52.5 101.5C52.5 124.696 71.304 143.5 94.5 143.5Z" fill="#F9B56F" fill-opacity="0.05" stroke="#F9B56F" stroke-width="3"/>
<path fill-rule="evenodd" clip-rule="evenodd" d="M98.6247 83.2004H106.3C115.525 83.2004 120.025 88.1254 120 98.2254V110.4C120 120.05 114.05 126 104.375 126H85.5997C75.9747 126 69.9997 120.05 69.9997 110.375V91.6004C69.9997 81.2504 74.5997 76.0004 83.6747 76.0004H87.6247C89.9522 75.9754 92.1247 77.0504 93.5497 78.8754L95.7497 81.8004C96.4497 82.6754 97.4997 83.2004 98.6247 83.2004ZM83.4247 109.225H106.575C107.6 109.225 108.425 108.375 108.425 107.35C108.425 106.3 107.6 105.475 106.575 105.475H83.4247C82.3747 105.475 81.5497 106.3 81.5497 107.35C81.5497 108.375 82.3747 109.225 83.4247 109.225Z" fill="#F9B56F"/>
</svg>
