<svg width="188" height="217" viewBox="0 0 188 217" fill="none" xmlns="http://www.w3.org/2000/svg">
<path d="M34.9991 180L31.6791 174.3H29.4791V180H27.6591V166.06H32.1591C33.2125 166.06 34.0991 166.24 34.8191 166.6C35.5525 166.96 36.0991 167.447 36.4591 168.06C36.8191 168.673 36.9991 169.373 36.9991 170.16C36.9991 171.12 36.7191 171.967 36.1591 172.7C35.6125 173.433 34.7858 173.92 33.6791 174.16L37.1791 180H34.9991ZM29.4791 172.84H32.1591C33.1458 172.84 33.8858 172.6 34.3791 172.12C34.8725 171.627 35.1191 170.973 35.1191 170.16C35.1191 169.333 34.8725 168.693 34.3791 168.24C33.8991 167.787 33.1591 167.56 32.1591 167.56H29.4791V172.84ZM49.8271 174.1C49.8271 174.447 49.8071 174.813 49.7671 175.2H41.0071C41.0738 176.28 41.4404 177.127 42.1071 177.74C42.7871 178.34 43.6071 178.64 44.5671 178.64C45.3538 178.64 46.0071 178.46 46.5271 178.1C47.0604 177.727 47.4338 177.233 47.6471 176.62H49.6071C49.3138 177.673 48.7271 178.533 47.8471 179.2C46.9671 179.853 45.8738 180.18 44.5671 180.18C43.5271 180.18 42.5938 179.947 41.7671 179.48C40.9538 179.013 40.3138 178.353 39.8471 177.5C39.3804 176.633 39.1471 175.633 39.1471 174.5C39.1471 173.367 39.3738 172.373 39.8271 171.52C40.2804 170.667 40.9138 170.013 41.7271 169.56C42.5538 169.093 43.5004 168.86 44.5671 168.86C45.6071 168.86 46.5271 169.087 47.3271 169.54C48.1271 169.993 48.7404 170.62 49.1671 171.42C49.6071 172.207 49.8271 173.1 49.8271 174.1ZM47.9471 173.72C47.9471 173.027 47.7938 172.433 47.4871 171.94C47.1804 171.433 46.7604 171.053 46.2271 170.8C45.7071 170.533 45.1271 170.4 44.4871 170.4C43.5671 170.4 42.7804 170.693 42.1271 171.28C41.4871 171.867 41.1204 172.68 41.0271 173.72H47.9471ZM56.3095 178.32L59.7095 169.04H61.6495L57.3495 180H55.2295L50.9295 169.04H52.8895L56.3095 178.32ZM64.3804 167.26C64.0337 167.26 63.7404 167.14 63.5004 166.9C63.2604 166.66 63.1404 166.367 63.1404 166.02C63.1404 165.673 63.2604 165.38 63.5004 165.14C63.7404 164.9 64.0337 164.78 64.3804 164.78C64.7137 164.78 64.9937 164.9 65.2204 165.14C65.4604 165.38 65.5804 165.673 65.5804 166.02C65.5804 166.367 65.4604 166.66 65.2204 166.9C64.9937 167.14 64.7137 167.26 64.3804 167.26ZM65.2604 169.04V180H63.4404V169.04H65.2604ZM78.3623 174.1C78.3623 174.447 78.3423 174.813 78.3023 175.2H69.5423C69.6089 176.28 69.9756 177.127 70.6423 177.74C71.3223 178.34 72.1423 178.64 73.1023 178.64C73.8889 178.64 74.5423 178.46 75.0623 178.1C75.5956 177.727 75.9689 177.233 76.1823 176.62H78.1423C77.8489 177.673 77.2623 178.533 76.3823 179.2C75.5023 179.853 74.4089 180.18 73.1023 180.18C72.0623 180.18 71.1289 179.947 70.3023 179.48C69.4889 179.013 68.8489 178.353 68.3823 177.5C67.9156 176.633 67.6823 175.633 67.6823 174.5C67.6823 173.367 67.9089 172.373 68.3623 171.52C68.8156 170.667 69.4489 170.013 70.2623 169.56C71.0889 169.093 72.0356 168.86 73.1023 168.86C74.1423 168.86 75.0623 169.087 75.8623 169.54C76.6623 169.993 77.2756 170.62 77.7023 171.42C78.1423 172.207 78.3623 173.1 78.3623 174.1ZM76.4823 173.72C76.4823 173.027 76.3289 172.433 76.0223 171.94C75.7156 171.433 75.2956 171.053 74.7623 170.8C74.2423 170.533 73.6623 170.4 73.0223 170.4C72.1023 170.4 71.3156 170.693 70.6623 171.28C70.0223 171.867 69.6556 172.68 69.5623 173.72H76.4823ZM95.3646 169.04L91.9446 180H90.0646L87.4246 171.3L84.7846 180H82.9046L79.4646 169.04H81.3246L83.8446 178.24L86.5646 169.04H88.4246L91.0846 178.26L93.5646 169.04H95.3646ZM104.323 170.82C104.643 170.193 105.096 169.707 105.683 169.36C106.283 169.013 107.01 168.84 107.863 168.84V170.72H107.383C105.343 170.72 104.323 171.827 104.323 174.04V180H102.503V169.04H104.323V170.82ZM119.964 174.1C119.964 174.447 119.944 174.813 119.904 175.2H111.144C111.21 176.28 111.577 177.127 112.244 177.74C112.924 178.34 113.744 178.64 114.704 178.64C115.49 178.64 116.144 178.46 116.664 178.1C117.197 177.727 117.57 177.233 117.784 176.62H119.744C119.45 177.673 118.864 178.533 117.984 179.2C117.104 179.853 116.01 180.18 114.704 180.18C113.664 180.18 112.73 179.947 111.904 179.48C111.09 179.013 110.45 178.353 109.984 177.5C109.517 176.633 109.284 175.633 109.284 174.5C109.284 173.367 109.51 172.373 109.964 171.52C110.417 170.667 111.05 170.013 111.864 169.56C112.69 169.093 113.637 168.86 114.704 168.86C115.744 168.86 116.664 169.087 117.464 169.54C118.264 169.993 118.877 170.62 119.304 171.42C119.744 172.207 119.964 173.1 119.964 174.1ZM118.084 173.72C118.084 173.027 117.93 172.433 117.624 171.94C117.317 171.433 116.897 171.053 116.364 170.8C115.844 170.533 115.264 170.4 114.624 170.4C113.704 170.4 112.917 170.693 112.264 171.28C111.624 171.867 111.257 172.68 111.164 173.72H118.084ZM124.186 171.06C124.546 170.433 125.08 169.913 125.786 169.5C126.506 169.073 127.34 168.86 128.286 168.86C129.26 168.86 130.14 169.093 130.926 169.56C131.726 170.027 132.353 170.687 132.806 171.54C133.26 172.38 133.486 173.36 133.486 174.48C133.486 175.587 133.26 176.573 132.806 177.44C132.353 178.307 131.726 178.98 130.926 179.46C130.14 179.94 129.26 180.18 128.286 180.18C127.353 180.18 126.526 179.973 125.806 179.56C125.1 179.133 124.56 178.607 124.186 177.98V185.2H122.366V169.04H124.186V171.06ZM131.626 174.48C131.626 173.653 131.46 172.933 131.126 172.32C130.793 171.707 130.34 171.24 129.766 170.92C129.206 170.6 128.586 170.44 127.906 170.44C127.24 170.44 126.62 170.607 126.046 170.94C125.486 171.26 125.033 171.733 124.686 172.36C124.353 172.973 124.186 173.687 124.186 174.5C124.186 175.327 124.353 176.053 124.686 176.68C125.033 177.293 125.486 177.767 126.046 178.1C126.62 178.42 127.24 178.58 127.906 178.58C128.586 178.58 129.206 178.42 129.766 178.1C130.34 177.767 130.793 177.293 131.126 176.68C131.46 176.053 131.626 175.32 131.626 174.48ZM140.662 180.18C139.635 180.18 138.702 179.947 137.862 179.48C137.035 179.013 136.382 178.353 135.902 177.5C135.435 176.633 135.202 175.633 135.202 174.5C135.202 173.38 135.442 172.393 135.922 171.54C136.415 170.673 137.082 170.013 137.922 169.56C138.762 169.093 139.702 168.86 140.742 168.86C141.782 168.86 142.722 169.093 143.562 169.56C144.402 170.013 145.062 170.667 145.542 171.52C146.035 172.373 146.282 173.367 146.282 174.5C146.282 175.633 146.028 176.633 145.522 177.5C145.028 178.353 144.355 179.013 143.502 179.48C142.648 179.947 141.702 180.18 140.662 180.18ZM140.662 178.58C141.315 178.58 141.928 178.427 142.502 178.12C143.075 177.813 143.535 177.353 143.882 176.74C144.242 176.127 144.422 175.38 144.422 174.5C144.422 173.62 144.248 172.873 143.902 172.26C143.555 171.647 143.102 171.193 142.542 170.9C141.982 170.593 141.375 170.44 140.722 170.44C140.055 170.44 139.442 170.593 138.882 170.9C138.335 171.193 137.895 171.647 137.562 172.26C137.228 172.873 137.062 173.62 137.062 174.5C137.062 175.393 137.222 176.147 137.542 176.76C137.875 177.373 138.315 177.833 138.862 178.14C139.408 178.433 140.008 178.58 140.662 178.58ZM150.495 170.82C150.815 170.193 151.268 169.707 151.855 169.36C152.455 169.013 153.181 168.84 154.035 168.84V170.72H153.555C151.515 170.72 150.495 171.827 150.495 174.04V180H148.675V169.04H150.495V170.82ZM158.356 170.54V177C158.356 177.533 158.469 177.913 158.696 178.14C158.922 178.353 159.316 178.46 159.876 178.46H161.216V180H159.576C158.562 180 157.802 179.767 157.296 179.3C156.789 178.833 156.536 178.067 156.536 177V170.54H155.116V169.04H156.536V166.28H158.356V169.04H161.216V170.54H158.356ZM48.9708 210.18C48.1308 210.18 47.3774 210.04 46.7108 209.76C46.0441 209.467 45.5174 209.067 45.1308 208.56C44.7441 208.04 44.5308 207.447 44.4908 206.78H46.3708C46.4241 207.327 46.6774 207.773 47.1308 208.12C47.5974 208.467 48.2041 208.64 48.9508 208.64C49.6441 208.64 50.1908 208.487 50.5908 208.18C50.9908 207.873 51.1908 207.487 51.1908 207.02C51.1908 206.54 50.9774 206.187 50.5508 205.96C50.1241 205.72 49.4641 205.487 48.5708 205.26C47.7574 205.047 47.0908 204.833 46.5708 204.62C46.0641 204.393 45.6241 204.067 45.2508 203.64C44.8908 203.2 44.7108 202.627 44.7108 201.92C44.7108 201.36 44.8774 200.847 45.2108 200.38C45.5441 199.913 46.0174 199.547 46.6308 199.28C47.2441 199 47.9441 198.86 48.7308 198.86C49.9441 198.86 50.9241 199.167 51.6708 199.78C52.4174 200.393 52.8174 201.233 52.8708 202.3H51.0508C51.0108 201.727 50.7774 201.267 50.3508 200.92C49.9374 200.573 49.3774 200.4 48.6708 200.4C48.0174 200.4 47.4974 200.54 47.1108 200.82C46.7241 201.1 46.5308 201.467 46.5308 201.92C46.5308 202.28 46.6441 202.58 46.8708 202.82C47.1108 203.047 47.4041 203.233 47.7508 203.38C48.1108 203.513 48.6041 203.667 49.2308 203.84C50.0174 204.053 50.6574 204.267 51.1508 204.48C51.6441 204.68 52.0641 204.987 52.4108 205.4C52.7708 205.813 52.9574 206.353 52.9708 207.02C52.9708 207.62 52.8041 208.16 52.4708 208.64C52.1374 209.12 51.6641 209.5 51.0508 209.78C50.4508 210.047 49.7574 210.18 48.9708 210.18ZM65.26 199.04V210H63.44V208.38C63.0933 208.94 62.6067 209.38 61.98 209.7C61.3667 210.007 60.6867 210.16 59.94 210.16C59.0867 210.16 58.32 209.987 57.64 209.64C56.96 209.28 56.42 208.747 56.02 208.04C55.6333 207.333 55.44 206.473 55.44 205.46V199.04H57.24V205.22C57.24 206.3 57.5133 207.133 58.06 207.72C58.6067 208.293 59.3533 208.58 60.3 208.58C61.2733 208.58 62.04 208.28 62.6 207.68C63.16 207.08 63.44 206.207 63.44 205.06V199.04H65.26ZM81.513 198.84C82.3663 198.84 83.1263 199.02 83.793 199.38C84.4596 199.727 84.9863 200.253 85.373 200.96C85.7596 201.667 85.953 202.527 85.953 203.54V210H84.153V203.8C84.153 202.707 83.8796 201.873 83.333 201.3C82.7996 200.713 82.073 200.42 81.153 200.42C80.2063 200.42 79.453 200.727 78.893 201.34C78.333 201.94 78.053 202.813 78.053 203.96V210H76.253V203.8C76.253 202.707 75.9796 201.873 75.433 201.3C74.8996 200.713 74.173 200.42 73.253 200.42C72.3063 200.42 71.553 200.727 70.993 201.34C70.433 201.94 70.153 202.813 70.153 203.96V210H68.333V199.04H70.153V200.62C70.513 200.047 70.993 199.607 71.593 199.3C72.2063 198.993 72.8796 198.84 73.613 198.84C74.533 198.84 75.3463 199.047 76.053 199.46C76.7596 199.873 77.2863 200.48 77.633 201.28C77.9396 200.507 78.4463 199.907 79.153 199.48C79.8596 199.053 80.6463 198.84 81.513 198.84ZM102.118 198.84C102.972 198.84 103.732 199.02 104.398 199.38C105.065 199.727 105.592 200.253 105.978 200.96C106.365 201.667 106.558 202.527 106.558 203.54V210H104.758V203.8C104.758 202.707 104.485 201.873 103.938 201.3C103.405 200.713 102.678 200.42 101.758 200.42C100.812 200.42 100.058 200.727 99.4984 201.34C98.9384 201.94 98.6584 202.813 98.6584 203.96V210H96.8584V203.8C96.8584 202.707 96.5851 201.873 96.0384 201.3C95.5051 200.713 94.7784 200.42 93.8584 200.42C92.9118 200.42 92.1584 200.727 91.5984 201.34C91.0384 201.94 90.7584 202.813 90.7584 203.96V210H88.9384V199.04H90.7584V200.62C91.1184 200.047 91.5984 199.607 92.1984 199.3C92.8118 198.993 93.4851 198.84 94.2184 198.84C95.1384 198.84 95.9518 199.047 96.6584 199.46C97.3651 199.873 97.8918 200.48 98.2384 201.28C98.5451 200.507 99.0518 199.907 99.7584 199.48C100.465 199.053 101.252 198.84 102.118 198.84ZM108.864 204.48C108.864 203.36 109.091 202.38 109.544 201.54C109.997 200.687 110.617 200.027 111.404 199.56C112.204 199.093 113.091 198.86 114.064 198.86C115.024 198.86 115.857 199.067 116.564 199.48C117.271 199.893 117.797 200.413 118.144 201.04V199.04H119.984V210H118.144V207.96C117.784 208.6 117.244 209.133 116.524 209.56C115.817 209.973 114.991 210.18 114.044 210.18C113.071 210.18 112.191 209.94 111.404 209.46C110.617 208.98 109.997 208.307 109.544 207.44C109.091 206.573 108.864 205.587 108.864 204.48ZM118.144 204.5C118.144 203.673 117.977 202.953 117.644 202.34C117.311 201.727 116.857 201.26 116.284 200.94C115.724 200.607 115.104 200.44 114.424 200.44C113.744 200.44 113.124 200.6 112.564 200.92C112.004 201.24 111.557 201.707 111.224 202.32C110.891 202.933 110.724 203.653 110.724 204.48C110.724 205.32 110.891 206.053 111.224 206.68C111.557 207.293 112.004 207.767 112.564 208.1C113.124 208.42 113.744 208.58 114.424 208.58C115.104 208.58 115.724 208.42 116.284 208.1C116.857 207.767 117.311 207.293 117.644 206.68C117.977 206.053 118.144 205.327 118.144 204.5ZM124.88 200.82C125.2 200.193 125.653 199.707 126.24 199.36C126.84 199.013 127.566 198.84 128.42 198.84V200.72H127.94C125.9 200.72 124.88 201.827 124.88 204.04V210H123.06V199.04H124.88V200.82ZM139.96 199.04L133.36 215.16H131.48L133.64 209.88L129.22 199.04H131.24L134.68 207.92L138.08 199.04H139.96ZM142.37 210.12C142.023 210.12 141.73 210 141.49 209.76C141.25 209.52 141.13 209.227 141.13 208.88C141.13 208.533 141.25 208.24 141.49 208C141.73 207.76 142.023 207.64 142.37 207.64C142.703 207.64 142.983 207.76 143.21 208C143.45 208.24 143.57 208.533 143.57 208.88C143.57 209.227 143.45 209.52 143.21 209.76C142.983 210 142.703 210.12 142.37 210.12Z" fill="#333333"/>
<path d="M63.2572 38.175C62.0906 38.175 61.0406 37.975 60.1072 37.575C59.1739 37.1583 58.4406 36.575 57.9072 35.825C57.3739 35.075 57.1072 34.2 57.1072 33.2H60.1572C60.2239 33.95 60.5156 34.5667 61.0322 35.05C61.5656 35.5333 62.3072 35.775 63.2572 35.775C64.2406 35.775 65.0072 35.5417 65.5572 35.075C66.1072 34.5917 66.3822 33.975 66.3822 33.225C66.3822 32.6417 66.2072 32.1667 65.8572 31.8C65.5239 31.4333 65.0989 31.15 64.5822 30.95C64.0822 30.75 63.3822 30.5333 62.4822 30.3C61.3489 30 60.4239 29.7 59.7072 29.4C59.0072 29.0833 58.4072 28.6 57.9072 27.95C57.4072 27.3 57.1572 26.4333 57.1572 25.35C57.1572 24.35 57.4072 23.475 57.9072 22.725C58.4072 21.975 59.1072 21.4 60.0072 21C60.9072 20.6 61.9489 20.4 63.1322 20.4C64.8156 20.4 66.1906 20.825 67.2572 21.675C68.3406 22.5083 68.9406 23.6583 69.0572 25.125H65.9072C65.8572 24.4917 65.5572 23.95 65.0072 23.5C64.4572 23.05 63.7322 22.825 62.8322 22.825C62.0156 22.825 61.3489 23.0333 60.8322 23.45C60.3156 23.8667 60.0572 24.4667 60.0572 25.25C60.0572 25.7833 60.2156 26.225 60.5322 26.575C60.8656 26.9083 61.2822 27.175 61.7822 27.375C62.2822 27.575 62.9656 27.7917 63.8322 28.025C64.9822 28.3417 65.9156 28.6583 66.6322 28.975C67.3656 29.2917 67.9822 29.7833 68.4822 30.45C68.9989 31.1 69.2572 31.975 69.2572 33.075C69.2572 33.9583 69.0156 34.7917 68.5322 35.575C68.0656 36.3583 67.3739 36.9917 66.4572 37.475C65.5572 37.9417 64.4906 38.175 63.2572 38.175ZM75.9451 26.55V34.175C75.9451 34.6917 76.0618 35.0667 76.2951 35.3C76.5451 35.5167 76.9618 35.625 77.5451 35.625H79.2951V38H77.0451C75.7618 38 74.7785 37.7 74.0951 37.1C73.4118 36.5 73.0701 35.525 73.0701 34.175V26.55H71.4451V24.225H73.0701V20.8H75.9451V24.225H79.2951V26.55H75.9451ZM94.5469 30.775C94.5469 31.2917 94.5135 31.7583 94.4469 32.175H83.9219C84.0052 33.275 84.4135 34.1583 85.1469 34.825C85.8802 35.4917 86.7802 35.825 87.8469 35.825C89.3802 35.825 90.4635 35.1833 91.0969 33.9H94.1719C93.7552 35.1667 92.9969 36.2083 91.8969 37.025C90.8135 37.825 89.4635 38.225 87.8469 38.225C86.5302 38.225 85.3469 37.9333 84.2969 37.35C83.2635 36.75 82.4469 35.9167 81.8469 34.85C81.2635 33.7667 80.9719 32.5167 80.9719 31.1C80.9719 29.6833 81.2552 28.4417 81.8219 27.375C82.4052 26.2917 83.2135 25.4583 84.2469 24.875C85.2969 24.2917 86.4969 24 87.8469 24C89.1469 24 90.3052 24.2833 91.3219 24.85C92.3385 25.4167 93.1302 26.2167 93.6969 27.25C94.2635 28.2667 94.5469 29.4417 94.5469 30.775ZM91.5719 29.875C91.5552 28.825 91.1802 27.9833 90.4469 27.35C89.7135 26.7167 88.8052 26.4 87.7219 26.4C86.7385 26.4 85.8969 26.7167 85.1969 27.35C84.4969 27.9667 84.0802 28.8083 83.9469 29.875H91.5719ZM100.202 26.25C100.685 25.6167 101.343 25.0833 102.177 24.65C103.01 24.2167 103.952 24 105.002 24C106.202 24 107.293 24.3 108.277 24.9C109.277 25.4833 110.06 26.3083 110.627 27.375C111.193 28.4417 111.477 29.6667 111.477 31.05C111.477 32.4333 111.193 33.675 110.627 34.775C110.06 35.8583 109.277 36.7083 108.277 37.325C107.293 37.925 106.202 38.225 105.002 38.225C103.952 38.225 103.018 38.0167 102.202 37.6C101.385 37.1667 100.718 36.6333 100.202 36V44.55H97.3516V24.225H100.202V26.25ZM108.577 31.05C108.577 30.1 108.377 29.2833 107.977 28.6C107.593 27.9 107.077 27.375 106.427 27.025C105.793 26.6583 105.11 26.475 104.377 26.475C103.66 26.475 102.977 26.6583 102.327 27.025C101.693 27.3917 101.177 27.925 100.777 28.625C100.393 29.325 100.202 30.15 100.202 31.1C100.202 32.05 100.393 32.8833 100.777 33.6C101.177 34.3 101.693 34.8333 102.327 35.2C102.977 35.5667 103.66 35.75 104.377 35.75C105.11 35.75 105.793 35.5667 106.427 35.2C107.077 34.8167 107.593 34.2667 107.977 33.55C108.377 32.8333 108.577 32 108.577 31.05ZM121.989 34.125C123.589 32.7417 124.847 31.6083 125.764 30.725C126.697 29.825 127.472 28.8917 128.089 27.925C128.706 26.9583 129.014 25.9917 129.014 25.025C129.014 24.025 128.772 23.2417 128.289 22.675C127.822 22.1083 127.081 21.825 126.064 21.825C125.081 21.825 124.314 22.1417 123.764 22.775C123.231 23.3917 122.947 24.225 122.914 25.275H120.164C120.214 23.375 120.781 21.925 121.864 20.925C122.964 19.9083 124.356 19.4 126.039 19.4C127.856 19.4 129.272 19.9 130.289 20.9C131.322 21.9 131.839 23.2333 131.839 24.9C131.839 26.1 131.531 27.2583 130.914 28.375C130.314 29.475 129.589 30.4667 128.739 31.35C127.906 32.2167 126.839 33.225 125.539 34.375L124.414 35.375H132.339V37.75H120.189V35.675L121.989 34.125Z" fill="#333333"/>
<path d="M94.5 143.5C117.696 143.5 136.5 124.696 136.5 101.5C136.5 78.304 117.696 59.5 94.5 59.5C71.304 59.5 52.5 78.304 52.5 101.5C52.5 124.696 71.304 143.5 94.5 143.5Z" fill="#F9B56F" fill-opacity="0.05" stroke="#F9B56F" stroke-width="3"/>
<path fill-rule="evenodd" clip-rule="evenodd" d="M82.326 77.001H105.673C114.176 77.001 118.976 81.8235 119.001 90.326V113.676C119.001 122.176 114.176 127.001 105.673 127.001H82.326C73.8235 127.001 69.001 122.176 69.001 113.676V90.326C69.001 81.8235 73.8235 77.001 82.326 77.001ZM94.1234 116.651C95.2009 116.651 96.0984 115.851 96.1984 114.776V89.3009C96.2984 88.5259 95.9259 87.7484 95.2509 87.3259C94.5484 86.9009 93.6984 86.9009 93.0259 87.3259C92.3484 87.7484 91.9759 88.5259 92.0484 89.3009V114.776C92.1759 115.851 93.0734 116.651 94.1234 116.651ZM105.626 116.651C106.676 116.651 107.574 115.851 107.701 114.776V106.576C107.774 105.773 107.401 105.026 106.724 104.601C106.051 104.176 105.201 104.176 104.501 104.601C103.824 105.026 103.451 105.773 103.551 106.576V114.776C103.651 115.851 104.549 116.651 105.626 116.651ZM84.5486 114.776C84.4486 115.851 83.5511 116.651 82.4736 116.651C81.3986 116.651 80.4986 115.851 80.4011 114.776V97.501C80.3261 96.7235 80.6986 95.951 81.3761 95.526C82.0486 95.101 82.9011 95.101 83.5761 95.526C84.2486 95.951 84.6261 96.7235 84.5486 97.501V114.776Z" fill="#F9B56F"/>
</svg>
