<svg width="188" height="217" viewBox="0 0 188 217" fill="none" xmlns="http://www.w3.org/2000/svg">
<path d="M66.1015 38.175C64.9348 38.175 63.8848 37.975 62.9515 37.575C62.0181 37.1583 61.2848 36.575 60.7515 35.825C60.2181 35.075 59.9515 34.2 59.9515 33.2H63.0015C63.0681 33.95 63.3598 34.5667 63.8765 35.05C64.4098 35.5333 65.1515 35.775 66.1015 35.775C67.0848 35.775 67.8515 35.5417 68.4015 35.075C68.9515 34.5917 69.2265 33.975 69.2265 33.225C69.2265 32.6417 69.0515 32.1667 68.7015 31.8C68.3681 31.4333 67.9431 31.15 67.4265 30.95C66.9265 30.75 66.2265 30.5333 65.3265 30.3C64.1931 30 63.2681 29.7 62.5515 29.4C61.8515 29.0833 61.2515 28.6 60.7515 27.95C60.2515 27.3 60.0015 26.4333 60.0015 25.35C60.0015 24.35 60.2515 23.475 60.7515 22.725C61.2515 21.975 61.9515 21.4 62.8515 21C63.7515 20.6 64.7931 20.4 65.9765 20.4C67.6598 20.4 69.0348 20.825 70.1015 21.675C71.1848 22.5083 71.7848 23.6583 71.9015 25.125H68.7515C68.7015 24.4917 68.4015 23.95 67.8515 23.5C67.3015 23.05 66.5765 22.825 65.6765 22.825C64.8598 22.825 64.1931 23.0333 63.6765 23.45C63.1598 23.8667 62.9015 24.4667 62.9015 25.25C62.9015 25.7833 63.0598 26.225 63.3765 26.575C63.7098 26.9083 64.1265 27.175 64.6265 27.375C65.1265 27.575 65.8098 27.7917 66.6765 28.025C67.8265 28.3417 68.7598 28.6583 69.4765 28.975C70.2098 29.2917 70.8265 29.7833 71.3265 30.45C71.8431 31.1 72.1015 31.975 72.1015 33.075C72.1015 33.9583 71.8598 34.7917 71.3765 35.575C70.9098 36.3583 70.2181 36.9917 69.3015 37.475C68.4015 37.9417 67.3348 38.175 66.1015 38.175ZM78.7894 26.55V34.175C78.7894 34.6917 78.906 35.0667 79.1394 35.3C79.3894 35.5167 79.806 35.625 80.3894 35.625H82.1394V38H79.8894C78.606 38 77.6227 37.7 76.9394 37.1C76.256 36.5 75.9144 35.525 75.9144 34.175V26.55H74.2894V24.225H75.9144V20.8H78.7894V24.225H82.1394V26.55H78.7894ZM97.3911 30.775C97.3911 31.2917 97.3578 31.7583 97.2911 32.175H86.7661C86.8494 33.275 87.2578 34.1583 87.9911 34.825C88.7244 35.4917 89.6244 35.825 90.6911 35.825C92.2244 35.825 93.3078 35.1833 93.9411 33.9H97.0161C96.5994 35.1667 95.8411 36.2083 94.7411 37.025C93.6578 37.825 92.3078 38.225 90.6911 38.225C89.3744 38.225 88.1911 37.9333 87.1411 37.35C86.1078 36.75 85.2911 35.9167 84.6911 34.85C84.1078 33.7667 83.8161 32.5167 83.8161 31.1C83.8161 29.6833 84.0994 28.4417 84.6661 27.375C85.2494 26.2917 86.0578 25.4583 87.0911 24.875C88.1411 24.2917 89.3411 24 90.6911 24C91.9911 24 93.1494 24.2833 94.1661 24.85C95.1828 25.4167 95.9744 26.2167 96.5411 27.25C97.1078 28.2667 97.3911 29.4417 97.3911 30.775ZM94.4161 29.875C94.3994 28.825 94.0244 27.9833 93.2911 27.35C92.5578 26.7167 91.6494 26.4 90.5661 26.4C89.5828 26.4 88.7411 26.7167 88.0411 27.35C87.3411 27.9667 86.9244 28.8083 86.7911 29.875H94.4161ZM103.046 26.25C103.529 25.6167 104.187 25.0833 105.021 24.65C105.854 24.2167 106.796 24 107.846 24C109.046 24 110.137 24.3 111.121 24.9C112.121 25.4833 112.904 26.3083 113.471 27.375C114.037 28.4417 114.321 29.6667 114.321 31.05C114.321 32.4333 114.037 33.675 113.471 34.775C112.904 35.8583 112.121 36.7083 111.121 37.325C110.137 37.925 109.046 38.225 107.846 38.225C106.796 38.225 105.862 38.0167 105.046 37.6C104.229 37.1667 103.562 36.6333 103.046 36V44.55H100.196V24.225H103.046V26.25ZM111.421 31.05C111.421 30.1 111.221 29.2833 110.821 28.6C110.437 27.9 109.921 27.375 109.271 27.025C108.637 26.6583 107.954 26.475 107.221 26.475C106.504 26.475 105.821 26.6583 105.171 27.025C104.537 27.3917 104.021 27.925 103.621 28.625C103.237 29.325 103.046 30.15 103.046 31.1C103.046 32.05 103.237 32.8833 103.621 33.6C104.021 34.3 104.537 34.8333 105.171 35.2C105.821 35.5667 106.504 35.75 107.221 35.75C107.954 35.75 108.637 35.5667 109.271 35.2C109.921 34.8167 110.437 34.2667 110.821 33.55C111.221 32.8333 111.421 32 111.421 31.05ZM122.883 22.375V19.775H128.083V38H125.208V22.375H122.883Z" fill="#333333"/>
<path d="M36.6169 166.06V174.88C36.6169 176.12 36.9169 177.04 37.5169 177.64C38.1302 178.24 38.9769 178.54 40.0569 178.54C41.1235 178.54 41.9569 178.24 42.5569 177.64C43.1702 177.04 43.4769 176.12 43.4769 174.88V166.06H45.2969V174.86C45.2969 176.02 45.0635 177 44.5969 177.8C44.1302 178.587 43.4969 179.173 42.6969 179.56C41.9102 179.947 41.0235 180.14 40.0369 180.14C39.0502 180.14 38.1569 179.947 37.3569 179.56C36.5702 179.173 35.9435 178.587 35.4769 177.8C35.0235 177 34.7969 176.02 34.7969 174.86V166.06H36.6169ZM50.153 171.06C50.513 170.433 51.0463 169.913 51.753 169.5C52.473 169.073 53.3063 168.86 54.253 168.86C55.2263 168.86 56.1063 169.093 56.893 169.56C57.693 170.027 58.3196 170.687 58.773 171.54C59.2263 172.38 59.453 173.36 59.453 174.48C59.453 175.587 59.2263 176.573 58.773 177.44C58.3196 178.307 57.693 178.98 56.893 179.46C56.1063 179.94 55.2263 180.18 54.253 180.18C53.3196 180.18 52.493 179.973 51.773 179.56C51.0663 179.133 50.5263 178.607 50.153 177.98V185.2H48.333V169.04H50.153V171.06ZM57.593 174.48C57.593 173.653 57.4263 172.933 57.093 172.32C56.7596 171.707 56.3063 171.24 55.733 170.92C55.173 170.6 54.553 170.44 53.873 170.44C53.2063 170.44 52.5863 170.607 52.013 170.94C51.453 171.26 50.9996 171.733 50.653 172.36C50.3196 172.973 50.153 173.687 50.153 174.5C50.153 175.327 50.3196 176.053 50.653 176.68C50.9996 177.293 51.453 177.767 52.013 178.1C52.5863 178.42 53.2063 178.58 53.873 178.58C54.553 178.58 55.173 178.42 55.733 178.1C56.3063 177.767 56.7596 177.293 57.093 176.68C57.4263 176.053 57.593 175.32 57.593 174.48ZM63.6686 165.2V180H61.8486V165.2H63.6686ZM71.5505 180.18C70.5238 180.18 69.5905 179.947 68.7505 179.48C67.9238 179.013 67.2705 178.353 66.7905 177.5C66.3238 176.633 66.0905 175.633 66.0905 174.5C66.0905 173.38 66.3305 172.393 66.8105 171.54C67.3038 170.673 67.9705 170.013 68.8105 169.56C69.6505 169.093 70.5905 168.86 71.6305 168.86C72.6705 168.86 73.6105 169.093 74.4505 169.56C75.2905 170.013 75.9505 170.667 76.4305 171.52C76.9238 172.373 77.1705 173.367 77.1705 174.5C77.1705 175.633 76.9171 176.633 76.4105 177.5C75.9171 178.353 75.2438 179.013 74.3905 179.48C73.5371 179.947 72.5905 180.18 71.5505 180.18ZM71.5505 178.58C72.2038 178.58 72.8171 178.427 73.3905 178.12C73.9638 177.813 74.4238 177.353 74.7705 176.74C75.1305 176.127 75.3105 175.38 75.3105 174.5C75.3105 173.62 75.1371 172.873 74.7905 172.26C74.4438 171.647 73.9905 171.193 73.4305 170.9C72.8705 170.593 72.2638 170.44 71.6105 170.44C70.9438 170.44 70.3305 170.593 69.7705 170.9C69.2238 171.193 68.7838 171.647 68.4505 172.26C68.1171 172.873 67.9505 173.62 67.9505 174.5C67.9505 175.393 68.1105 176.147 68.4305 176.76C68.7638 177.373 69.2038 177.833 69.7505 178.14C70.2971 178.433 70.8971 178.58 71.5505 178.58ZM78.8834 174.48C78.8834 173.36 79.1101 172.38 79.5634 171.54C80.0168 170.687 80.6368 170.027 81.4234 169.56C82.2234 169.093 83.1101 168.86 84.0834 168.86C85.0434 168.86 85.8768 169.067 86.5834 169.48C87.2901 169.893 87.8168 170.413 88.1634 171.04V169.04H90.0034V180H88.1634V177.96C87.8034 178.6 87.2634 179.133 86.5434 179.56C85.8368 179.973 85.0101 180.18 84.0634 180.18C83.0901 180.18 82.2101 179.94 81.4234 179.46C80.6368 178.98 80.0168 178.307 79.5634 177.44C79.1101 176.573 78.8834 175.587 78.8834 174.48ZM88.1634 174.5C88.1634 173.673 87.9968 172.953 87.6634 172.34C87.3301 171.727 86.8768 171.26 86.3034 170.94C85.7434 170.607 85.1234 170.44 84.4434 170.44C83.7634 170.44 83.1434 170.6 82.5834 170.92C82.0234 171.24 81.5768 171.707 81.2434 172.32C80.9101 172.933 80.7434 173.653 80.7434 174.48C80.7434 175.32 80.9101 176.053 81.2434 176.68C81.5768 177.293 82.0234 177.767 82.5834 178.1C83.1434 178.42 83.7634 178.58 84.4434 178.58C85.1234 178.58 85.7434 178.42 86.3034 178.1C86.8768 177.767 87.3301 177.293 87.6634 176.68C87.9968 176.053 88.1634 175.327 88.1634 174.5ZM92.3991 174.48C92.3991 173.36 92.6257 172.38 93.0791 171.54C93.5324 170.687 94.1524 170.027 94.9391 169.56C95.7391 169.093 96.6324 168.86 97.6191 168.86C98.4724 168.86 99.2657 169.06 99.9991 169.46C100.732 169.847 101.292 170.36 101.679 171V165.2H103.519V180H101.679V177.94C101.319 178.593 100.786 179.133 100.079 179.56C99.3724 179.973 98.5457 180.18 97.5991 180.18C96.6257 180.18 95.7391 179.94 94.9391 179.46C94.1524 178.98 93.5324 178.307 93.0791 177.44C92.6257 176.573 92.3991 175.587 92.3991 174.48ZM101.679 174.5C101.679 173.673 101.512 172.953 101.179 172.34C100.846 171.727 100.392 171.26 99.8191 170.94C99.2591 170.607 98.6391 170.44 97.9591 170.44C97.2791 170.44 96.6591 170.6 96.0991 170.92C95.5391 171.24 95.0924 171.707 94.7591 172.32C94.4257 172.933 94.2591 173.653 94.2591 174.48C94.2591 175.32 94.4257 176.053 94.7591 176.68C95.0924 177.293 95.5391 177.767 96.0991 178.1C96.6591 178.42 97.2791 178.58 97.9591 178.58C98.6391 178.58 99.2591 178.42 99.8191 178.1C100.392 177.767 100.846 177.293 101.179 176.68C101.512 176.053 101.679 175.327 101.679 174.5ZM121.367 169.04L114.767 185.16H112.887L115.047 179.88L110.627 169.04H112.647L116.087 177.92L119.487 169.04H121.367ZM127.976 180.18C126.95 180.18 126.016 179.947 125.176 179.48C124.35 179.013 123.696 178.353 123.216 177.5C122.75 176.633 122.516 175.633 122.516 174.5C122.516 173.38 122.756 172.393 123.236 171.54C123.73 170.673 124.396 170.013 125.236 169.56C126.076 169.093 127.016 168.86 128.056 168.86C129.096 168.86 130.036 169.093 130.876 169.56C131.716 170.013 132.376 170.667 132.856 171.52C133.35 172.373 133.596 173.367 133.596 174.5C133.596 175.633 133.343 176.633 132.836 177.5C132.343 178.353 131.67 179.013 130.816 179.48C129.963 179.947 129.016 180.18 127.976 180.18ZM127.976 178.58C128.63 178.58 129.243 178.427 129.816 178.12C130.39 177.813 130.85 177.353 131.196 176.74C131.556 176.127 131.736 175.38 131.736 174.5C131.736 173.62 131.563 172.873 131.216 172.26C130.87 171.647 130.416 171.193 129.856 170.9C129.296 170.593 128.69 170.44 128.036 170.44C127.37 170.44 126.756 170.593 126.196 170.9C125.65 171.193 125.21 171.647 124.876 172.26C124.543 172.873 124.376 173.62 124.376 174.5C124.376 175.393 124.536 176.147 124.856 176.76C125.19 177.373 125.63 177.833 126.176 178.14C126.723 178.433 127.323 178.58 127.976 178.58ZM145.709 169.04V180H143.889V178.38C143.543 178.94 143.056 179.38 142.429 179.7C141.816 180.007 141.136 180.16 140.389 180.16C139.536 180.16 138.769 179.987 138.089 179.64C137.409 179.28 136.869 178.747 136.469 178.04C136.083 177.333 135.889 176.473 135.889 175.46V169.04H137.689V175.22C137.689 176.3 137.963 177.133 138.509 177.72C139.056 178.293 139.803 178.58 140.749 178.58C141.723 178.58 142.489 178.28 143.049 177.68C143.609 177.08 143.889 176.207 143.889 175.06V169.04H145.709ZM150.602 170.82C150.922 170.193 151.376 169.707 151.962 169.36C152.562 169.013 153.289 168.84 154.142 168.84V170.72H153.662C151.622 170.72 150.602 171.827 150.602 174.04V180H148.782V169.04H150.602V170.82ZM32.4798 198.84C33.3331 198.84 34.0931 199.02 34.7598 199.38C35.4264 199.727 35.9531 200.253 36.3398 200.96C36.7264 201.667 36.9198 202.527 36.9198 203.54V210H35.1198V203.8C35.1198 202.707 34.8464 201.873 34.2998 201.3C33.7664 200.713 33.0398 200.42 32.1198 200.42C31.1731 200.42 30.4198 200.727 29.8598 201.34C29.2998 201.94 29.0198 202.813 29.0198 203.96V210H27.2198V203.8C27.2198 202.707 26.9464 201.873 26.3998 201.3C25.8664 200.713 25.1398 200.42 24.2198 200.42C23.2731 200.42 22.5198 200.727 21.9598 201.34C21.3998 201.94 21.1198 202.813 21.1198 203.96V210H19.2998V199.04H21.1198V200.62C21.4798 200.047 21.9598 199.607 22.5598 199.3C23.1731 198.993 23.8464 198.84 24.5798 198.84C25.4998 198.84 26.3131 199.047 27.0198 199.46C27.7264 199.873 28.2531 200.48 28.5998 201.28C28.9064 200.507 29.4131 199.907 30.1198 199.48C30.8264 199.053 31.6131 198.84 32.4798 198.84ZM49.9052 204.1C49.9052 204.447 49.8852 204.813 49.8452 205.2H41.0852C41.1519 206.28 41.5186 207.127 42.1852 207.74C42.8652 208.34 43.6852 208.64 44.6452 208.64C45.4319 208.64 46.0852 208.46 46.6052 208.1C47.1386 207.727 47.5119 207.233 47.7252 206.62H49.6852C49.3919 207.673 48.8052 208.533 47.9252 209.2C47.0452 209.853 45.9519 210.18 44.6452 210.18C43.6052 210.18 42.6719 209.947 41.8452 209.48C41.0319 209.013 40.3919 208.353 39.9252 207.5C39.4586 206.633 39.2252 205.633 39.2252 204.5C39.2252 203.367 39.4519 202.373 39.9052 201.52C40.3586 200.667 40.9919 200.013 41.8052 199.56C42.6319 199.093 43.5786 198.86 44.6452 198.86C45.6852 198.86 46.6052 199.087 47.4052 199.54C48.2052 199.993 48.8186 200.62 49.2452 201.42C49.6852 202.207 49.9052 203.1 49.9052 204.1ZM48.0252 203.72C48.0252 203.027 47.8719 202.433 47.5652 201.94C47.2586 201.433 46.8386 201.053 46.3052 200.8C45.7852 200.533 45.2052 200.4 44.5652 200.4C43.6452 200.4 42.8586 200.693 42.2052 201.28C41.5652 201.867 41.1986 202.68 41.1052 203.72H48.0252ZM51.6276 204.48C51.6276 203.36 51.8542 202.38 52.3076 201.54C52.7609 200.687 53.3809 200.027 54.1676 199.56C54.9676 199.093 55.8609 198.86 56.8476 198.86C57.7009 198.86 58.4942 199.06 59.2276 199.46C59.9609 199.847 60.5209 200.36 60.9076 201V195.2H62.7476V210H60.9076V207.94C60.5476 208.593 60.0142 209.133 59.3076 209.56C58.6009 209.973 57.7742 210.18 56.8276 210.18C55.8542 210.18 54.9676 209.94 54.1676 209.46C53.3809 208.98 52.7609 208.307 52.3076 207.44C51.8542 206.573 51.6276 205.587 51.6276 204.48ZM60.9076 204.5C60.9076 203.673 60.7409 202.953 60.4076 202.34C60.0742 201.727 59.6209 201.26 59.0476 200.94C58.4876 200.607 57.8676 200.44 57.1876 200.44C56.5076 200.44 55.8876 200.6 55.3276 200.92C54.7676 201.24 54.3209 201.707 53.9876 202.32C53.6542 202.933 53.4876 203.653 53.4876 204.48C53.4876 205.32 53.6542 206.053 53.9876 206.68C54.3209 207.293 54.7676 207.767 55.3276 208.1C55.8876 208.42 56.5076 208.58 57.1876 208.58C57.8676 208.58 58.4876 208.42 59.0476 208.1C59.6209 207.767 60.0742 207.293 60.4076 206.68C60.7409 206.053 60.9076 205.327 60.9076 204.5ZM66.7632 197.26C66.4165 197.26 66.1232 197.14 65.8832 196.9C65.6432 196.66 65.5232 196.367 65.5232 196.02C65.5232 195.673 65.6432 195.38 65.8832 195.14C66.1232 194.9 66.4165 194.78 66.7632 194.78C67.0965 194.78 67.3765 194.9 67.6032 195.14C67.8432 195.38 67.9632 195.673 67.9632 196.02C67.9632 196.367 67.8432 196.66 67.6032 196.9C67.3765 197.14 67.0965 197.26 66.7632 197.26ZM67.6432 199.04V210H65.8232V199.04H67.6432ZM70.0651 204.5C70.0651 203.367 70.2917 202.38 70.7451 201.54C71.1984 200.687 71.8251 200.027 72.6251 199.56C73.4384 199.093 74.3651 198.86 75.4051 198.86C76.7517 198.86 77.8584 199.187 78.7251 199.84C79.6051 200.493 80.1851 201.4 80.4651 202.56H78.5051C78.3184 201.893 77.9517 201.367 77.4051 200.98C76.8717 200.593 76.2051 200.4 75.4051 200.4C74.3651 200.4 73.5251 200.76 72.8851 201.48C72.2451 202.187 71.9251 203.193 71.9251 204.5C71.9251 205.82 72.2451 206.84 72.8851 207.56C73.5251 208.28 74.3651 208.64 75.4051 208.64C76.2051 208.64 76.8717 208.453 77.4051 208.08C77.9384 207.707 78.3051 207.173 78.5051 206.48H80.4651C80.1717 207.6 79.5851 208.5 78.7051 209.18C77.8251 209.847 76.7251 210.18 75.4051 210.18C74.3651 210.18 73.4384 209.947 72.6251 209.48C71.8251 209.013 71.1984 208.353 70.7451 207.5C70.2917 206.647 70.0651 205.647 70.0651 204.5ZM82.2135 204.48C82.2135 203.36 82.4402 202.38 82.8935 201.54C83.3468 200.687 83.9668 200.027 84.7535 199.56C85.5535 199.093 86.4402 198.86 87.4135 198.86C88.3735 198.86 89.2068 199.067 89.9135 199.48C90.6202 199.893 91.1468 200.413 91.4935 201.04V199.04H93.3335V210H91.4935V207.96C91.1335 208.6 90.5935 209.133 89.8735 209.56C89.1668 209.973 88.3402 210.18 87.3935 210.18C86.4202 210.18 85.5402 209.94 84.7535 209.46C83.9668 208.98 83.3468 208.307 82.8935 207.44C82.4402 206.573 82.2135 205.587 82.2135 204.48ZM91.4935 204.5C91.4935 203.673 91.3268 202.953 90.9935 202.34C90.6602 201.727 90.2068 201.26 89.6335 200.94C89.0735 200.607 88.4535 200.44 87.7735 200.44C87.0935 200.44 86.4735 200.6 85.9135 200.92C85.3535 201.24 84.9068 201.707 84.5735 202.32C84.2402 202.933 84.0735 203.653 84.0735 204.48C84.0735 205.32 84.2402 206.053 84.5735 206.68C84.9068 207.293 85.3535 207.767 85.9135 208.1C86.4735 208.42 87.0935 208.58 87.7735 208.58C88.4535 208.58 89.0735 208.42 89.6335 208.1C90.2068 207.767 90.6602 207.293 90.9935 206.68C91.3268 206.053 91.4935 205.327 91.4935 204.5ZM98.2291 195.2V210H96.4091V195.2H98.2291ZM108.483 200.82C108.803 200.193 109.256 199.707 109.843 199.36C110.443 199.013 111.17 198.84 112.023 198.84V200.72H111.543C109.503 200.72 108.483 201.827 108.483 204.04V210H106.663V199.04H108.483V200.82ZM124.124 204.1C124.124 204.447 124.104 204.813 124.064 205.2H115.304C115.371 206.28 115.737 207.127 116.404 207.74C117.084 208.34 117.904 208.64 118.864 208.64C119.651 208.64 120.304 208.46 120.824 208.1C121.357 207.727 121.731 207.233 121.944 206.62H123.904C123.611 207.673 123.024 208.533 122.144 209.2C121.264 209.853 120.171 210.18 118.864 210.18C117.824 210.18 116.891 209.947 116.064 209.48C115.251 209.013 114.611 208.353 114.144 207.5C113.677 206.633 113.444 205.633 113.444 204.5C113.444 203.367 113.671 202.373 114.124 201.52C114.577 200.667 115.211 200.013 116.024 199.56C116.851 199.093 117.797 198.86 118.864 198.86C119.904 198.86 120.824 199.087 121.624 199.54C122.424 199.993 123.037 200.62 123.464 201.42C123.904 202.207 124.124 203.1 124.124 204.1ZM122.244 203.72C122.244 203.027 122.091 202.433 121.784 201.94C121.477 201.433 121.057 201.053 120.524 200.8C120.004 200.533 119.424 200.4 118.784 200.4C117.864 200.4 117.077 200.693 116.424 201.28C115.784 201.867 115.417 202.68 115.324 203.72H122.244ZM128.346 201.06C128.706 200.433 129.24 199.913 129.946 199.5C130.666 199.073 131.5 198.86 132.446 198.86C133.42 198.86 134.3 199.093 135.086 199.56C135.886 200.027 136.513 200.687 136.966 201.54C137.42 202.38 137.646 203.36 137.646 204.48C137.646 205.587 137.42 206.573 136.966 207.44C136.513 208.307 135.886 208.98 135.086 209.46C134.3 209.94 133.42 210.18 132.446 210.18C131.513 210.18 130.686 209.973 129.966 209.56C129.26 209.133 128.72 208.607 128.346 207.98V215.2H126.526V199.04H128.346V201.06ZM135.786 204.48C135.786 203.653 135.62 202.933 135.286 202.32C134.953 201.707 134.5 201.24 133.926 200.92C133.366 200.6 132.746 200.44 132.066 200.44C131.4 200.44 130.78 200.607 130.206 200.94C129.646 201.26 129.193 201.733 128.846 202.36C128.513 202.973 128.346 203.687 128.346 204.5C128.346 205.327 128.513 206.053 128.846 206.68C129.193 207.293 129.646 207.767 130.206 208.1C130.78 208.42 131.4 208.58 132.066 208.58C132.746 208.58 133.366 208.42 133.926 208.1C134.5 207.767 134.953 207.293 135.286 206.68C135.62 206.053 135.786 205.32 135.786 204.48ZM144.822 210.18C143.795 210.18 142.862 209.947 142.022 209.48C141.195 209.013 140.542 208.353 140.062 207.5C139.595 206.633 139.362 205.633 139.362 204.5C139.362 203.38 139.602 202.393 140.082 201.54C140.575 200.673 141.242 200.013 142.082 199.56C142.922 199.093 143.862 198.86 144.902 198.86C145.942 198.86 146.882 199.093 147.722 199.56C148.562 200.013 149.222 200.667 149.702 201.52C150.195 202.373 150.442 203.367 150.442 204.5C150.442 205.633 150.189 206.633 149.682 207.5C149.189 208.353 148.515 209.013 147.662 209.48C146.809 209.947 145.862 210.18 144.822 210.18ZM144.822 208.58C145.475 208.58 146.089 208.427 146.662 208.12C147.235 207.813 147.695 207.353 148.042 206.74C148.402 206.127 148.582 205.38 148.582 204.5C148.582 203.62 148.409 202.873 148.062 202.26C147.715 201.647 147.262 201.193 146.702 200.9C146.142 200.593 145.535 200.44 144.882 200.44C144.215 200.44 143.602 200.593 143.042 200.9C142.495 201.193 142.055 201.647 141.722 202.26C141.389 202.873 141.222 203.62 141.222 204.5C141.222 205.393 141.382 206.147 141.702 206.76C142.035 207.373 142.475 207.833 143.022 208.14C143.569 208.433 144.169 208.58 144.822 208.58ZM154.655 200.82C154.975 200.193 155.428 199.707 156.015 199.36C156.615 199.013 157.342 198.84 158.195 198.84V200.72H157.715C155.675 200.72 154.655 201.827 154.655 204.04V210H152.835V199.04H154.655V200.82ZM162.516 200.54V207C162.516 207.533 162.629 207.913 162.856 208.14C163.083 208.353 163.476 208.46 164.036 208.46H165.376V210H163.736C162.723 210 161.963 209.767 161.456 209.3C160.949 208.833 160.696 208.067 160.696 207V200.54H159.276V199.04H160.696V196.28H162.516V199.04H165.376V200.54H162.516ZM168.161 210.12C167.814 210.12 167.521 210 167.281 209.76C167.041 209.52 166.921 209.227 166.921 208.88C166.921 208.533 167.041 208.24 167.281 208C167.521 207.76 167.814 207.64 168.161 207.64C168.494 207.64 168.774 207.76 169.001 208C169.241 208.24 169.361 208.533 169.361 208.88C169.361 209.227 169.241 209.52 169.001 209.76C168.774 210 168.494 210.12 168.161 210.12Z" fill="#333333"/>
<path d="M94.5 143.5C117.696 143.5 136.5 124.696 136.5 101.5C136.5 78.304 117.696 59.5 94.5 59.5C71.304 59.5 52.5 78.304 52.5 101.5C52.5 124.696 71.304 143.5 94.5 143.5Z" fill="#F9B56F" fill-opacity="0.05" stroke="#F9B56F" stroke-width="3"/>
<path fill-rule="evenodd" clip-rule="evenodd" d="M99.8638 103.225C100.582 103.95 101.745 103.95 102.463 103.225C103.205 102.5 103.205 101.325 102.488 100.6L95.3836 93.4C95.2103 93.225 95.0123 93.1 94.7895 93C94.5668 92.9 94.344 92.85 94.0965 92.85C93.8489 92.85 93.6014 92.9 93.3786 93C93.1559 93.1 92.9578 93.225 92.7846 93.4L85.7054 100.6C84.9875 101.325 84.9875 102.5 85.7054 103.225C86.4232 103.95 87.5866 103.95 88.3044 103.225L92.24 99.225V111.3C92.24 112.325 93.0569 113.15 94.0965 113.15C95.1113 113.15 95.9281 112.325 95.9281 111.3V99.225L99.8638 103.225ZM113.32 93.564C113.902 93.5573 114.536 93.55 115.111 93.55C115.73 93.55 116.25 94.05 116.25 94.675V114.775C116.25 120.975 111.25 126 105.111 126H85.4332C78.9728 126 73.75 120.725 73.75 114.225V87.275C73.75 81.075 78.7252 76 84.9134 76H98.1312C98.75 76 99.2698 76.525 99.2698 77.15V85.2C99.2698 89.775 102.983 93.525 107.537 93.55C108.578 93.55 109.503 93.5579 110.314 93.5648C110.95 93.5702 111.517 93.575 112.017 93.575C112.37 93.575 112.826 93.5697 113.32 93.564ZM114.012 89.915C111.977 89.9225 109.581 89.915 107.856 89.8975C105.118 89.8975 102.863 87.62 102.863 84.855V78.265C102.863 77.1875 104.155 76.6525 104.895 77.43C106.801 79.4297 109.719 82.4941 112.185 85.0844C113.184 86.1341 114.109 87.1059 114.863 87.8975C115.583 88.655 115.054 89.9125 114.012 89.915Z" fill="#F9B56F"/>
</svg>
