<svg width="188" height="217" viewBox="0 0 188 217" fill="none" xmlns="http://www.w3.org/2000/svg">
<path d="M259 -59H-70C-74.9706 -59 -79 -54.9706 -79 -50V267C-79 271.971 -74.9706 276 -70 276H259C263.971 276 268 271.971 268 267V-50C268 -54.9706 263.971 -59 259 -59Z" fill="#F2F7FD" stroke="#2B5AC9" stroke-width="2" stroke-dasharray="5 5"/>
<path fill-rule="evenodd" clip-rule="evenodd" d="M142.636 51H148.5C171.42 51 190 69.58 190 92.5C190 115.42 171.42 134 148.5 134H40.5C17.5802 134 -1 115.42 -1 92.5C-1 69.58 17.5802 51 40.5 51H45.364C48.322 26.7684 68.969 8 94 8C119.031 8 139.678 26.7684 142.636 51Z" fill="#2B5AC9"/>
<path fill-rule="evenodd" clip-rule="evenodd" d="M93.302 51.142C92.616 51.432 92.169 52.116 92.169 52.875V82.127C92.169 83.162 92.991 84.004 94 84.004C95.01 84.004 95.829 83.162 95.829 82.127V57.414L99.615 61.312C100.328 62.047 101.484 62.047 102.202 61.317C102.56 60.952 102.741 60.47 102.741 59.99C102.741 59.51 102.56 59.033 102.206 58.665L95.297 51.551C94.775 51.015 93.986 50.852 93.302 51.142ZM98.872 97.25C99.882 97.25 100.701 98.09 100.701 99.125C100.701 100.159 99.882 101 98.872 101H80.786C74.976 101 70.25 96.154 70.25 90.196V78.331C70.25 72.361 74.988 67.504 80.812 67.504H83.023C84.03 67.504 84.85 68.344 84.85 69.379C84.85 70.413 84.03 71.253 83.023 71.253H80.812C77.002 71.253 73.908 74.428 73.908 78.331V90.196C73.908 94.087 76.995 97.25 80.786 97.25H98.872ZM104.979 71.254C103.97 71.254 103.15 70.414 103.15 69.379C103.15 68.344 103.97 67.504 104.979 67.504H107.214C113.024 67.504 117.75 72.35 117.75 78.307V90.175C117.75 96.143 113.012 101 107.188 101C106.179 101 105.362 100.16 105.362 99.125C105.362 98.09 106.179 97.25 107.188 97.25C110.998 97.25 114.092 94.075 114.092 90.175V78.307C114.092 74.417 111.007 71.254 107.214 71.254H104.979ZM90.652 58.195C90.652 58.673 90.474 59.15 90.122 59.515L88.391 61.31C87.681 62.045 86.522 62.05 85.807 61.322C85.085 60.591 85.08 59.408 85.792 58.67L87.521 56.878C88.234 56.14 89.391 56.136 90.108 56.864C90.469 57.231 90.652 57.713 90.652 58.195Z" fill="#FEFEFE"/>
<path d="M26.364 154.06C27.884 154.06 29.198 154.347 30.304 154.92C31.424 155.48 32.278 156.287 32.864 157.34C33.464 158.393 33.764 159.633 33.764 161.06C33.764 162.487 33.464 163.727 32.864 164.78C32.278 165.82 31.424 166.62 30.304 167.18C29.198 167.727 27.884 168 26.364 168H22.024V154.06H26.364ZM26.364 166.5C28.164 166.5 29.538 166.027 30.484 165.08C31.431 164.12 31.904 162.78 31.904 161.06C31.904 159.327 31.424 157.973 30.464 157C29.518 156.027 28.151 155.54 26.364 155.54H23.844V166.5H26.364ZM37.985 158.82C38.305 158.193 38.758 157.707 39.345 157.36C39.945 157.013 40.672 156.84 41.525 156.84V158.72H41.045C39.005 158.72 37.985 159.827 37.985 162.04V168H36.165V157.04H37.985V158.82ZM42.946 162.48C42.946 161.36 43.173 160.38 43.626 159.54C44.079 158.687 44.699 158.027 45.486 157.56C46.286 157.093 47.173 156.86 48.146 156.86C49.106 156.86 49.939 157.067 50.646 157.48C51.353 157.893 51.879 158.413 52.226 159.04V157.04H54.066V168H52.226V165.96C51.866 166.6 51.326 167.133 50.606 167.56C49.899 167.973 49.073 168.18 48.126 168.18C47.153 168.18 46.273 167.94 45.486 167.46C44.699 166.98 44.079 166.307 43.626 165.44C43.173 164.573 42.946 163.587 42.946 162.48ZM52.226 162.5C52.226 161.673 52.059 160.953 51.726 160.34C51.393 159.727 50.939 159.26 50.366 158.94C49.806 158.607 49.186 158.44 48.506 158.44C47.826 158.44 47.206 158.6 46.646 158.92C46.086 159.24 45.639 159.707 45.306 160.32C44.973 160.933 44.806 161.653 44.806 162.48C44.806 163.32 44.973 164.053 45.306 164.68C45.639 165.293 46.086 165.767 46.646 166.1C47.206 166.42 47.826 166.58 48.506 166.58C49.186 166.58 49.806 166.42 50.366 166.1C50.939 165.767 51.393 165.293 51.726 164.68C52.059 164.053 52.226 163.327 52.226 162.5ZM61.662 156.86C62.608 156.86 63.435 157.067 64.142 157.48C64.862 157.893 65.395 158.413 65.742 159.04V157.04H67.582V168.24C67.582 169.24 67.368 170.127 66.942 170.9C66.515 171.687 65.902 172.3 65.102 172.74C64.315 173.18 63.395 173.4 62.342 173.4C60.902 173.4 59.702 173.06 58.742 172.38C57.782 171.7 57.215 170.773 57.042 169.6H58.842C59.042 170.267 59.455 170.8 60.082 171.2C60.708 171.613 61.462 171.82 62.342 171.82C63.342 171.82 64.155 171.507 64.782 170.88C65.422 170.253 65.742 169.373 65.742 168.24V165.94C65.382 166.58 64.848 167.113 64.142 167.54C63.435 167.967 62.608 168.18 61.662 168.18C60.688 168.18 59.802 167.94 59.002 167.46C58.215 166.98 57.595 166.307 57.142 165.44C56.688 164.573 56.462 163.587 56.462 162.48C56.462 161.36 56.688 160.38 57.142 159.54C57.595 158.687 58.215 158.027 59.002 157.56C59.802 157.093 60.688 156.86 61.662 156.86ZM65.742 162.5C65.742 161.673 65.575 160.953 65.242 160.34C64.908 159.727 64.455 159.26 63.882 158.94C63.322 158.607 62.702 158.44 62.022 158.44C61.342 158.44 60.722 158.6 60.162 158.92C59.602 159.24 59.155 159.707 58.822 160.32C58.488 160.933 58.322 161.653 58.322 162.48C58.322 163.32 58.488 164.053 58.822 164.68C59.155 165.293 59.602 165.767 60.162 166.1C60.722 166.42 61.342 166.58 62.022 166.58C62.702 166.58 63.322 166.42 63.882 166.1C64.455 165.767 64.908 165.293 65.242 164.68C65.575 164.053 65.742 163.327 65.742 162.5ZM75.309 162.48C75.309 161.36 75.536 160.38 75.989 159.54C76.443 158.687 77.063 158.027 77.849 157.56C78.649 157.093 79.536 156.86 80.509 156.86C81.469 156.86 82.303 157.067 83.009 157.48C83.716 157.893 84.243 158.413 84.589 159.04V157.04H86.429V168H84.589V165.96C84.229 166.6 83.689 167.133 82.969 167.56C82.263 167.973 81.436 168.18 80.489 168.18C79.516 168.18 78.636 167.94 77.849 167.46C77.063 166.98 76.443 166.307 75.989 165.44C75.536 164.573 75.309 163.587 75.309 162.48ZM84.589 162.5C84.589 161.673 84.423 160.953 84.089 160.34C83.756 159.727 83.303 159.26 82.729 158.94C82.169 158.607 81.549 158.44 80.869 158.44C80.189 158.44 79.569 158.6 79.009 158.92C78.449 159.24 78.003 159.707 77.669 160.32C77.336 160.933 77.169 161.653 77.169 162.48C77.169 163.32 77.336 164.053 77.669 164.68C78.003 165.293 78.449 165.767 79.009 166.1C79.569 166.42 80.189 166.58 80.869 166.58C81.549 166.58 82.169 166.42 82.729 166.1C83.303 165.767 83.756 165.293 84.089 164.68C84.423 164.053 84.589 163.327 84.589 162.5ZM94.845 156.84C96.178 156.84 97.258 157.247 98.085 158.06C98.912 158.86 99.325 160.02 99.325 161.54V168H97.525V161.8C97.525 160.707 97.252 159.873 96.705 159.3C96.158 158.713 95.412 158.42 94.465 158.42C93.505 158.42 92.738 158.72 92.165 159.32C91.605 159.92 91.325 160.793 91.325 161.94V168H89.505V157.04H91.325V158.6C91.685 158.04 92.172 157.607 92.785 157.3C93.412 156.993 94.098 156.84 94.845 156.84ZM101.618 162.48C101.618 161.36 101.844 160.38 102.298 159.54C102.751 158.687 103.371 158.027 104.158 157.56C104.958 157.093 105.851 156.86 106.838 156.86C107.691 156.86 108.484 157.06 109.218 157.46C109.951 157.847 110.511 158.36 110.898 159V153.2H112.738V168H110.898V165.94C110.538 166.593 110.004 167.133 109.298 167.56C108.591 167.973 107.764 168.18 106.818 168.18C105.844 168.18 104.958 167.94 104.158 167.46C103.371 166.98 102.751 166.307 102.298 165.44C101.844 164.573 101.618 163.587 101.618 162.48ZM110.898 162.5C110.898 161.673 110.731 160.953 110.398 160.34C110.064 159.727 109.611 159.26 109.038 158.94C108.478 158.607 107.858 158.44 107.178 158.44C106.498 158.44 105.878 158.6 105.318 158.92C104.758 159.24 104.311 159.707 103.978 160.32C103.644 160.933 103.478 161.653 103.478 162.48C103.478 163.32 103.644 164.053 103.978 164.68C104.311 165.293 104.758 165.767 105.318 166.1C105.878 166.42 106.498 166.58 107.178 166.58C107.858 166.58 108.478 166.42 109.038 166.1C109.611 165.767 110.064 165.293 110.398 164.68C110.731 164.053 110.898 163.327 110.898 162.5ZM125.485 154.06C127.005 154.06 128.319 154.347 129.425 154.92C130.545 155.48 131.399 156.287 131.985 157.34C132.585 158.393 132.885 159.633 132.885 161.06C132.885 162.487 132.585 163.727 131.985 164.78C131.399 165.82 130.545 166.62 129.425 167.18C128.319 167.727 127.005 168 125.485 168H121.145V154.06H125.485ZM125.485 166.5C127.285 166.5 128.659 166.027 129.605 165.08C130.552 164.12 131.025 162.78 131.025 161.06C131.025 159.327 130.545 157.973 129.585 157C128.639 156.027 127.272 155.54 125.485 155.54H122.965V166.5H125.485ZM137.106 158.82C137.426 158.193 137.879 157.707 138.466 157.36C139.066 157.013 139.793 156.84 140.646 156.84V158.72H140.166C138.126 158.72 137.106 159.827 137.106 162.04V168H135.286V157.04H137.106V158.82ZM147.527 168.18C146.5 168.18 145.567 167.947 144.727 167.48C143.9 167.013 143.247 166.353 142.767 165.5C142.3 164.633 142.067 163.633 142.067 162.5C142.067 161.38 142.307 160.393 142.787 159.54C143.28 158.673 143.947 158.013 144.787 157.56C145.627 157.093 146.567 156.86 147.607 156.86C148.647 156.86 149.587 157.093 150.427 157.56C151.267 158.013 151.927 158.667 152.407 159.52C152.9 160.373 153.147 161.367 153.147 162.5C153.147 163.633 152.894 164.633 152.387 165.5C151.894 166.353 151.22 167.013 150.367 167.48C149.514 167.947 148.567 168.18 147.527 168.18ZM147.527 166.58C148.18 166.58 148.794 166.427 149.367 166.12C149.94 165.813 150.4 165.353 150.747 164.74C151.107 164.127 151.287 163.38 151.287 162.5C151.287 161.62 151.114 160.873 150.767 160.26C150.42 159.647 149.967 159.193 149.407 158.9C148.847 158.593 148.24 158.44 147.587 158.44C146.92 158.44 146.307 158.593 145.747 158.9C145.2 159.193 144.76 159.647 144.427 160.26C144.094 160.873 143.927 161.62 143.927 162.5C143.927 163.393 144.087 164.147 144.407 164.76C144.74 165.373 145.18 165.833 145.727 166.14C146.274 166.433 146.874 166.58 147.527 166.58ZM157.36 159.06C157.72 158.433 158.253 157.913 158.96 157.5C159.68 157.073 160.513 156.86 161.46 156.86C162.433 156.86 163.313 157.093 164.1 157.56C164.9 158.027 165.527 158.687 165.98 159.54C166.433 160.38 166.66 161.36 166.66 162.48C166.66 163.587 166.433 164.573 165.98 165.44C165.527 166.307 164.9 166.98 164.1 167.46C163.313 167.94 162.433 168.18 161.46 168.18C160.527 168.18 159.7 167.973 158.98 167.56C158.273 167.133 157.733 166.607 157.36 165.98V173.2H155.54V157.04H157.36V159.06ZM164.8 162.48C164.8 161.653 164.633 160.933 164.3 160.32C163.967 159.707 163.513 159.24 162.94 158.92C162.38 158.6 161.76 158.44 161.08 158.44C160.413 158.44 159.793 158.607 159.22 158.94C158.66 159.26 158.207 159.733 157.86 160.36C157.527 160.973 157.36 161.687 157.36 162.5C157.36 163.327 157.527 164.053 157.86 164.68C158.207 165.293 158.66 165.767 159.22 166.1C159.793 166.42 160.413 166.58 161.08 166.58C161.76 166.58 162.38 166.42 162.94 166.1C163.513 165.767 163.967 165.293 164.3 164.68C164.633 164.053 164.8 163.32 164.8 162.48ZM51.638 198.18C50.612 198.18 49.678 197.947 48.838 197.48C48.012 197.013 47.358 196.353 46.878 195.5C46.412 194.633 46.178 193.633 46.178 192.5C46.178 191.38 46.418 190.393 46.898 189.54C47.392 188.673 48.058 188.013 48.898 187.56C49.738 187.093 50.678 186.86 51.718 186.86C52.758 186.86 53.698 187.093 54.538 187.56C55.378 188.013 56.038 188.667 56.518 189.52C57.012 190.373 57.258 191.367 57.258 192.5C57.258 193.633 57.005 194.633 56.498 195.5C56.005 196.353 55.332 197.013 54.478 197.48C53.625 197.947 52.678 198.18 51.638 198.18ZM51.638 196.58C52.292 196.58 52.905 196.427 53.478 196.12C54.052 195.813 54.512 195.353 54.858 194.74C55.218 194.127 55.398 193.38 55.398 192.5C55.398 191.62 55.225 190.873 54.878 190.26C54.532 189.647 54.078 189.193 53.518 188.9C52.958 188.593 52.352 188.44 51.698 188.44C51.032 188.44 50.418 188.593 49.858 188.9C49.312 189.193 48.872 189.647 48.538 190.26C48.205 190.873 48.038 191.62 48.038 192.5C48.038 193.393 48.198 194.147 48.518 194.76C48.852 195.373 49.292 195.833 49.838 196.14C50.385 196.433 50.985 196.58 51.638 196.58ZM61.471 188.82C61.791 188.193 62.245 187.707 62.831 187.36C63.431 187.013 64.158 186.84 65.011 186.84V188.72H64.531C62.491 188.72 61.471 189.827 61.471 192.04V198H59.651V187.04H61.471V188.82Z" fill="black"/>
<path d="M79.424 190.82C79.931 190.9 80.391 191.107 80.804 191.44C81.231 191.773 81.564 192.187 81.804 192.68C82.058 193.173 82.184 193.7 82.184 194.26C82.184 194.967 82.004 195.607 81.644 196.18C81.284 196.74 80.758 197.187 80.064 197.52C79.384 197.84 78.578 198 77.644 198H72.444V184.06H77.444C78.391 184.06 79.198 184.22 79.864 184.54C80.531 184.847 81.031 185.267 81.364 185.8C81.698 186.333 81.864 186.933 81.864 187.6C81.864 188.427 81.638 189.113 81.184 189.66C80.744 190.193 80.158 190.58 79.424 190.82ZM74.264 190.08H77.324C78.178 190.08 78.838 189.88 79.304 189.48C79.771 189.08 80.004 188.527 80.004 187.82C80.004 187.113 79.771 186.56 79.304 186.16C78.838 185.76 78.164 185.56 77.284 185.56H74.264V190.08ZM77.484 196.5C78.391 196.5 79.098 196.287 79.604 195.86C80.111 195.433 80.364 194.84 80.364 194.08C80.364 193.307 80.098 192.7 79.564 192.26C79.031 191.807 78.318 191.58 77.424 191.58H74.264V196.5H77.484ZM86.53 188.82C86.85 188.193 87.303 187.707 87.89 187.36C88.49 187.013 89.217 186.84 90.07 186.84V188.72H89.59C87.55 188.72 86.53 189.827 86.53 192.04V198H84.71V187.04H86.53V188.82ZM96.951 198.18C95.924 198.18 94.991 197.947 94.151 197.48C93.324 197.013 92.671 196.353 92.191 195.5C91.724 194.633 91.491 193.633 91.491 192.5C91.491 191.38 91.731 190.393 92.211 189.54C92.704 188.673 93.371 188.013 94.211 187.56C95.051 187.093 95.991 186.86 97.031 186.86C98.071 186.86 99.011 187.093 99.851 187.56C100.691 188.013 101.351 188.667 101.831 189.52C102.324 190.373 102.571 191.367 102.571 192.5C102.571 193.633 102.318 194.633 101.811 195.5C101.318 196.353 100.644 197.013 99.791 197.48C98.938 197.947 97.991 198.18 96.951 198.18ZM96.951 196.58C97.604 196.58 98.218 196.427 98.791 196.12C99.364 195.813 99.824 195.353 100.171 194.74C100.531 194.127 100.711 193.38 100.711 192.5C100.711 191.62 100.538 190.873 100.191 190.26C99.844 189.647 99.391 189.193 98.831 188.9C98.271 188.593 97.664 188.44 97.011 188.44C96.344 188.44 95.731 188.593 95.171 188.9C94.624 189.193 94.184 189.647 93.851 190.26C93.518 190.873 93.351 191.62 93.351 192.5C93.351 193.393 93.511 194.147 93.831 194.76C94.164 195.373 94.604 195.833 95.151 196.14C95.698 196.433 96.298 196.58 96.951 196.58ZM119.564 187.04L116.144 198H114.264L111.624 189.3L108.984 198H107.104L103.664 187.04H105.524L108.044 196.24L110.764 187.04H112.624L115.284 196.26L117.764 187.04H119.564ZM125.25 198.18C124.41 198.18 123.657 198.04 122.99 197.76C122.323 197.467 121.797 197.067 121.41 196.56C121.023 196.04 120.81 195.447 120.77 194.78H122.65C122.703 195.327 122.957 195.773 123.41 196.12C123.877 196.467 124.483 196.64 125.23 196.64C125.923 196.64 126.47 196.487 126.87 196.18C127.27 195.873 127.47 195.487 127.47 195.02C127.47 194.54 127.257 194.187 126.83 193.96C126.403 193.72 125.743 193.487 124.85 193.26C124.037 193.047 123.37 192.833 122.85 192.62C122.343 192.393 121.903 192.067 121.53 191.64C121.17 191.2 120.99 190.627 120.99 189.92C120.99 189.36 121.157 188.847 121.49 188.38C121.823 187.913 122.297 187.547 122.91 187.28C123.523 187 124.223 186.86 125.01 186.86C126.223 186.86 127.203 187.167 127.95 187.78C128.697 188.393 129.097 189.233 129.15 190.3H127.33C127.29 189.727 127.057 189.267 126.63 188.92C126.217 188.573 125.657 188.4 124.95 188.4C124.297 188.4 123.777 188.54 123.39 188.82C123.003 189.1 122.81 189.467 122.81 189.92C122.81 190.28 122.923 190.58 123.15 190.82C123.39 191.047 123.683 191.233 124.03 191.38C124.39 191.513 124.883 191.667 125.51 191.84C126.297 192.053 126.937 192.267 127.43 192.48C127.923 192.68 128.343 192.987 128.69 193.4C129.05 193.813 129.237 194.353 129.25 195.02C129.25 195.62 129.083 196.16 128.75 196.64C128.417 197.12 127.943 197.5 127.33 197.78C126.73 198.047 126.037 198.18 125.25 198.18ZM141.819 192.1C141.819 192.447 141.799 192.813 141.759 193.2H132.999C133.066 194.28 133.433 195.127 134.099 195.74C134.779 196.34 135.599 196.64 136.559 196.64C137.346 196.64 137.999 196.46 138.519 196.1C139.053 195.727 139.426 195.233 139.639 194.62H141.599C141.306 195.673 140.719 196.533 139.839 197.2C138.959 197.853 137.866 198.18 136.559 198.18C135.519 198.18 134.586 197.947 133.759 197.48C132.946 197.013 132.306 196.353 131.839 195.5C131.373 194.633 131.139 193.633 131.139 192.5C131.139 191.367 131.366 190.373 131.819 189.52C132.273 188.667 132.906 188.013 133.719 187.56C134.546 187.093 135.493 186.86 136.559 186.86C137.599 186.86 138.519 187.087 139.319 187.54C140.119 187.993 140.733 188.62 141.159 189.42C141.599 190.207 141.819 191.1 141.819 192.1ZM139.939 191.72C139.939 191.027 139.786 190.433 139.479 189.94C139.173 189.433 138.753 189.053 138.219 188.8C137.699 188.533 137.119 188.4 136.479 188.4C135.559 188.4 134.773 188.693 134.119 189.28C133.479 189.867 133.113 190.68 133.019 191.72H139.939Z" fill="#F9B56F"/>
</svg>
