<svg width="191" height="176" viewBox="0 0 191 176" fill="none" xmlns="http://www.w3.org/2000/svg">
<path fill-rule="evenodd" clip-rule="evenodd" d="M143.636 43H149.5C172.42 43 191 61.5802 191 84.5C191 107.42 172.42 126 149.5 126H41.5C18.5802 126 0 107.42 0 84.5C0 61.5802 18.5802 43 41.5 43H46.3636C49.3221 18.7684 69.9692 0 95 0C120.031 0 140.678 18.7684 143.636 43Z" fill="#2B5AC9"/>
<path fill-rule="evenodd" clip-rule="evenodd" d="M94.3022 43.1418C93.6158 43.4315 93.1692 44.1157 93.1692 44.8754V74.1273C93.1692 75.162 93.991 76.0045 95.0004 76.0045C96.0098 76.0045 96.8293 75.162 96.8293 74.1273V49.4139L100.615 53.312C101.328 54.0473 102.484 54.0473 103.202 53.3169C103.56 52.9517 103.741 52.4696 103.741 51.9899C103.741 51.5102 103.56 51.033 103.206 50.6654L96.2972 43.5508C95.7747 43.0152 94.9862 42.852 94.3022 43.1418ZM99.8723 89.2499C100.882 89.2499 101.701 90.0899 101.701 91.1247C101.701 92.1595 100.882 92.9995 99.8723 92.9995H81.7859C75.9764 92.9995 71.25 88.1542 71.25 82.1962V70.3314C71.25 64.3612 75.9883 59.5037 81.812 59.5037H84.0233C85.0303 59.5037 85.8497 60.3437 85.8497 61.3785C85.8497 62.4133 85.0303 63.2534 84.0233 63.2534H81.812C78.0024 63.2534 74.9076 66.4284 74.9076 70.3314V82.1962C74.9076 86.0871 77.9953 89.2499 81.7859 89.2499H99.8723ZM105.979 63.2538C104.97 63.2538 104.15 62.4138 104.15 61.379C104.15 60.3442 104.97 59.5042 105.979 59.5042H108.214C114.024 59.5042 118.75 64.3495 118.75 70.3075V82.1748C118.75 88.1425 114.012 93 108.188 93C107.179 93 106.362 92.16 106.362 91.1252C106.362 90.0904 107.179 89.2504 108.188 89.2504C111.998 89.2504 115.092 86.0754 115.092 82.1748V70.3075C115.092 66.4167 112.007 63.2538 108.214 63.2538H105.979ZM91.6518 50.1954C91.6518 50.6727 91.4737 51.1499 91.1222 51.5151L89.3907 53.3096C88.6806 54.0449 87.5215 54.0497 86.8066 53.3217C86.0846 52.5913 86.0798 51.408 86.7924 50.6702L88.5214 48.8782C89.234 48.1405 90.3906 48.1356 91.1079 48.8636C91.4689 49.2312 91.6518 49.7133 91.6518 50.1954Z" fill="#FEFEFE"/>
<path d="M7.00828 162.82C7.51495 162.9 7.97495 163.107 8.38828 163.44C8.81495 163.773 9.14828 164.187 9.38828 164.68C9.64161 165.173 9.76828 165.7 9.76828 166.26C9.76828 166.967 9.58828 167.607 9.22828 168.18C8.86828 168.74 8.34162 169.187 7.64828 169.52C6.96828 169.84 6.16161 170 5.22828 170H0.0282822V156.06H5.02828C5.97495 156.06 6.78162 156.22 7.44828 156.54C8.11495 156.847 8.61495 157.267 8.94828 157.8C9.28162 158.333 9.44828 158.933 9.44828 159.6C9.44828 160.427 9.22162 161.113 8.76828 161.66C8.32828 162.193 7.74162 162.58 7.00828 162.82ZM1.84828 162.08H4.90828C5.76161 162.08 6.42161 161.88 6.88828 161.48C7.35495 161.08 7.58828 160.527 7.58828 159.82C7.58828 159.113 7.35495 158.56 6.88828 158.16C6.42161 157.76 5.74828 157.56 4.86828 157.56H1.84828V162.08ZM5.06828 168.5C5.97495 168.5 6.68161 168.287 7.18828 167.86C7.69495 167.433 7.94828 166.84 7.94828 166.08C7.94828 165.307 7.68162 164.7 7.14828 164.26C6.61495 163.807 5.90161 163.58 5.00828 163.58H1.84828V168.5H5.06828ZM14.1139 160.82C14.4339 160.193 14.8872 159.707 15.4739 159.36C16.0739 159.013 16.8006 158.84 17.6539 158.84V160.72H17.1739C15.1339 160.72 14.1139 161.827 14.1139 164.04V170H12.2939V159.04H14.1139V160.82ZM24.5348 170.18C23.5082 170.18 22.5748 169.947 21.7348 169.48C20.9082 169.013 20.2548 168.353 19.7748 167.5C19.3082 166.633 19.0748 165.633 19.0748 164.5C19.0748 163.38 19.3148 162.393 19.7948 161.54C20.2882 160.673 20.9548 160.013 21.7948 159.56C22.6348 159.093 23.5748 158.86 24.6148 158.86C25.6548 158.86 26.5948 159.093 27.4348 159.56C28.2748 160.013 28.9348 160.667 29.4148 161.52C29.9082 162.373 30.1548 163.367 30.1548 164.5C30.1548 165.633 29.9015 166.633 29.3948 167.5C28.9015 168.353 28.2282 169.013 27.3748 169.48C26.5215 169.947 25.5748 170.18 24.5348 170.18ZM24.5348 168.58C25.1882 168.58 25.8015 168.427 26.3748 168.12C26.9482 167.813 27.4082 167.353 27.7548 166.74C28.1148 166.127 28.2948 165.38 28.2948 164.5C28.2948 163.62 28.1215 162.873 27.7748 162.26C27.4282 161.647 26.9748 161.193 26.4148 160.9C25.8548 160.593 25.2482 160.44 24.5948 160.44C23.9282 160.44 23.3148 160.593 22.7548 160.9C22.2082 161.193 21.7682 161.647 21.4348 162.26C21.1015 162.873 20.9348 163.62 20.9348 164.5C20.9348 165.393 21.0948 166.147 21.4148 166.76C21.7482 167.373 22.1882 167.833 22.7348 168.14C23.2815 168.433 23.8815 168.58 24.5348 168.58ZM47.1478 159.04L43.7278 170H41.8478L39.2078 161.3L36.5678 170H34.6878L31.2478 159.04H33.1078L35.6278 168.24L38.3478 159.04H40.2078L42.8678 168.26L45.3478 159.04H47.1478ZM52.8341 170.18C51.9941 170.18 51.2407 170.04 50.5741 169.76C49.9074 169.467 49.3807 169.067 48.9941 168.56C48.6074 168.04 48.3941 167.447 48.3541 166.78H50.2341C50.2874 167.327 50.5407 167.773 50.9941 168.12C51.4607 168.467 52.0674 168.64 52.8141 168.64C53.5074 168.64 54.0541 168.487 54.4541 168.18C54.8541 167.873 55.0541 167.487 55.0541 167.02C55.0541 166.54 54.8407 166.187 54.4141 165.96C53.9874 165.72 53.3274 165.487 52.4341 165.26C51.6207 165.047 50.9541 164.833 50.4341 164.62C49.9274 164.393 49.4874 164.067 49.1141 163.64C48.7541 163.2 48.5741 162.627 48.5741 161.92C48.5741 161.36 48.7407 160.847 49.0741 160.38C49.4074 159.913 49.8807 159.547 50.4941 159.28C51.1074 159 51.8074 158.86 52.5941 158.86C53.8074 158.86 54.7874 159.167 55.5341 159.78C56.2807 160.393 56.6807 161.233 56.7341 162.3H54.9141C54.8741 161.727 54.6407 161.267 54.2141 160.92C53.8007 160.573 53.2407 160.4 52.5341 160.4C51.8807 160.4 51.3607 160.54 50.9741 160.82C50.5874 161.1 50.3941 161.467 50.3941 161.92C50.3941 162.28 50.5074 162.58 50.7341 162.82C50.9741 163.047 51.2674 163.233 51.6141 163.38C51.9741 163.513 52.4674 163.667 53.0941 163.84C53.8807 164.053 54.5207 164.267 55.0141 164.48C55.5074 164.68 55.9274 164.987 56.2741 165.4C56.6341 165.813 56.8207 166.353 56.8341 167.02C56.8341 167.62 56.6674 168.16 56.3341 168.64C56.0007 169.12 55.5274 169.5 54.9141 169.78C54.3141 170.047 53.6207 170.18 52.8341 170.18ZM69.4033 164.1C69.4033 164.447 69.3833 164.813 69.3433 165.2H60.5833C60.6499 166.28 61.0166 167.127 61.6833 167.74C62.3633 168.34 63.1833 168.64 64.1433 168.64C64.9299 168.64 65.5833 168.46 66.1033 168.1C66.6366 167.727 67.0099 167.233 67.2233 166.62H69.1833C68.8899 167.673 68.3033 168.533 67.4233 169.2C66.5433 169.853 65.4499 170.18 64.1433 170.18C63.1033 170.18 62.1699 169.947 61.3433 169.48C60.5299 169.013 59.8899 168.353 59.4233 167.5C58.9566 166.633 58.7233 165.633 58.7233 164.5C58.7233 163.367 58.9499 162.373 59.4033 161.52C59.8566 160.667 60.4899 160.013 61.3033 159.56C62.1299 159.093 63.0766 158.86 64.1433 158.86C65.1833 158.86 66.1033 159.087 66.9033 159.54C67.7033 159.993 68.3166 160.62 68.7433 161.42C69.1833 162.207 69.4033 163.1 69.4033 164.1ZM67.5233 163.72C67.5233 163.027 67.3699 162.433 67.0633 161.94C66.7566 161.433 66.3366 161.053 65.8033 160.8C65.2833 160.533 64.7033 160.4 64.0633 160.4C63.1433 160.4 62.3566 160.693 61.7033 161.28C61.0633 161.867 60.6966 162.68 60.6033 163.72H67.5233Z" fill="#F9B56F"/>
<path d="M76.4577 164.48C76.4577 163.36 76.6843 162.38 77.1377 161.54C77.591 160.687 78.211 160.027 78.9977 159.56C79.7977 159.093 80.6843 158.86 81.6577 158.86C82.6177 158.86 83.451 159.067 84.1577 159.48C84.8643 159.893 85.391 160.413 85.7377 161.04V159.04H87.5777V170H85.7377V167.96C85.3777 168.6 84.8377 169.133 84.1177 169.56C83.411 169.973 82.5843 170.18 81.6377 170.18C80.6643 170.18 79.7843 169.94 78.9977 169.46C78.211 168.98 77.591 168.307 77.1377 167.44C76.6843 166.573 76.4577 165.587 76.4577 164.48ZM85.7377 164.5C85.7377 163.673 85.571 162.953 85.2377 162.34C84.9043 161.727 84.451 161.26 83.8777 160.94C83.3177 160.607 82.6977 160.44 82.0177 160.44C81.3377 160.44 80.7177 160.6 80.1577 160.92C79.5977 161.24 79.151 161.707 78.8177 162.32C78.4843 162.933 78.3177 163.653 78.3177 164.48C78.3177 165.32 78.4843 166.053 78.8177 166.68C79.151 167.293 79.5977 167.767 80.1577 168.1C80.7177 168.42 81.3377 168.58 82.0177 168.58C82.6977 168.58 83.3177 168.42 83.8777 168.1C84.451 167.767 84.9043 167.293 85.2377 166.68C85.571 166.053 85.7377 165.327 85.7377 164.5ZM95.9933 158.84C97.3266 158.84 98.4066 159.247 99.2333 160.06C100.06 160.86 100.473 162.02 100.473 163.54V170H98.6733V163.8C98.6733 162.707 98.3999 161.873 97.8533 161.3C97.3066 160.713 96.5599 160.42 95.6133 160.42C94.6533 160.42 93.8866 160.72 93.3133 161.32C92.7533 161.92 92.4733 162.793 92.4733 163.94V170H90.6533V159.04H92.4733V160.6C92.8333 160.04 93.3199 159.607 93.9333 159.3C94.5599 158.993 95.2466 158.84 95.9933 158.84ZM102.766 164.48C102.766 163.36 102.993 162.38 103.446 161.54C103.9 160.687 104.52 160.027 105.306 159.56C106.106 159.093 107 158.86 107.986 158.86C108.84 158.86 109.633 159.06 110.366 159.46C111.1 159.847 111.66 160.36 112.046 161V155.2H113.886V170H112.046V167.94C111.686 168.593 111.153 169.133 110.446 169.56C109.74 169.973 108.913 170.18 107.966 170.18C106.993 170.18 106.106 169.94 105.306 169.46C104.52 168.98 103.9 168.307 103.446 167.44C102.993 166.573 102.766 165.587 102.766 164.48ZM112.046 164.5C112.046 163.673 111.88 162.953 111.546 162.34C111.213 161.727 110.76 161.26 110.186 160.94C109.626 160.607 109.006 160.44 108.326 160.44C107.646 160.44 107.026 160.6 106.466 160.92C105.906 161.24 105.46 161.707 105.126 162.32C104.793 162.933 104.626 163.653 104.626 164.48C104.626 165.32 104.793 166.053 105.126 166.68C105.46 167.293 105.906 167.767 106.466 168.1C107.026 168.42 107.646 168.58 108.326 168.58C109.006 168.58 109.626 168.42 110.186 168.1C110.76 167.767 111.213 167.293 111.546 166.68C111.88 166.053 112.046 165.327 112.046 164.5ZM124.074 156.06V164.88C124.074 166.12 124.374 167.04 124.974 167.64C125.587 168.24 126.434 168.54 127.514 168.54C128.581 168.54 129.414 168.24 130.014 167.64C130.627 167.04 130.934 166.12 130.934 164.88V156.06H132.754V164.86C132.754 166.02 132.521 167 132.054 167.8C131.587 168.587 130.954 169.173 130.154 169.56C129.367 169.947 128.481 170.14 127.494 170.14C126.507 170.14 125.614 169.947 124.814 169.56C124.027 169.173 123.401 168.587 122.934 167.8C122.481 167 122.254 166.02 122.254 164.86V156.06H124.074ZM137.61 161.06C137.97 160.433 138.503 159.913 139.21 159.5C139.93 159.073 140.763 158.86 141.71 158.86C142.683 158.86 143.563 159.093 144.35 159.56C145.15 160.027 145.777 160.687 146.23 161.54C146.683 162.38 146.91 163.36 146.91 164.48C146.91 165.587 146.683 166.573 146.23 167.44C145.777 168.307 145.15 168.98 144.35 169.46C143.563 169.94 142.683 170.18 141.71 170.18C140.777 170.18 139.95 169.973 139.23 169.56C138.523 169.133 137.983 168.607 137.61 167.98V175.2H135.79V159.04H137.61V161.06ZM145.05 164.48C145.05 163.653 144.883 162.933 144.55 162.32C144.217 161.707 143.763 161.24 143.19 160.92C142.63 160.6 142.01 160.44 141.33 160.44C140.663 160.44 140.043 160.607 139.47 160.94C138.91 161.26 138.457 161.733 138.11 162.36C137.777 162.973 137.61 163.687 137.61 164.5C137.61 165.327 137.777 166.053 138.11 166.68C138.457 167.293 138.91 167.767 139.47 168.1C140.043 168.42 140.663 168.58 141.33 168.58C142.01 168.58 142.63 168.42 143.19 168.1C143.763 167.767 144.217 167.293 144.55 166.68C144.883 166.053 145.05 165.32 145.05 164.48ZM151.126 155.2V170H149.306V155.2H151.126ZM159.008 170.18C157.981 170.18 157.048 169.947 156.208 169.48C155.381 169.013 154.728 168.353 154.248 167.5C153.781 166.633 153.548 165.633 153.548 164.5C153.548 163.38 153.788 162.393 154.268 161.54C154.761 160.673 155.428 160.013 156.268 159.56C157.108 159.093 158.048 158.86 159.088 158.86C160.128 158.86 161.068 159.093 161.908 159.56C162.748 160.013 163.408 160.667 163.888 161.52C164.381 162.373 164.628 163.367 164.628 164.5C164.628 165.633 164.374 166.633 163.868 167.5C163.374 168.353 162.701 169.013 161.848 169.48C160.994 169.947 160.048 170.18 159.008 170.18ZM159.008 168.58C159.661 168.58 160.274 168.427 160.848 168.12C161.421 167.813 161.881 167.353 162.228 166.74C162.588 166.127 162.768 165.38 162.768 164.5C162.768 163.62 162.594 162.873 162.248 162.26C161.901 161.647 161.448 161.193 160.888 160.9C160.328 160.593 159.721 160.44 159.068 160.44C158.401 160.44 157.788 160.593 157.228 160.9C156.681 161.193 156.241 161.647 155.908 162.26C155.574 162.873 155.408 163.62 155.408 164.5C155.408 165.393 155.568 166.147 155.888 166.76C156.221 167.373 156.661 167.833 157.208 168.14C157.754 168.433 158.354 168.58 159.008 168.58ZM166.34 164.48C166.34 163.36 166.567 162.38 167.02 161.54C167.474 160.687 168.094 160.027 168.88 159.56C169.68 159.093 170.567 158.86 171.54 158.86C172.5 158.86 173.334 159.067 174.04 159.48C174.747 159.893 175.274 160.413 175.62 161.04V159.04H177.46V170H175.62V167.96C175.26 168.6 174.72 169.133 174 169.56C173.294 169.973 172.467 170.18 171.52 170.18C170.547 170.18 169.667 169.94 168.88 169.46C168.094 168.98 167.474 168.307 167.02 167.44C166.567 166.573 166.34 165.587 166.34 164.48ZM175.62 164.5C175.62 163.673 175.454 162.953 175.12 162.34C174.787 161.727 174.334 161.26 173.76 160.94C173.2 160.607 172.58 160.44 171.9 160.44C171.22 160.44 170.6 160.6 170.04 160.92C169.48 161.24 169.034 161.707 168.7 162.32C168.367 162.933 168.2 163.653 168.2 164.48C168.2 165.32 168.367 166.053 168.7 166.68C169.034 167.293 169.48 167.767 170.04 168.1C170.6 168.42 171.22 168.58 171.9 168.58C172.58 168.58 173.2 168.42 173.76 168.1C174.334 167.767 174.787 167.293 175.12 166.68C175.454 166.053 175.62 165.327 175.62 164.5ZM179.856 164.48C179.856 163.36 180.083 162.38 180.536 161.54C180.989 160.687 181.609 160.027 182.396 159.56C183.196 159.093 184.089 158.86 185.076 158.86C185.929 158.86 186.723 159.06 187.456 159.46C188.189 159.847 188.749 160.36 189.136 161V155.2H190.976V170H189.136V167.94C188.776 168.593 188.243 169.133 187.536 169.56C186.829 169.973 186.003 170.18 185.056 170.18C184.083 170.18 183.196 169.94 182.396 169.46C181.609 168.98 180.989 168.307 180.536 167.44C180.083 166.573 179.856 165.587 179.856 164.48ZM189.136 164.5C189.136 163.673 188.969 162.953 188.636 162.34C188.303 161.727 187.849 161.26 187.276 160.94C186.716 160.607 186.096 160.44 185.416 160.44C184.736 160.44 184.116 160.6 183.556 160.92C182.996 161.24 182.549 161.707 182.216 162.32C181.883 162.933 181.716 163.653 181.716 164.48C181.716 165.32 181.883 166.053 182.216 166.68C182.549 167.293 182.996 167.767 183.556 168.1C184.116 168.42 184.736 168.58 185.416 168.58C186.096 168.58 186.716 168.42 187.276 168.1C187.849 167.767 188.303 167.293 188.636 166.68C188.969 166.053 189.136 165.327 189.136 164.5Z" fill="#333333"/>
</svg>
